M48
; DRILL file {KiCad (5.1.9)-1} date 10/28/21 19:52:03
; FORMAT={3:3/ absolute / metric / suppress leading zeros}
; #@! TF.CreationDate,2021-10-28T19:52:03+05:30
; #@! TF.GenerationSoftware,Kicad,Pcbnew,(5.1.9)-1
FMAT,2
METRIC,TZ
T1C0.200
T2C0.300
T3C0.400
T4C0.550
T5C0.650
T6C0.850
T7C1.000
T8C0.800
T9C0.900
%
G90
G05
T1
X26330Y-104400
X26930Y-104400
X29080Y-135600
X29800Y-137740
X29980Y-120300
X30130Y-126250
X30130Y-135600
X30680Y-123300
X31180Y-123300
X31280Y-119550
X31730Y-124750
X31880Y-131660
X32280Y-118400
X32280Y-119530
X32430Y-125340
X32620Y-122100
X33140Y-122110
X33200Y-123190
X34130Y-121750
X34290Y-126260
X34670Y-124790
X34670Y-125290
X34730Y-132750
X34780Y-120750
X35030Y-119150
X35880Y-117000
X36330Y-117950
X36530Y-116650
X37730Y-127150
X37730Y-144950
X37730Y-146000
X38230Y-126650
X38780Y-127500
X38780Y-139650
X39530Y-126750
X40080Y-129800
X40380Y-131670
X40780Y-128170
X40990Y-131675
X41260Y-127610
X41555Y-131675
X42030Y-126850
X42130Y-131675
X42730Y-131675
X43730Y-135350
X45330Y-130600
X45330Y-132750
X46840Y-118610
X49830Y-117250
X50730Y-130100
X51030Y-115350
X51250Y-130030
X52680Y-145400
X59980Y-146100
X60030Y-112250
T2
X29440Y-110930
X29440Y-111730
X29440Y-112580
X30140Y-110930
X30140Y-111730
X30140Y-112580
X30630Y-117350
X31200Y-135960
X31530Y-134620
X32230Y-137850
X32300Y-110150
X32680Y-134660
X33030Y-148550
X33590Y-134640
X34030Y-148550
X34730Y-137850
X35450Y-124450
X36220Y-126260
X36230Y-120900
X36280Y-125150
X36480Y-139600
X37070Y-122220
X37330Y-118920
X37530Y-125270
X37630Y-142800
X37730Y-139650
X37830Y-133300
X37830Y-135350
X38930Y-123600
X39130Y-134750
X40390Y-120490
X40730Y-138100
X41370Y-120920
X41580Y-123650
X42480Y-120950
X42780Y-130250
X43030Y-142700
X43030Y-143500
X43780Y-143530
X43790Y-142700
X43910Y-131150
X44770Y-131780
X44950Y-118810
X45270Y-128180
X45530Y-122400
X45740Y-117980
X47030Y-136450
X47630Y-140300
X47700Y-119210
X47780Y-114900
X47910Y-125460
X47990Y-138250
X48030Y-139150
X48170Y-136640
X48330Y-121450
X48630Y-143800
X48880Y-119350
X48930Y-114750
X48930Y-140650
X49030Y-125350
X49330Y-115750
X50130Y-147750
X50530Y-118100
X50980Y-119250
X51030Y-120550
X51480Y-147750
X52230Y-127250
X52230Y-128050
X53680Y-114550
X56080Y-136400
X56080Y-137200
X56110Y-134040
X56120Y-133000
X57480Y-109400
X58205Y-103150
X58230Y-104050
X58330Y-117600
X59130Y-117650
X59155Y-103150
X59180Y-104075
X59230Y-147700
X60130Y-103125
X60180Y-104050
X60630Y-147700
X61080Y-103100
X61130Y-104050
T3
X26130Y-108800
X27230Y-108800
X30090Y-114430
X30090Y-115330
X30405Y-142200
X30430Y-143500
X30430Y-144900
X31540Y-116300
X31730Y-142200
X31730Y-143500
X31730Y-144900
X32430Y-114450
X32630Y-111450
X33130Y-142200
X33130Y-143500
X33130Y-144900
X33430Y-114450
X33680Y-111500
X34630Y-111900
X34630Y-112950
X34710Y-116640
X42670Y-147220
X55430Y-122300
X55430Y-123500
X55730Y-110600
X56630Y-122300
X56630Y-123500
X56830Y-110800
X60230Y-138600
X60230Y-139900
X60930Y-120400
X60930Y-121400
X61830Y-138600
X61830Y-139900
X62030Y-120400
X62030Y-121400
T5
X29440Y-108770
X30710Y-108770
T7
X25330Y-111110
X25330Y-113650
X26470Y-140800
X26470Y-143340
X26470Y-145880
X26470Y-148420
X26500Y-129240
X26500Y-131780
X26500Y-134320
X26500Y-136860
X26570Y-117750
X26570Y-120290
X26570Y-122830
X26570Y-125370
X30730Y-103485
X30730Y-106025
X34500Y-108560
X34520Y-103480
X34520Y-106020
X37040Y-108560
X37060Y-103480
X37060Y-106020
X37590Y-149350
X39580Y-108560
X39600Y-103480
X39600Y-106020
X40130Y-149350
X42120Y-108560
X42140Y-103480
X42140Y-106020
X42670Y-149350
X44660Y-108560
X44680Y-103480
X44680Y-106020
X45210Y-149350
X47200Y-108560
X47220Y-103480
X47220Y-106020
X49740Y-108560
X49760Y-103480
X49760Y-106020
X52280Y-108560
X52300Y-103480
X52300Y-106020
X56360Y-142880
X58900Y-142880
X59680Y-125180
X59680Y-127720
X59680Y-130260
X59680Y-132800
X59680Y-135340
X61440Y-142880
X62220Y-125180
X62220Y-127720
X62220Y-130260
X62220Y-132800
X62220Y-135340
X63980Y-142880
T8
X57130Y-107250
X62130Y-107250
T9
X50100Y-149480
X53100Y-149480
X59125Y-149435
X62125Y-149435
T4
G00X55755Y-104825
M15
G01X55755Y-104175
M16
G05
G00X63505Y-104825
M15
G01X63505Y-104175
M16
G05
T6
G00X55905Y-108575
M15
G01X55905Y-108025
M16
G05
G00X63355Y-108575
M15
G01X63355Y-108025
M16
G05
T0
M30
