%TF.GenerationSoftware,KiCad,Pcbnew,(5.1.9)-1*%
%TF.CreationDate,2021-10-28T19:53:02+05:30*%
%TF.ProjectId,royal_fc,726f7961-6c5f-4666-932e-6b696361645f,v1.0*%
%TF.SameCoordinates,Original*%
%TF.FileFunction,Paste,Top*%
%TF.FilePolarity,Positive*%
%FSLAX46Y46*%
G04 Gerber Fmt 4.6, Leading zero omitted, Abs format (unit mm)*
G04 Created by KiCad (PCBNEW (5.1.9)-1) date 2021-10-28 19:53:02*
%MOMM*%
%LPD*%
G01*
G04 APERTURE LIST*
%ADD10R,0.675000X0.250000*%
%ADD11R,0.250000X0.675000*%
%ADD12R,0.250000X0.280000*%
%ADD13R,0.280000X0.250000*%
%ADD14R,3.450000X4.350000*%
%ADD15R,1.058000X0.988000*%
%ADD16R,0.450000X1.300000*%
%ADD17R,1.500000X1.500000*%
%ADD18R,1.060000X0.650000*%
%ADD19R,0.350000X0.375000*%
%ADD20R,0.375000X0.350000*%
%ADD21R,0.700000X1.500000*%
%ADD22R,1.000000X0.800000*%
%ADD23R,0.650000X1.060000*%
%ADD24R,1.200000X1.400000*%
G04 APERTURE END LIST*
D10*
%TO.C,U6*%
X30180000Y-122680000D03*
D11*
X30692500Y-123942500D03*
X31192500Y-123942500D03*
X31692500Y-123942500D03*
X32192500Y-123942500D03*
X32692500Y-123942500D03*
X33192500Y-123942500D03*
X33692500Y-123942500D03*
D10*
X34205000Y-122680000D03*
D11*
X33692500Y-121417500D03*
X33192500Y-121417500D03*
X32692500Y-121417500D03*
X32192500Y-121417500D03*
X31692500Y-121417500D03*
X31192500Y-121417500D03*
X30692500Y-121417500D03*
%TD*%
D12*
%TO.C,IC4*%
X29175000Y-137495000D03*
D13*
X29145000Y-137095000D03*
D12*
X29545000Y-137095000D03*
D13*
X29545000Y-137495000D03*
%TD*%
D14*
%TO.C,IC3*%
X43810000Y-143120000D03*
D15*
X40035000Y-145055000D03*
X40035000Y-143785000D03*
X40035000Y-142515000D03*
X40035000Y-141245000D03*
X47585000Y-141245000D03*
X47585000Y-142515000D03*
X47585000Y-143785000D03*
X47585000Y-145055000D03*
%TD*%
D16*
%TO.C,USB1*%
X58330000Y-108350000D03*
X58980000Y-108350000D03*
X59630000Y-108350000D03*
X60280000Y-108350000D03*
X60930000Y-108350000D03*
%TD*%
%TO.C,R16*%
G36*
G01*
X40520000Y-123835000D02*
X40520000Y-123465000D01*
G75*
G02*
X40655000Y-123330000I135000J0D01*
G01*
X40925000Y-123330000D01*
G75*
G02*
X41060000Y-123465000I0J-135000D01*
G01*
X41060000Y-123835000D01*
G75*
G02*
X40925000Y-123970000I-135000J0D01*
G01*
X40655000Y-123970000D01*
G75*
G02*
X40520000Y-123835000I0J135000D01*
G01*
G37*
G36*
G01*
X39500000Y-123835000D02*
X39500000Y-123465000D01*
G75*
G02*
X39635000Y-123330000I135000J0D01*
G01*
X39905000Y-123330000D01*
G75*
G02*
X40040000Y-123465000I0J-135000D01*
G01*
X40040000Y-123835000D01*
G75*
G02*
X39905000Y-123970000I-135000J0D01*
G01*
X39635000Y-123970000D01*
G75*
G02*
X39500000Y-123835000I0J135000D01*
G01*
G37*
%TD*%
%TO.C,R15*%
G36*
G01*
X38215000Y-122810000D02*
X37845000Y-122810000D01*
G75*
G02*
X37710000Y-122675000I0J135000D01*
G01*
X37710000Y-122405000D01*
G75*
G02*
X37845000Y-122270000I135000J0D01*
G01*
X38215000Y-122270000D01*
G75*
G02*
X38350000Y-122405000I0J-135000D01*
G01*
X38350000Y-122675000D01*
G75*
G02*
X38215000Y-122810000I-135000J0D01*
G01*
G37*
G36*
G01*
X38215000Y-123830000D02*
X37845000Y-123830000D01*
G75*
G02*
X37710000Y-123695000I0J135000D01*
G01*
X37710000Y-123425000D01*
G75*
G02*
X37845000Y-123290000I135000J0D01*
G01*
X38215000Y-123290000D01*
G75*
G02*
X38350000Y-123425000I0J-135000D01*
G01*
X38350000Y-123695000D01*
G75*
G02*
X38215000Y-123830000I-135000J0D01*
G01*
G37*
%TD*%
%TO.C,R14*%
G36*
G01*
X49745000Y-130340000D02*
X50115000Y-130340000D01*
G75*
G02*
X50250000Y-130475000I0J-135000D01*
G01*
X50250000Y-130745000D01*
G75*
G02*
X50115000Y-130880000I-135000J0D01*
G01*
X49745000Y-130880000D01*
G75*
G02*
X49610000Y-130745000I0J135000D01*
G01*
X49610000Y-130475000D01*
G75*
G02*
X49745000Y-130340000I135000J0D01*
G01*
G37*
G36*
G01*
X49745000Y-129320000D02*
X50115000Y-129320000D01*
G75*
G02*
X50250000Y-129455000I0J-135000D01*
G01*
X50250000Y-129725000D01*
G75*
G02*
X50115000Y-129860000I-135000J0D01*
G01*
X49745000Y-129860000D01*
G75*
G02*
X49610000Y-129725000I0J135000D01*
G01*
X49610000Y-129455000D01*
G75*
G02*
X49745000Y-129320000I135000J0D01*
G01*
G37*
%TD*%
%TO.C,R13*%
G36*
G01*
X52135000Y-130390000D02*
X51765000Y-130390000D01*
G75*
G02*
X51630000Y-130255000I0J135000D01*
G01*
X51630000Y-129985000D01*
G75*
G02*
X51765000Y-129850000I135000J0D01*
G01*
X52135000Y-129850000D01*
G75*
G02*
X52270000Y-129985000I0J-135000D01*
G01*
X52270000Y-130255000D01*
G75*
G02*
X52135000Y-130390000I-135000J0D01*
G01*
G37*
G36*
G01*
X52135000Y-131410000D02*
X51765000Y-131410000D01*
G75*
G02*
X51630000Y-131275000I0J135000D01*
G01*
X51630000Y-131005000D01*
G75*
G02*
X51765000Y-130870000I135000J0D01*
G01*
X52135000Y-130870000D01*
G75*
G02*
X52270000Y-131005000I0J-135000D01*
G01*
X52270000Y-131275000D01*
G75*
G02*
X52135000Y-131410000I-135000J0D01*
G01*
G37*
%TD*%
%TO.C,R4*%
G36*
G01*
X55165000Y-120210000D02*
X54795000Y-120210000D01*
G75*
G02*
X54660000Y-120075000I0J135000D01*
G01*
X54660000Y-119805000D01*
G75*
G02*
X54795000Y-119670000I135000J0D01*
G01*
X55165000Y-119670000D01*
G75*
G02*
X55300000Y-119805000I0J-135000D01*
G01*
X55300000Y-120075000D01*
G75*
G02*
X55165000Y-120210000I-135000J0D01*
G01*
G37*
G36*
G01*
X55165000Y-121230000D02*
X54795000Y-121230000D01*
G75*
G02*
X54660000Y-121095000I0J135000D01*
G01*
X54660000Y-120825000D01*
G75*
G02*
X54795000Y-120690000I135000J0D01*
G01*
X55165000Y-120690000D01*
G75*
G02*
X55300000Y-120825000I0J-135000D01*
G01*
X55300000Y-121095000D01*
G75*
G02*
X55165000Y-121230000I-135000J0D01*
G01*
G37*
%TD*%
%TO.C,R3*%
G36*
G01*
X53865000Y-120210000D02*
X53495000Y-120210000D01*
G75*
G02*
X53360000Y-120075000I0J135000D01*
G01*
X53360000Y-119805000D01*
G75*
G02*
X53495000Y-119670000I135000J0D01*
G01*
X53865000Y-119670000D01*
G75*
G02*
X54000000Y-119805000I0J-135000D01*
G01*
X54000000Y-120075000D01*
G75*
G02*
X53865000Y-120210000I-135000J0D01*
G01*
G37*
G36*
G01*
X53865000Y-121230000D02*
X53495000Y-121230000D01*
G75*
G02*
X53360000Y-121095000I0J135000D01*
G01*
X53360000Y-120825000D01*
G75*
G02*
X53495000Y-120690000I135000J0D01*
G01*
X53865000Y-120690000D01*
G75*
G02*
X54000000Y-120825000I0J-135000D01*
G01*
X54000000Y-121095000D01*
G75*
G02*
X53865000Y-121230000I-135000J0D01*
G01*
G37*
%TD*%
%TO.C,C24*%
G36*
G01*
X33630000Y-125220000D02*
X33630000Y-124880000D01*
G75*
G02*
X33770000Y-124740000I140000J0D01*
G01*
X34050000Y-124740000D01*
G75*
G02*
X34190000Y-124880000I0J-140000D01*
G01*
X34190000Y-125220000D01*
G75*
G02*
X34050000Y-125360000I-140000J0D01*
G01*
X33770000Y-125360000D01*
G75*
G02*
X33630000Y-125220000I0J140000D01*
G01*
G37*
G36*
G01*
X32670000Y-125220000D02*
X32670000Y-124880000D01*
G75*
G02*
X32810000Y-124740000I140000J0D01*
G01*
X33090000Y-124740000D01*
G75*
G02*
X33230000Y-124880000I0J-140000D01*
G01*
X33230000Y-125220000D01*
G75*
G02*
X33090000Y-125360000I-140000J0D01*
G01*
X32810000Y-125360000D01*
G75*
G02*
X32670000Y-125220000I0J140000D01*
G01*
G37*
%TD*%
D17*
%TO.C,S3*%
X33530000Y-147350000D03*
X33530000Y-139550000D03*
%TD*%
%TO.C,U3*%
G36*
G01*
X35560000Y-127285000D02*
X35560000Y-127135000D01*
G75*
G02*
X35635000Y-127060000I75000J0D01*
G01*
X37035000Y-127060000D01*
G75*
G02*
X37110000Y-127135000I0J-75000D01*
G01*
X37110000Y-127285000D01*
G75*
G02*
X37035000Y-127360000I-75000J0D01*
G01*
X35635000Y-127360000D01*
G75*
G02*
X35560000Y-127285000I0J75000D01*
G01*
G37*
G36*
G01*
X35560000Y-127785000D02*
X35560000Y-127635000D01*
G75*
G02*
X35635000Y-127560000I75000J0D01*
G01*
X37035000Y-127560000D01*
G75*
G02*
X37110000Y-127635000I0J-75000D01*
G01*
X37110000Y-127785000D01*
G75*
G02*
X37035000Y-127860000I-75000J0D01*
G01*
X35635000Y-127860000D01*
G75*
G02*
X35560000Y-127785000I0J75000D01*
G01*
G37*
G36*
G01*
X35560000Y-128285000D02*
X35560000Y-128135000D01*
G75*
G02*
X35635000Y-128060000I75000J0D01*
G01*
X37035000Y-128060000D01*
G75*
G02*
X37110000Y-128135000I0J-75000D01*
G01*
X37110000Y-128285000D01*
G75*
G02*
X37035000Y-128360000I-75000J0D01*
G01*
X35635000Y-128360000D01*
G75*
G02*
X35560000Y-128285000I0J75000D01*
G01*
G37*
G36*
G01*
X35560000Y-128785000D02*
X35560000Y-128635000D01*
G75*
G02*
X35635000Y-128560000I75000J0D01*
G01*
X37035000Y-128560000D01*
G75*
G02*
X37110000Y-128635000I0J-75000D01*
G01*
X37110000Y-128785000D01*
G75*
G02*
X37035000Y-128860000I-75000J0D01*
G01*
X35635000Y-128860000D01*
G75*
G02*
X35560000Y-128785000I0J75000D01*
G01*
G37*
G36*
G01*
X35560000Y-129285000D02*
X35560000Y-129135000D01*
G75*
G02*
X35635000Y-129060000I75000J0D01*
G01*
X37035000Y-129060000D01*
G75*
G02*
X37110000Y-129135000I0J-75000D01*
G01*
X37110000Y-129285000D01*
G75*
G02*
X37035000Y-129360000I-75000J0D01*
G01*
X35635000Y-129360000D01*
G75*
G02*
X35560000Y-129285000I0J75000D01*
G01*
G37*
G36*
G01*
X35560000Y-129785000D02*
X35560000Y-129635000D01*
G75*
G02*
X35635000Y-129560000I75000J0D01*
G01*
X37035000Y-129560000D01*
G75*
G02*
X37110000Y-129635000I0J-75000D01*
G01*
X37110000Y-129785000D01*
G75*
G02*
X37035000Y-129860000I-75000J0D01*
G01*
X35635000Y-129860000D01*
G75*
G02*
X35560000Y-129785000I0J75000D01*
G01*
G37*
G36*
G01*
X35560000Y-130285000D02*
X35560000Y-130135000D01*
G75*
G02*
X35635000Y-130060000I75000J0D01*
G01*
X37035000Y-130060000D01*
G75*
G02*
X37110000Y-130135000I0J-75000D01*
G01*
X37110000Y-130285000D01*
G75*
G02*
X37035000Y-130360000I-75000J0D01*
G01*
X35635000Y-130360000D01*
G75*
G02*
X35560000Y-130285000I0J75000D01*
G01*
G37*
G36*
G01*
X35560000Y-130785000D02*
X35560000Y-130635000D01*
G75*
G02*
X35635000Y-130560000I75000J0D01*
G01*
X37035000Y-130560000D01*
G75*
G02*
X37110000Y-130635000I0J-75000D01*
G01*
X37110000Y-130785000D01*
G75*
G02*
X37035000Y-130860000I-75000J0D01*
G01*
X35635000Y-130860000D01*
G75*
G02*
X35560000Y-130785000I0J75000D01*
G01*
G37*
G36*
G01*
X35560000Y-131285000D02*
X35560000Y-131135000D01*
G75*
G02*
X35635000Y-131060000I75000J0D01*
G01*
X37035000Y-131060000D01*
G75*
G02*
X37110000Y-131135000I0J-75000D01*
G01*
X37110000Y-131285000D01*
G75*
G02*
X37035000Y-131360000I-75000J0D01*
G01*
X35635000Y-131360000D01*
G75*
G02*
X35560000Y-131285000I0J75000D01*
G01*
G37*
G36*
G01*
X35560000Y-131785000D02*
X35560000Y-131635000D01*
G75*
G02*
X35635000Y-131560000I75000J0D01*
G01*
X37035000Y-131560000D01*
G75*
G02*
X37110000Y-131635000I0J-75000D01*
G01*
X37110000Y-131785000D01*
G75*
G02*
X37035000Y-131860000I-75000J0D01*
G01*
X35635000Y-131860000D01*
G75*
G02*
X35560000Y-131785000I0J75000D01*
G01*
G37*
G36*
G01*
X35560000Y-132285000D02*
X35560000Y-132135000D01*
G75*
G02*
X35635000Y-132060000I75000J0D01*
G01*
X37035000Y-132060000D01*
G75*
G02*
X37110000Y-132135000I0J-75000D01*
G01*
X37110000Y-132285000D01*
G75*
G02*
X37035000Y-132360000I-75000J0D01*
G01*
X35635000Y-132360000D01*
G75*
G02*
X35560000Y-132285000I0J75000D01*
G01*
G37*
G36*
G01*
X35560000Y-132785000D02*
X35560000Y-132635000D01*
G75*
G02*
X35635000Y-132560000I75000J0D01*
G01*
X37035000Y-132560000D01*
G75*
G02*
X37110000Y-132635000I0J-75000D01*
G01*
X37110000Y-132785000D01*
G75*
G02*
X37035000Y-132860000I-75000J0D01*
G01*
X35635000Y-132860000D01*
G75*
G02*
X35560000Y-132785000I0J75000D01*
G01*
G37*
G36*
G01*
X35560000Y-133285000D02*
X35560000Y-133135000D01*
G75*
G02*
X35635000Y-133060000I75000J0D01*
G01*
X37035000Y-133060000D01*
G75*
G02*
X37110000Y-133135000I0J-75000D01*
G01*
X37110000Y-133285000D01*
G75*
G02*
X37035000Y-133360000I-75000J0D01*
G01*
X35635000Y-133360000D01*
G75*
G02*
X35560000Y-133285000I0J75000D01*
G01*
G37*
G36*
G01*
X35560000Y-133785000D02*
X35560000Y-133635000D01*
G75*
G02*
X35635000Y-133560000I75000J0D01*
G01*
X37035000Y-133560000D01*
G75*
G02*
X37110000Y-133635000I0J-75000D01*
G01*
X37110000Y-133785000D01*
G75*
G02*
X37035000Y-133860000I-75000J0D01*
G01*
X35635000Y-133860000D01*
G75*
G02*
X35560000Y-133785000I0J75000D01*
G01*
G37*
G36*
G01*
X35560000Y-134285000D02*
X35560000Y-134135000D01*
G75*
G02*
X35635000Y-134060000I75000J0D01*
G01*
X37035000Y-134060000D01*
G75*
G02*
X37110000Y-134135000I0J-75000D01*
G01*
X37110000Y-134285000D01*
G75*
G02*
X37035000Y-134360000I-75000J0D01*
G01*
X35635000Y-134360000D01*
G75*
G02*
X35560000Y-134285000I0J75000D01*
G01*
G37*
G36*
G01*
X35560000Y-134785000D02*
X35560000Y-134635000D01*
G75*
G02*
X35635000Y-134560000I75000J0D01*
G01*
X37035000Y-134560000D01*
G75*
G02*
X37110000Y-134635000I0J-75000D01*
G01*
X37110000Y-134785000D01*
G75*
G02*
X37035000Y-134860000I-75000J0D01*
G01*
X35635000Y-134860000D01*
G75*
G02*
X35560000Y-134785000I0J75000D01*
G01*
G37*
G36*
G01*
X38110000Y-137335000D02*
X38110000Y-135935000D01*
G75*
G02*
X38185000Y-135860000I75000J0D01*
G01*
X38335000Y-135860000D01*
G75*
G02*
X38410000Y-135935000I0J-75000D01*
G01*
X38410000Y-137335000D01*
G75*
G02*
X38335000Y-137410000I-75000J0D01*
G01*
X38185000Y-137410000D01*
G75*
G02*
X38110000Y-137335000I0J75000D01*
G01*
G37*
G36*
G01*
X38610000Y-137335000D02*
X38610000Y-135935000D01*
G75*
G02*
X38685000Y-135860000I75000J0D01*
G01*
X38835000Y-135860000D01*
G75*
G02*
X38910000Y-135935000I0J-75000D01*
G01*
X38910000Y-137335000D01*
G75*
G02*
X38835000Y-137410000I-75000J0D01*
G01*
X38685000Y-137410000D01*
G75*
G02*
X38610000Y-137335000I0J75000D01*
G01*
G37*
G36*
G01*
X39110000Y-137335000D02*
X39110000Y-135935000D01*
G75*
G02*
X39185000Y-135860000I75000J0D01*
G01*
X39335000Y-135860000D01*
G75*
G02*
X39410000Y-135935000I0J-75000D01*
G01*
X39410000Y-137335000D01*
G75*
G02*
X39335000Y-137410000I-75000J0D01*
G01*
X39185000Y-137410000D01*
G75*
G02*
X39110000Y-137335000I0J75000D01*
G01*
G37*
G36*
G01*
X39610000Y-137335000D02*
X39610000Y-135935000D01*
G75*
G02*
X39685000Y-135860000I75000J0D01*
G01*
X39835000Y-135860000D01*
G75*
G02*
X39910000Y-135935000I0J-75000D01*
G01*
X39910000Y-137335000D01*
G75*
G02*
X39835000Y-137410000I-75000J0D01*
G01*
X39685000Y-137410000D01*
G75*
G02*
X39610000Y-137335000I0J75000D01*
G01*
G37*
G36*
G01*
X40110000Y-137335000D02*
X40110000Y-135935000D01*
G75*
G02*
X40185000Y-135860000I75000J0D01*
G01*
X40335000Y-135860000D01*
G75*
G02*
X40410000Y-135935000I0J-75000D01*
G01*
X40410000Y-137335000D01*
G75*
G02*
X40335000Y-137410000I-75000J0D01*
G01*
X40185000Y-137410000D01*
G75*
G02*
X40110000Y-137335000I0J75000D01*
G01*
G37*
G36*
G01*
X40610000Y-137335000D02*
X40610000Y-135935000D01*
G75*
G02*
X40685000Y-135860000I75000J0D01*
G01*
X40835000Y-135860000D01*
G75*
G02*
X40910000Y-135935000I0J-75000D01*
G01*
X40910000Y-137335000D01*
G75*
G02*
X40835000Y-137410000I-75000J0D01*
G01*
X40685000Y-137410000D01*
G75*
G02*
X40610000Y-137335000I0J75000D01*
G01*
G37*
G36*
G01*
X41110000Y-137335000D02*
X41110000Y-135935000D01*
G75*
G02*
X41185000Y-135860000I75000J0D01*
G01*
X41335000Y-135860000D01*
G75*
G02*
X41410000Y-135935000I0J-75000D01*
G01*
X41410000Y-137335000D01*
G75*
G02*
X41335000Y-137410000I-75000J0D01*
G01*
X41185000Y-137410000D01*
G75*
G02*
X41110000Y-137335000I0J75000D01*
G01*
G37*
G36*
G01*
X41610000Y-137335000D02*
X41610000Y-135935000D01*
G75*
G02*
X41685000Y-135860000I75000J0D01*
G01*
X41835000Y-135860000D01*
G75*
G02*
X41910000Y-135935000I0J-75000D01*
G01*
X41910000Y-137335000D01*
G75*
G02*
X41835000Y-137410000I-75000J0D01*
G01*
X41685000Y-137410000D01*
G75*
G02*
X41610000Y-137335000I0J75000D01*
G01*
G37*
G36*
G01*
X42110000Y-137335000D02*
X42110000Y-135935000D01*
G75*
G02*
X42185000Y-135860000I75000J0D01*
G01*
X42335000Y-135860000D01*
G75*
G02*
X42410000Y-135935000I0J-75000D01*
G01*
X42410000Y-137335000D01*
G75*
G02*
X42335000Y-137410000I-75000J0D01*
G01*
X42185000Y-137410000D01*
G75*
G02*
X42110000Y-137335000I0J75000D01*
G01*
G37*
G36*
G01*
X42610000Y-137335000D02*
X42610000Y-135935000D01*
G75*
G02*
X42685000Y-135860000I75000J0D01*
G01*
X42835000Y-135860000D01*
G75*
G02*
X42910000Y-135935000I0J-75000D01*
G01*
X42910000Y-137335000D01*
G75*
G02*
X42835000Y-137410000I-75000J0D01*
G01*
X42685000Y-137410000D01*
G75*
G02*
X42610000Y-137335000I0J75000D01*
G01*
G37*
G36*
G01*
X43110000Y-137335000D02*
X43110000Y-135935000D01*
G75*
G02*
X43185000Y-135860000I75000J0D01*
G01*
X43335000Y-135860000D01*
G75*
G02*
X43410000Y-135935000I0J-75000D01*
G01*
X43410000Y-137335000D01*
G75*
G02*
X43335000Y-137410000I-75000J0D01*
G01*
X43185000Y-137410000D01*
G75*
G02*
X43110000Y-137335000I0J75000D01*
G01*
G37*
G36*
G01*
X43610000Y-137335000D02*
X43610000Y-135935000D01*
G75*
G02*
X43685000Y-135860000I75000J0D01*
G01*
X43835000Y-135860000D01*
G75*
G02*
X43910000Y-135935000I0J-75000D01*
G01*
X43910000Y-137335000D01*
G75*
G02*
X43835000Y-137410000I-75000J0D01*
G01*
X43685000Y-137410000D01*
G75*
G02*
X43610000Y-137335000I0J75000D01*
G01*
G37*
G36*
G01*
X44110000Y-137335000D02*
X44110000Y-135935000D01*
G75*
G02*
X44185000Y-135860000I75000J0D01*
G01*
X44335000Y-135860000D01*
G75*
G02*
X44410000Y-135935000I0J-75000D01*
G01*
X44410000Y-137335000D01*
G75*
G02*
X44335000Y-137410000I-75000J0D01*
G01*
X44185000Y-137410000D01*
G75*
G02*
X44110000Y-137335000I0J75000D01*
G01*
G37*
G36*
G01*
X44610000Y-137335000D02*
X44610000Y-135935000D01*
G75*
G02*
X44685000Y-135860000I75000J0D01*
G01*
X44835000Y-135860000D01*
G75*
G02*
X44910000Y-135935000I0J-75000D01*
G01*
X44910000Y-137335000D01*
G75*
G02*
X44835000Y-137410000I-75000J0D01*
G01*
X44685000Y-137410000D01*
G75*
G02*
X44610000Y-137335000I0J75000D01*
G01*
G37*
G36*
G01*
X45110000Y-137335000D02*
X45110000Y-135935000D01*
G75*
G02*
X45185000Y-135860000I75000J0D01*
G01*
X45335000Y-135860000D01*
G75*
G02*
X45410000Y-135935000I0J-75000D01*
G01*
X45410000Y-137335000D01*
G75*
G02*
X45335000Y-137410000I-75000J0D01*
G01*
X45185000Y-137410000D01*
G75*
G02*
X45110000Y-137335000I0J75000D01*
G01*
G37*
G36*
G01*
X45610000Y-137335000D02*
X45610000Y-135935000D01*
G75*
G02*
X45685000Y-135860000I75000J0D01*
G01*
X45835000Y-135860000D01*
G75*
G02*
X45910000Y-135935000I0J-75000D01*
G01*
X45910000Y-137335000D01*
G75*
G02*
X45835000Y-137410000I-75000J0D01*
G01*
X45685000Y-137410000D01*
G75*
G02*
X45610000Y-137335000I0J75000D01*
G01*
G37*
G36*
G01*
X46910000Y-134785000D02*
X46910000Y-134635000D01*
G75*
G02*
X46985000Y-134560000I75000J0D01*
G01*
X48385000Y-134560000D01*
G75*
G02*
X48460000Y-134635000I0J-75000D01*
G01*
X48460000Y-134785000D01*
G75*
G02*
X48385000Y-134860000I-75000J0D01*
G01*
X46985000Y-134860000D01*
G75*
G02*
X46910000Y-134785000I0J75000D01*
G01*
G37*
G36*
G01*
X46910000Y-134285000D02*
X46910000Y-134135000D01*
G75*
G02*
X46985000Y-134060000I75000J0D01*
G01*
X48385000Y-134060000D01*
G75*
G02*
X48460000Y-134135000I0J-75000D01*
G01*
X48460000Y-134285000D01*
G75*
G02*
X48385000Y-134360000I-75000J0D01*
G01*
X46985000Y-134360000D01*
G75*
G02*
X46910000Y-134285000I0J75000D01*
G01*
G37*
G36*
G01*
X46910000Y-133785000D02*
X46910000Y-133635000D01*
G75*
G02*
X46985000Y-133560000I75000J0D01*
G01*
X48385000Y-133560000D01*
G75*
G02*
X48460000Y-133635000I0J-75000D01*
G01*
X48460000Y-133785000D01*
G75*
G02*
X48385000Y-133860000I-75000J0D01*
G01*
X46985000Y-133860000D01*
G75*
G02*
X46910000Y-133785000I0J75000D01*
G01*
G37*
G36*
G01*
X46910000Y-133285000D02*
X46910000Y-133135000D01*
G75*
G02*
X46985000Y-133060000I75000J0D01*
G01*
X48385000Y-133060000D01*
G75*
G02*
X48460000Y-133135000I0J-75000D01*
G01*
X48460000Y-133285000D01*
G75*
G02*
X48385000Y-133360000I-75000J0D01*
G01*
X46985000Y-133360000D01*
G75*
G02*
X46910000Y-133285000I0J75000D01*
G01*
G37*
G36*
G01*
X46910000Y-132785000D02*
X46910000Y-132635000D01*
G75*
G02*
X46985000Y-132560000I75000J0D01*
G01*
X48385000Y-132560000D01*
G75*
G02*
X48460000Y-132635000I0J-75000D01*
G01*
X48460000Y-132785000D01*
G75*
G02*
X48385000Y-132860000I-75000J0D01*
G01*
X46985000Y-132860000D01*
G75*
G02*
X46910000Y-132785000I0J75000D01*
G01*
G37*
G36*
G01*
X46910000Y-132285000D02*
X46910000Y-132135000D01*
G75*
G02*
X46985000Y-132060000I75000J0D01*
G01*
X48385000Y-132060000D01*
G75*
G02*
X48460000Y-132135000I0J-75000D01*
G01*
X48460000Y-132285000D01*
G75*
G02*
X48385000Y-132360000I-75000J0D01*
G01*
X46985000Y-132360000D01*
G75*
G02*
X46910000Y-132285000I0J75000D01*
G01*
G37*
G36*
G01*
X46910000Y-131785000D02*
X46910000Y-131635000D01*
G75*
G02*
X46985000Y-131560000I75000J0D01*
G01*
X48385000Y-131560000D01*
G75*
G02*
X48460000Y-131635000I0J-75000D01*
G01*
X48460000Y-131785000D01*
G75*
G02*
X48385000Y-131860000I-75000J0D01*
G01*
X46985000Y-131860000D01*
G75*
G02*
X46910000Y-131785000I0J75000D01*
G01*
G37*
G36*
G01*
X46910000Y-131285000D02*
X46910000Y-131135000D01*
G75*
G02*
X46985000Y-131060000I75000J0D01*
G01*
X48385000Y-131060000D01*
G75*
G02*
X48460000Y-131135000I0J-75000D01*
G01*
X48460000Y-131285000D01*
G75*
G02*
X48385000Y-131360000I-75000J0D01*
G01*
X46985000Y-131360000D01*
G75*
G02*
X46910000Y-131285000I0J75000D01*
G01*
G37*
G36*
G01*
X46910000Y-130785000D02*
X46910000Y-130635000D01*
G75*
G02*
X46985000Y-130560000I75000J0D01*
G01*
X48385000Y-130560000D01*
G75*
G02*
X48460000Y-130635000I0J-75000D01*
G01*
X48460000Y-130785000D01*
G75*
G02*
X48385000Y-130860000I-75000J0D01*
G01*
X46985000Y-130860000D01*
G75*
G02*
X46910000Y-130785000I0J75000D01*
G01*
G37*
G36*
G01*
X46910000Y-130285000D02*
X46910000Y-130135000D01*
G75*
G02*
X46985000Y-130060000I75000J0D01*
G01*
X48385000Y-130060000D01*
G75*
G02*
X48460000Y-130135000I0J-75000D01*
G01*
X48460000Y-130285000D01*
G75*
G02*
X48385000Y-130360000I-75000J0D01*
G01*
X46985000Y-130360000D01*
G75*
G02*
X46910000Y-130285000I0J75000D01*
G01*
G37*
G36*
G01*
X46910000Y-129785000D02*
X46910000Y-129635000D01*
G75*
G02*
X46985000Y-129560000I75000J0D01*
G01*
X48385000Y-129560000D01*
G75*
G02*
X48460000Y-129635000I0J-75000D01*
G01*
X48460000Y-129785000D01*
G75*
G02*
X48385000Y-129860000I-75000J0D01*
G01*
X46985000Y-129860000D01*
G75*
G02*
X46910000Y-129785000I0J75000D01*
G01*
G37*
G36*
G01*
X46910000Y-129285000D02*
X46910000Y-129135000D01*
G75*
G02*
X46985000Y-129060000I75000J0D01*
G01*
X48385000Y-129060000D01*
G75*
G02*
X48460000Y-129135000I0J-75000D01*
G01*
X48460000Y-129285000D01*
G75*
G02*
X48385000Y-129360000I-75000J0D01*
G01*
X46985000Y-129360000D01*
G75*
G02*
X46910000Y-129285000I0J75000D01*
G01*
G37*
G36*
G01*
X46910000Y-128785000D02*
X46910000Y-128635000D01*
G75*
G02*
X46985000Y-128560000I75000J0D01*
G01*
X48385000Y-128560000D01*
G75*
G02*
X48460000Y-128635000I0J-75000D01*
G01*
X48460000Y-128785000D01*
G75*
G02*
X48385000Y-128860000I-75000J0D01*
G01*
X46985000Y-128860000D01*
G75*
G02*
X46910000Y-128785000I0J75000D01*
G01*
G37*
G36*
G01*
X46910000Y-128285000D02*
X46910000Y-128135000D01*
G75*
G02*
X46985000Y-128060000I75000J0D01*
G01*
X48385000Y-128060000D01*
G75*
G02*
X48460000Y-128135000I0J-75000D01*
G01*
X48460000Y-128285000D01*
G75*
G02*
X48385000Y-128360000I-75000J0D01*
G01*
X46985000Y-128360000D01*
G75*
G02*
X46910000Y-128285000I0J75000D01*
G01*
G37*
G36*
G01*
X46910000Y-127785000D02*
X46910000Y-127635000D01*
G75*
G02*
X46985000Y-127560000I75000J0D01*
G01*
X48385000Y-127560000D01*
G75*
G02*
X48460000Y-127635000I0J-75000D01*
G01*
X48460000Y-127785000D01*
G75*
G02*
X48385000Y-127860000I-75000J0D01*
G01*
X46985000Y-127860000D01*
G75*
G02*
X46910000Y-127785000I0J75000D01*
G01*
G37*
G36*
G01*
X46910000Y-127285000D02*
X46910000Y-127135000D01*
G75*
G02*
X46985000Y-127060000I75000J0D01*
G01*
X48385000Y-127060000D01*
G75*
G02*
X48460000Y-127135000I0J-75000D01*
G01*
X48460000Y-127285000D01*
G75*
G02*
X48385000Y-127360000I-75000J0D01*
G01*
X46985000Y-127360000D01*
G75*
G02*
X46910000Y-127285000I0J75000D01*
G01*
G37*
G36*
G01*
X45610000Y-125985000D02*
X45610000Y-124585000D01*
G75*
G02*
X45685000Y-124510000I75000J0D01*
G01*
X45835000Y-124510000D01*
G75*
G02*
X45910000Y-124585000I0J-75000D01*
G01*
X45910000Y-125985000D01*
G75*
G02*
X45835000Y-126060000I-75000J0D01*
G01*
X45685000Y-126060000D01*
G75*
G02*
X45610000Y-125985000I0J75000D01*
G01*
G37*
G36*
G01*
X45110000Y-125985000D02*
X45110000Y-124585000D01*
G75*
G02*
X45185000Y-124510000I75000J0D01*
G01*
X45335000Y-124510000D01*
G75*
G02*
X45410000Y-124585000I0J-75000D01*
G01*
X45410000Y-125985000D01*
G75*
G02*
X45335000Y-126060000I-75000J0D01*
G01*
X45185000Y-126060000D01*
G75*
G02*
X45110000Y-125985000I0J75000D01*
G01*
G37*
G36*
G01*
X44610000Y-125985000D02*
X44610000Y-124585000D01*
G75*
G02*
X44685000Y-124510000I75000J0D01*
G01*
X44835000Y-124510000D01*
G75*
G02*
X44910000Y-124585000I0J-75000D01*
G01*
X44910000Y-125985000D01*
G75*
G02*
X44835000Y-126060000I-75000J0D01*
G01*
X44685000Y-126060000D01*
G75*
G02*
X44610000Y-125985000I0J75000D01*
G01*
G37*
G36*
G01*
X44110000Y-125985000D02*
X44110000Y-124585000D01*
G75*
G02*
X44185000Y-124510000I75000J0D01*
G01*
X44335000Y-124510000D01*
G75*
G02*
X44410000Y-124585000I0J-75000D01*
G01*
X44410000Y-125985000D01*
G75*
G02*
X44335000Y-126060000I-75000J0D01*
G01*
X44185000Y-126060000D01*
G75*
G02*
X44110000Y-125985000I0J75000D01*
G01*
G37*
G36*
G01*
X43610000Y-125985000D02*
X43610000Y-124585000D01*
G75*
G02*
X43685000Y-124510000I75000J0D01*
G01*
X43835000Y-124510000D01*
G75*
G02*
X43910000Y-124585000I0J-75000D01*
G01*
X43910000Y-125985000D01*
G75*
G02*
X43835000Y-126060000I-75000J0D01*
G01*
X43685000Y-126060000D01*
G75*
G02*
X43610000Y-125985000I0J75000D01*
G01*
G37*
G36*
G01*
X43110000Y-125985000D02*
X43110000Y-124585000D01*
G75*
G02*
X43185000Y-124510000I75000J0D01*
G01*
X43335000Y-124510000D01*
G75*
G02*
X43410000Y-124585000I0J-75000D01*
G01*
X43410000Y-125985000D01*
G75*
G02*
X43335000Y-126060000I-75000J0D01*
G01*
X43185000Y-126060000D01*
G75*
G02*
X43110000Y-125985000I0J75000D01*
G01*
G37*
G36*
G01*
X42610000Y-125985000D02*
X42610000Y-124585000D01*
G75*
G02*
X42685000Y-124510000I75000J0D01*
G01*
X42835000Y-124510000D01*
G75*
G02*
X42910000Y-124585000I0J-75000D01*
G01*
X42910000Y-125985000D01*
G75*
G02*
X42835000Y-126060000I-75000J0D01*
G01*
X42685000Y-126060000D01*
G75*
G02*
X42610000Y-125985000I0J75000D01*
G01*
G37*
G36*
G01*
X42110000Y-125985000D02*
X42110000Y-124585000D01*
G75*
G02*
X42185000Y-124510000I75000J0D01*
G01*
X42335000Y-124510000D01*
G75*
G02*
X42410000Y-124585000I0J-75000D01*
G01*
X42410000Y-125985000D01*
G75*
G02*
X42335000Y-126060000I-75000J0D01*
G01*
X42185000Y-126060000D01*
G75*
G02*
X42110000Y-125985000I0J75000D01*
G01*
G37*
G36*
G01*
X41610000Y-125985000D02*
X41610000Y-124585000D01*
G75*
G02*
X41685000Y-124510000I75000J0D01*
G01*
X41835000Y-124510000D01*
G75*
G02*
X41910000Y-124585000I0J-75000D01*
G01*
X41910000Y-125985000D01*
G75*
G02*
X41835000Y-126060000I-75000J0D01*
G01*
X41685000Y-126060000D01*
G75*
G02*
X41610000Y-125985000I0J75000D01*
G01*
G37*
G36*
G01*
X41110000Y-125985000D02*
X41110000Y-124585000D01*
G75*
G02*
X41185000Y-124510000I75000J0D01*
G01*
X41335000Y-124510000D01*
G75*
G02*
X41410000Y-124585000I0J-75000D01*
G01*
X41410000Y-125985000D01*
G75*
G02*
X41335000Y-126060000I-75000J0D01*
G01*
X41185000Y-126060000D01*
G75*
G02*
X41110000Y-125985000I0J75000D01*
G01*
G37*
G36*
G01*
X40610000Y-125985000D02*
X40610000Y-124585000D01*
G75*
G02*
X40685000Y-124510000I75000J0D01*
G01*
X40835000Y-124510000D01*
G75*
G02*
X40910000Y-124585000I0J-75000D01*
G01*
X40910000Y-125985000D01*
G75*
G02*
X40835000Y-126060000I-75000J0D01*
G01*
X40685000Y-126060000D01*
G75*
G02*
X40610000Y-125985000I0J75000D01*
G01*
G37*
G36*
G01*
X40110000Y-125985000D02*
X40110000Y-124585000D01*
G75*
G02*
X40185000Y-124510000I75000J0D01*
G01*
X40335000Y-124510000D01*
G75*
G02*
X40410000Y-124585000I0J-75000D01*
G01*
X40410000Y-125985000D01*
G75*
G02*
X40335000Y-126060000I-75000J0D01*
G01*
X40185000Y-126060000D01*
G75*
G02*
X40110000Y-125985000I0J75000D01*
G01*
G37*
G36*
G01*
X39610000Y-125985000D02*
X39610000Y-124585000D01*
G75*
G02*
X39685000Y-124510000I75000J0D01*
G01*
X39835000Y-124510000D01*
G75*
G02*
X39910000Y-124585000I0J-75000D01*
G01*
X39910000Y-125985000D01*
G75*
G02*
X39835000Y-126060000I-75000J0D01*
G01*
X39685000Y-126060000D01*
G75*
G02*
X39610000Y-125985000I0J75000D01*
G01*
G37*
G36*
G01*
X39110000Y-125985000D02*
X39110000Y-124585000D01*
G75*
G02*
X39185000Y-124510000I75000J0D01*
G01*
X39335000Y-124510000D01*
G75*
G02*
X39410000Y-124585000I0J-75000D01*
G01*
X39410000Y-125985000D01*
G75*
G02*
X39335000Y-126060000I-75000J0D01*
G01*
X39185000Y-126060000D01*
G75*
G02*
X39110000Y-125985000I0J75000D01*
G01*
G37*
G36*
G01*
X38610000Y-125985000D02*
X38610000Y-124585000D01*
G75*
G02*
X38685000Y-124510000I75000J0D01*
G01*
X38835000Y-124510000D01*
G75*
G02*
X38910000Y-124585000I0J-75000D01*
G01*
X38910000Y-125985000D01*
G75*
G02*
X38835000Y-126060000I-75000J0D01*
G01*
X38685000Y-126060000D01*
G75*
G02*
X38610000Y-125985000I0J75000D01*
G01*
G37*
G36*
G01*
X38110000Y-125985000D02*
X38110000Y-124585000D01*
G75*
G02*
X38185000Y-124510000I75000J0D01*
G01*
X38335000Y-124510000D01*
G75*
G02*
X38410000Y-124585000I0J-75000D01*
G01*
X38410000Y-125985000D01*
G75*
G02*
X38335000Y-126060000I-75000J0D01*
G01*
X38185000Y-126060000D01*
G75*
G02*
X38110000Y-125985000I0J75000D01*
G01*
G37*
%TD*%
%TO.C,J2*%
G36*
G01*
X61173750Y-118050000D02*
X61686250Y-118050000D01*
G75*
G02*
X61905000Y-118268750I0J-218750D01*
G01*
X61905000Y-118706250D01*
G75*
G02*
X61686250Y-118925000I-218750J0D01*
G01*
X61173750Y-118925000D01*
G75*
G02*
X60955000Y-118706250I0J218750D01*
G01*
X60955000Y-118268750D01*
G75*
G02*
X61173750Y-118050000I218750J0D01*
G01*
G37*
G36*
G01*
X61173750Y-116475000D02*
X61686250Y-116475000D01*
G75*
G02*
X61905000Y-116693750I0J-218750D01*
G01*
X61905000Y-117131250D01*
G75*
G02*
X61686250Y-117350000I-218750J0D01*
G01*
X61173750Y-117350000D01*
G75*
G02*
X60955000Y-117131250I0J218750D01*
G01*
X60955000Y-116693750D01*
G75*
G02*
X61173750Y-116475000I218750J0D01*
G01*
G37*
%TD*%
%TO.C,F1*%
G36*
G01*
X62823750Y-118050000D02*
X63336250Y-118050000D01*
G75*
G02*
X63555000Y-118268750I0J-218750D01*
G01*
X63555000Y-118706250D01*
G75*
G02*
X63336250Y-118925000I-218750J0D01*
G01*
X62823750Y-118925000D01*
G75*
G02*
X62605000Y-118706250I0J218750D01*
G01*
X62605000Y-118268750D01*
G75*
G02*
X62823750Y-118050000I218750J0D01*
G01*
G37*
G36*
G01*
X62823750Y-116475000D02*
X63336250Y-116475000D01*
G75*
G02*
X63555000Y-116693750I0J-218750D01*
G01*
X63555000Y-117131250D01*
G75*
G02*
X63336250Y-117350000I-218750J0D01*
G01*
X62823750Y-117350000D01*
G75*
G02*
X62605000Y-117131250I0J218750D01*
G01*
X62605000Y-116693750D01*
G75*
G02*
X62823750Y-116475000I218750J0D01*
G01*
G37*
%TD*%
%TO.C,C1*%
G36*
G01*
X35650000Y-125500000D02*
X35310000Y-125500000D01*
G75*
G02*
X35170000Y-125360000I0J140000D01*
G01*
X35170000Y-125080000D01*
G75*
G02*
X35310000Y-124940000I140000J0D01*
G01*
X35650000Y-124940000D01*
G75*
G02*
X35790000Y-125080000I0J-140000D01*
G01*
X35790000Y-125360000D01*
G75*
G02*
X35650000Y-125500000I-140000J0D01*
G01*
G37*
G36*
G01*
X35650000Y-126460000D02*
X35310000Y-126460000D01*
G75*
G02*
X35170000Y-126320000I0J140000D01*
G01*
X35170000Y-126040000D01*
G75*
G02*
X35310000Y-125900000I140000J0D01*
G01*
X35650000Y-125900000D01*
G75*
G02*
X35790000Y-126040000I0J-140000D01*
G01*
X35790000Y-126320000D01*
G75*
G02*
X35650000Y-126460000I-140000J0D01*
G01*
G37*
%TD*%
%TO.C,C2*%
G36*
G01*
X38455000Y-138300000D02*
X38455000Y-138800000D01*
G75*
G02*
X38230000Y-139025000I-225000J0D01*
G01*
X37780000Y-139025000D01*
G75*
G02*
X37555000Y-138800000I0J225000D01*
G01*
X37555000Y-138300000D01*
G75*
G02*
X37780000Y-138075000I225000J0D01*
G01*
X38230000Y-138075000D01*
G75*
G02*
X38455000Y-138300000I0J-225000D01*
G01*
G37*
G36*
G01*
X36905000Y-138300000D02*
X36905000Y-138800000D01*
G75*
G02*
X36680000Y-139025000I-225000J0D01*
G01*
X36230000Y-139025000D01*
G75*
G02*
X36005000Y-138800000I0J225000D01*
G01*
X36005000Y-138300000D01*
G75*
G02*
X36230000Y-138075000I225000J0D01*
G01*
X36680000Y-138075000D01*
G75*
G02*
X36905000Y-138300000I0J-225000D01*
G01*
G37*
%TD*%
%TO.C,C3*%
G36*
G01*
X39160000Y-137990000D02*
X39500000Y-137990000D01*
G75*
G02*
X39640000Y-138130000I0J-140000D01*
G01*
X39640000Y-138410000D01*
G75*
G02*
X39500000Y-138550000I-140000J0D01*
G01*
X39160000Y-138550000D01*
G75*
G02*
X39020000Y-138410000I0J140000D01*
G01*
X39020000Y-138130000D01*
G75*
G02*
X39160000Y-137990000I140000J0D01*
G01*
G37*
G36*
G01*
X39160000Y-138950000D02*
X39500000Y-138950000D01*
G75*
G02*
X39640000Y-139090000I0J-140000D01*
G01*
X39640000Y-139370000D01*
G75*
G02*
X39500000Y-139510000I-140000J0D01*
G01*
X39160000Y-139510000D01*
G75*
G02*
X39020000Y-139370000I0J140000D01*
G01*
X39020000Y-139090000D01*
G75*
G02*
X39160000Y-138950000I140000J0D01*
G01*
G37*
%TD*%
%TO.C,C4*%
G36*
G01*
X46670000Y-137520000D02*
X46670000Y-137180000D01*
G75*
G02*
X46810000Y-137040000I140000J0D01*
G01*
X47090000Y-137040000D01*
G75*
G02*
X47230000Y-137180000I0J-140000D01*
G01*
X47230000Y-137520000D01*
G75*
G02*
X47090000Y-137660000I-140000J0D01*
G01*
X46810000Y-137660000D01*
G75*
G02*
X46670000Y-137520000I0J140000D01*
G01*
G37*
G36*
G01*
X47630000Y-137520000D02*
X47630000Y-137180000D01*
G75*
G02*
X47770000Y-137040000I140000J0D01*
G01*
X48050000Y-137040000D01*
G75*
G02*
X48190000Y-137180000I0J-140000D01*
G01*
X48190000Y-137520000D01*
G75*
G02*
X48050000Y-137660000I-140000J0D01*
G01*
X47770000Y-137660000D01*
G75*
G02*
X47630000Y-137520000I0J140000D01*
G01*
G37*
%TD*%
%TO.C,C5*%
G36*
G01*
X48540000Y-126400000D02*
X48540000Y-126060000D01*
G75*
G02*
X48680000Y-125920000I140000J0D01*
G01*
X48960000Y-125920000D01*
G75*
G02*
X49100000Y-126060000I0J-140000D01*
G01*
X49100000Y-126400000D01*
G75*
G02*
X48960000Y-126540000I-140000J0D01*
G01*
X48680000Y-126540000D01*
G75*
G02*
X48540000Y-126400000I0J140000D01*
G01*
G37*
G36*
G01*
X47580000Y-126400000D02*
X47580000Y-126060000D01*
G75*
G02*
X47720000Y-125920000I140000J0D01*
G01*
X48000000Y-125920000D01*
G75*
G02*
X48140000Y-126060000I0J-140000D01*
G01*
X48140000Y-126400000D01*
G75*
G02*
X48000000Y-126540000I-140000J0D01*
G01*
X47720000Y-126540000D01*
G75*
G02*
X47580000Y-126400000I0J140000D01*
G01*
G37*
%TD*%
%TO.C,C6*%
G36*
G01*
X37660000Y-124250000D02*
X37660000Y-124590000D01*
G75*
G02*
X37520000Y-124730000I-140000J0D01*
G01*
X37240000Y-124730000D01*
G75*
G02*
X37100000Y-124590000I0J140000D01*
G01*
X37100000Y-124250000D01*
G75*
G02*
X37240000Y-124110000I140000J0D01*
G01*
X37520000Y-124110000D01*
G75*
G02*
X37660000Y-124250000I0J-140000D01*
G01*
G37*
G36*
G01*
X36700000Y-124250000D02*
X36700000Y-124590000D01*
G75*
G02*
X36560000Y-124730000I-140000J0D01*
G01*
X36280000Y-124730000D01*
G75*
G02*
X36140000Y-124590000I0J140000D01*
G01*
X36140000Y-124250000D01*
G75*
G02*
X36280000Y-124110000I140000J0D01*
G01*
X36560000Y-124110000D01*
G75*
G02*
X36700000Y-124250000I0J-140000D01*
G01*
G37*
%TD*%
%TO.C,C8*%
G36*
G01*
X33480000Y-133610000D02*
X33820000Y-133610000D01*
G75*
G02*
X33960000Y-133750000I0J-140000D01*
G01*
X33960000Y-134030000D01*
G75*
G02*
X33820000Y-134170000I-140000J0D01*
G01*
X33480000Y-134170000D01*
G75*
G02*
X33340000Y-134030000I0J140000D01*
G01*
X33340000Y-133750000D01*
G75*
G02*
X33480000Y-133610000I140000J0D01*
G01*
G37*
G36*
G01*
X33480000Y-132650000D02*
X33820000Y-132650000D01*
G75*
G02*
X33960000Y-132790000I0J-140000D01*
G01*
X33960000Y-133070000D01*
G75*
G02*
X33820000Y-133210000I-140000J0D01*
G01*
X33480000Y-133210000D01*
G75*
G02*
X33340000Y-133070000I0J140000D01*
G01*
X33340000Y-132790000D01*
G75*
G02*
X33480000Y-132650000I140000J0D01*
G01*
G37*
%TD*%
%TO.C,C9*%
G36*
G01*
X59810000Y-116890000D02*
X60150000Y-116890000D01*
G75*
G02*
X60290000Y-117030000I0J-140000D01*
G01*
X60290000Y-117310000D01*
G75*
G02*
X60150000Y-117450000I-140000J0D01*
G01*
X59810000Y-117450000D01*
G75*
G02*
X59670000Y-117310000I0J140000D01*
G01*
X59670000Y-117030000D01*
G75*
G02*
X59810000Y-116890000I140000J0D01*
G01*
G37*
G36*
G01*
X59810000Y-117850000D02*
X60150000Y-117850000D01*
G75*
G02*
X60290000Y-117990000I0J-140000D01*
G01*
X60290000Y-118270000D01*
G75*
G02*
X60150000Y-118410000I-140000J0D01*
G01*
X59810000Y-118410000D01*
G75*
G02*
X59670000Y-118270000I0J140000D01*
G01*
X59670000Y-117990000D01*
G75*
G02*
X59810000Y-117850000I140000J0D01*
G01*
G37*
%TD*%
%TO.C,C10*%
G36*
G01*
X32479999Y-112100000D02*
X33780001Y-112100000D01*
G75*
G02*
X34030000Y-112349999I0J-249999D01*
G01*
X34030000Y-113000001D01*
G75*
G02*
X33780001Y-113250000I-249999J0D01*
G01*
X32479999Y-113250000D01*
G75*
G02*
X32230000Y-113000001I0J249999D01*
G01*
X32230000Y-112349999D01*
G75*
G02*
X32479999Y-112100000I249999J0D01*
G01*
G37*
G36*
G01*
X32479999Y-115050000D02*
X33780001Y-115050000D01*
G75*
G02*
X34030000Y-115299999I0J-249999D01*
G01*
X34030000Y-115950001D01*
G75*
G02*
X33780001Y-116200000I-249999J0D01*
G01*
X32479999Y-116200000D01*
G75*
G02*
X32230000Y-115950001I0J249999D01*
G01*
X32230000Y-115299999D01*
G75*
G02*
X32479999Y-115050000I249999J0D01*
G01*
G37*
%TD*%
%TO.C,C11*%
G36*
G01*
X30690000Y-115530001D02*
X30690000Y-114229999D01*
G75*
G02*
X30939999Y-113980000I249999J0D01*
G01*
X31590001Y-113980000D01*
G75*
G02*
X31840000Y-114229999I0J-249999D01*
G01*
X31840000Y-115530001D01*
G75*
G02*
X31590001Y-115780000I-249999J0D01*
G01*
X30939999Y-115780000D01*
G75*
G02*
X30690000Y-115530001I0J249999D01*
G01*
G37*
G36*
G01*
X27740000Y-115530001D02*
X27740000Y-114229999D01*
G75*
G02*
X27989999Y-113980000I249999J0D01*
G01*
X28640001Y-113980000D01*
G75*
G02*
X28890000Y-114229999I0J-249999D01*
G01*
X28890000Y-115530001D01*
G75*
G02*
X28640001Y-115780000I-249999J0D01*
G01*
X27989999Y-115780000D01*
G75*
G02*
X27740000Y-115530001I0J249999D01*
G01*
G37*
%TD*%
%TO.C,C12*%
G36*
G01*
X44905000Y-139000000D02*
X44905000Y-138500000D01*
G75*
G02*
X45130000Y-138275000I225000J0D01*
G01*
X45580000Y-138275000D01*
G75*
G02*
X45805000Y-138500000I0J-225000D01*
G01*
X45805000Y-139000000D01*
G75*
G02*
X45580000Y-139225000I-225000J0D01*
G01*
X45130000Y-139225000D01*
G75*
G02*
X44905000Y-139000000I0J225000D01*
G01*
G37*
G36*
G01*
X46455000Y-139000000D02*
X46455000Y-138500000D01*
G75*
G02*
X46680000Y-138275000I225000J0D01*
G01*
X47130000Y-138275000D01*
G75*
G02*
X47355000Y-138500000I0J-225000D01*
G01*
X47355000Y-139000000D01*
G75*
G02*
X47130000Y-139225000I-225000J0D01*
G01*
X46680000Y-139225000D01*
G75*
G02*
X46455000Y-139000000I0J225000D01*
G01*
G37*
%TD*%
%TO.C,C13*%
G36*
G01*
X50705000Y-127900000D02*
X50705000Y-127400000D01*
G75*
G02*
X50930000Y-127175000I225000J0D01*
G01*
X51380000Y-127175000D01*
G75*
G02*
X51605000Y-127400000I0J-225000D01*
G01*
X51605000Y-127900000D01*
G75*
G02*
X51380000Y-128125000I-225000J0D01*
G01*
X50930000Y-128125000D01*
G75*
G02*
X50705000Y-127900000I0J225000D01*
G01*
G37*
G36*
G01*
X49155000Y-127900000D02*
X49155000Y-127400000D01*
G75*
G02*
X49380000Y-127175000I225000J0D01*
G01*
X49830000Y-127175000D01*
G75*
G02*
X50055000Y-127400000I0J-225000D01*
G01*
X50055000Y-127900000D01*
G75*
G02*
X49830000Y-128125000I-225000J0D01*
G01*
X49380000Y-128125000D01*
G75*
G02*
X49155000Y-127900000I0J225000D01*
G01*
G37*
%TD*%
%TO.C,C14*%
G36*
G01*
X51200000Y-116250000D02*
X50860000Y-116250000D01*
G75*
G02*
X50720000Y-116110000I0J140000D01*
G01*
X50720000Y-115830000D01*
G75*
G02*
X50860000Y-115690000I140000J0D01*
G01*
X51200000Y-115690000D01*
G75*
G02*
X51340000Y-115830000I0J-140000D01*
G01*
X51340000Y-116110000D01*
G75*
G02*
X51200000Y-116250000I-140000J0D01*
G01*
G37*
G36*
G01*
X51200000Y-117210000D02*
X50860000Y-117210000D01*
G75*
G02*
X50720000Y-117070000I0J140000D01*
G01*
X50720000Y-116790000D01*
G75*
G02*
X50860000Y-116650000I140000J0D01*
G01*
X51200000Y-116650000D01*
G75*
G02*
X51340000Y-116790000I0J-140000D01*
G01*
X51340000Y-117070000D01*
G75*
G02*
X51200000Y-117210000I-140000J0D01*
G01*
G37*
%TD*%
%TO.C,C15*%
G36*
G01*
X57700000Y-118810000D02*
X57360000Y-118810000D01*
G75*
G02*
X57220000Y-118670000I0J140000D01*
G01*
X57220000Y-118390000D01*
G75*
G02*
X57360000Y-118250000I140000J0D01*
G01*
X57700000Y-118250000D01*
G75*
G02*
X57840000Y-118390000I0J-140000D01*
G01*
X57840000Y-118670000D01*
G75*
G02*
X57700000Y-118810000I-140000J0D01*
G01*
G37*
G36*
G01*
X57700000Y-117850000D02*
X57360000Y-117850000D01*
G75*
G02*
X57220000Y-117710000I0J140000D01*
G01*
X57220000Y-117430000D01*
G75*
G02*
X57360000Y-117290000I140000J0D01*
G01*
X57700000Y-117290000D01*
G75*
G02*
X57840000Y-117430000I0J-140000D01*
G01*
X57840000Y-117710000D01*
G75*
G02*
X57700000Y-117850000I-140000J0D01*
G01*
G37*
%TD*%
%TO.C,C16*%
G36*
G01*
X50400000Y-120250000D02*
X50060000Y-120250000D01*
G75*
G02*
X49920000Y-120110000I0J140000D01*
G01*
X49920000Y-119830000D01*
G75*
G02*
X50060000Y-119690000I140000J0D01*
G01*
X50400000Y-119690000D01*
G75*
G02*
X50540000Y-119830000I0J-140000D01*
G01*
X50540000Y-120110000D01*
G75*
G02*
X50400000Y-120250000I-140000J0D01*
G01*
G37*
G36*
G01*
X50400000Y-121210000D02*
X50060000Y-121210000D01*
G75*
G02*
X49920000Y-121070000I0J140000D01*
G01*
X49920000Y-120790000D01*
G75*
G02*
X50060000Y-120650000I140000J0D01*
G01*
X50400000Y-120650000D01*
G75*
G02*
X50540000Y-120790000I0J-140000D01*
G01*
X50540000Y-121070000D01*
G75*
G02*
X50400000Y-121210000I-140000J0D01*
G01*
G37*
%TD*%
%TO.C,C17*%
G36*
G01*
X38260000Y-144690000D02*
X38600000Y-144690000D01*
G75*
G02*
X38740000Y-144830000I0J-140000D01*
G01*
X38740000Y-145110000D01*
G75*
G02*
X38600000Y-145250000I-140000J0D01*
G01*
X38260000Y-145250000D01*
G75*
G02*
X38120000Y-145110000I0J140000D01*
G01*
X38120000Y-144830000D01*
G75*
G02*
X38260000Y-144690000I140000J0D01*
G01*
G37*
G36*
G01*
X38260000Y-145650000D02*
X38600000Y-145650000D01*
G75*
G02*
X38740000Y-145790000I0J-140000D01*
G01*
X38740000Y-146070000D01*
G75*
G02*
X38600000Y-146210000I-140000J0D01*
G01*
X38260000Y-146210000D01*
G75*
G02*
X38120000Y-146070000I0J140000D01*
G01*
X38120000Y-145790000D01*
G75*
G02*
X38260000Y-145650000I140000J0D01*
G01*
G37*
%TD*%
%TO.C,C18*%
G36*
G01*
X34190000Y-137680000D02*
X34190000Y-138020000D01*
G75*
G02*
X34050000Y-138160000I-140000J0D01*
G01*
X33770000Y-138160000D01*
G75*
G02*
X33630000Y-138020000I0J140000D01*
G01*
X33630000Y-137680000D01*
G75*
G02*
X33770000Y-137540000I140000J0D01*
G01*
X34050000Y-137540000D01*
G75*
G02*
X34190000Y-137680000I0J-140000D01*
G01*
G37*
G36*
G01*
X33230000Y-137680000D02*
X33230000Y-138020000D01*
G75*
G02*
X33090000Y-138160000I-140000J0D01*
G01*
X32810000Y-138160000D01*
G75*
G02*
X32670000Y-138020000I0J140000D01*
G01*
X32670000Y-137680000D01*
G75*
G02*
X32810000Y-137540000I140000J0D01*
G01*
X33090000Y-137540000D01*
G75*
G02*
X33230000Y-137680000I0J-140000D01*
G01*
G37*
%TD*%
%TO.C,C19*%
G36*
G01*
X33380000Y-126650000D02*
X33380000Y-126310000D01*
G75*
G02*
X33520000Y-126170000I140000J0D01*
G01*
X33800000Y-126170000D01*
G75*
G02*
X33940000Y-126310000I0J-140000D01*
G01*
X33940000Y-126650000D01*
G75*
G02*
X33800000Y-126790000I-140000J0D01*
G01*
X33520000Y-126790000D01*
G75*
G02*
X33380000Y-126650000I0J140000D01*
G01*
G37*
G36*
G01*
X32420000Y-126650000D02*
X32420000Y-126310000D01*
G75*
G02*
X32560000Y-126170000I140000J0D01*
G01*
X32840000Y-126170000D01*
G75*
G02*
X32980000Y-126310000I0J-140000D01*
G01*
X32980000Y-126650000D01*
G75*
G02*
X32840000Y-126790000I-140000J0D01*
G01*
X32560000Y-126790000D01*
G75*
G02*
X32420000Y-126650000I0J140000D01*
G01*
G37*
%TD*%
%TO.C,C20*%
G36*
G01*
X32980000Y-131710000D02*
X32980000Y-132050000D01*
G75*
G02*
X32840000Y-132190000I-140000J0D01*
G01*
X32560000Y-132190000D01*
G75*
G02*
X32420000Y-132050000I0J140000D01*
G01*
X32420000Y-131710000D01*
G75*
G02*
X32560000Y-131570000I140000J0D01*
G01*
X32840000Y-131570000D01*
G75*
G02*
X32980000Y-131710000I0J-140000D01*
G01*
G37*
G36*
G01*
X33940000Y-131710000D02*
X33940000Y-132050000D01*
G75*
G02*
X33800000Y-132190000I-140000J0D01*
G01*
X33520000Y-132190000D01*
G75*
G02*
X33380000Y-132050000I0J140000D01*
G01*
X33380000Y-131710000D01*
G75*
G02*
X33520000Y-131570000I140000J0D01*
G01*
X33800000Y-131570000D01*
G75*
G02*
X33940000Y-131710000I0J-140000D01*
G01*
G37*
%TD*%
%TO.C,C21*%
G36*
G01*
X46490000Y-117180000D02*
X46490000Y-117520000D01*
G75*
G02*
X46350000Y-117660000I-140000J0D01*
G01*
X46070000Y-117660000D01*
G75*
G02*
X45930000Y-117520000I0J140000D01*
G01*
X45930000Y-117180000D01*
G75*
G02*
X46070000Y-117040000I140000J0D01*
G01*
X46350000Y-117040000D01*
G75*
G02*
X46490000Y-117180000I0J-140000D01*
G01*
G37*
G36*
G01*
X45530000Y-117180000D02*
X45530000Y-117520000D01*
G75*
G02*
X45390000Y-117660000I-140000J0D01*
G01*
X45110000Y-117660000D01*
G75*
G02*
X44970000Y-117520000I0J140000D01*
G01*
X44970000Y-117180000D01*
G75*
G02*
X45110000Y-117040000I140000J0D01*
G01*
X45390000Y-117040000D01*
G75*
G02*
X45530000Y-117180000I0J-140000D01*
G01*
G37*
%TD*%
%TO.C,C22*%
G36*
G01*
X48225000Y-115765000D02*
X48225000Y-115425000D01*
G75*
G02*
X48365000Y-115285000I140000J0D01*
G01*
X48645000Y-115285000D01*
G75*
G02*
X48785000Y-115425000I0J-140000D01*
G01*
X48785000Y-115765000D01*
G75*
G02*
X48645000Y-115905000I-140000J0D01*
G01*
X48365000Y-115905000D01*
G75*
G02*
X48225000Y-115765000I0J140000D01*
G01*
G37*
G36*
G01*
X47265000Y-115765000D02*
X47265000Y-115425000D01*
G75*
G02*
X47405000Y-115285000I140000J0D01*
G01*
X47685000Y-115285000D01*
G75*
G02*
X47825000Y-115425000I0J-140000D01*
G01*
X47825000Y-115765000D01*
G75*
G02*
X47685000Y-115905000I-140000J0D01*
G01*
X47405000Y-115905000D01*
G75*
G02*
X47265000Y-115765000I0J140000D01*
G01*
G37*
%TD*%
%TO.C,C23*%
G36*
G01*
X40930000Y-120320000D02*
X40930000Y-119980000D01*
G75*
G02*
X41070000Y-119840000I140000J0D01*
G01*
X41350000Y-119840000D01*
G75*
G02*
X41490000Y-119980000I0J-140000D01*
G01*
X41490000Y-120320000D01*
G75*
G02*
X41350000Y-120460000I-140000J0D01*
G01*
X41070000Y-120460000D01*
G75*
G02*
X40930000Y-120320000I0J140000D01*
G01*
G37*
G36*
G01*
X41890000Y-120320000D02*
X41890000Y-119980000D01*
G75*
G02*
X42030000Y-119840000I140000J0D01*
G01*
X42310000Y-119840000D01*
G75*
G02*
X42450000Y-119980000I0J-140000D01*
G01*
X42450000Y-120320000D01*
G75*
G02*
X42310000Y-120460000I-140000J0D01*
G01*
X42030000Y-120460000D01*
G75*
G02*
X41890000Y-120320000I0J140000D01*
G01*
G37*
%TD*%
%TO.C,C25*%
G36*
G01*
X30980000Y-120130000D02*
X30980000Y-120470000D01*
G75*
G02*
X30840000Y-120610000I-140000J0D01*
G01*
X30560000Y-120610000D01*
G75*
G02*
X30420000Y-120470000I0J140000D01*
G01*
X30420000Y-120130000D01*
G75*
G02*
X30560000Y-119990000I140000J0D01*
G01*
X30840000Y-119990000D01*
G75*
G02*
X30980000Y-120130000I0J-140000D01*
G01*
G37*
G36*
G01*
X31940000Y-120130000D02*
X31940000Y-120470000D01*
G75*
G02*
X31800000Y-120610000I-140000J0D01*
G01*
X31520000Y-120610000D01*
G75*
G02*
X31380000Y-120470000I0J140000D01*
G01*
X31380000Y-120130000D01*
G75*
G02*
X31520000Y-119990000I140000J0D01*
G01*
X31800000Y-119990000D01*
G75*
G02*
X31940000Y-120130000I0J-140000D01*
G01*
G37*
%TD*%
%TO.C,C26*%
G36*
G01*
X29860000Y-136410000D02*
X29860000Y-136070000D01*
G75*
G02*
X30000000Y-135930000I140000J0D01*
G01*
X30280000Y-135930000D01*
G75*
G02*
X30420000Y-136070000I0J-140000D01*
G01*
X30420000Y-136410000D01*
G75*
G02*
X30280000Y-136550000I-140000J0D01*
G01*
X30000000Y-136550000D01*
G75*
G02*
X29860000Y-136410000I0J140000D01*
G01*
G37*
G36*
G01*
X28900000Y-136410000D02*
X28900000Y-136070000D01*
G75*
G02*
X29040000Y-135930000I140000J0D01*
G01*
X29320000Y-135930000D01*
G75*
G02*
X29460000Y-136070000I0J-140000D01*
G01*
X29460000Y-136410000D01*
G75*
G02*
X29320000Y-136550000I-140000J0D01*
G01*
X29040000Y-136550000D01*
G75*
G02*
X28900000Y-136410000I0J140000D01*
G01*
G37*
%TD*%
%TO.C,C27*%
G36*
G01*
X32155000Y-117100000D02*
X32155000Y-117600000D01*
G75*
G02*
X31930000Y-117825000I-225000J0D01*
G01*
X31480000Y-117825000D01*
G75*
G02*
X31255000Y-117600000I0J225000D01*
G01*
X31255000Y-117100000D01*
G75*
G02*
X31480000Y-116875000I225000J0D01*
G01*
X31930000Y-116875000D01*
G75*
G02*
X32155000Y-117100000I0J-225000D01*
G01*
G37*
G36*
G01*
X33705000Y-117100000D02*
X33705000Y-117600000D01*
G75*
G02*
X33480000Y-117825000I-225000J0D01*
G01*
X33030000Y-117825000D01*
G75*
G02*
X32805000Y-117600000I0J225000D01*
G01*
X32805000Y-117100000D01*
G75*
G02*
X33030000Y-116875000I225000J0D01*
G01*
X33480000Y-116875000D01*
G75*
G02*
X33705000Y-117100000I0J-225000D01*
G01*
G37*
%TD*%
%TO.C,C28*%
G36*
G01*
X34170000Y-117820000D02*
X34170000Y-117480000D01*
G75*
G02*
X34310000Y-117340000I140000J0D01*
G01*
X34590000Y-117340000D01*
G75*
G02*
X34730000Y-117480000I0J-140000D01*
G01*
X34730000Y-117820000D01*
G75*
G02*
X34590000Y-117960000I-140000J0D01*
G01*
X34310000Y-117960000D01*
G75*
G02*
X34170000Y-117820000I0J140000D01*
G01*
G37*
G36*
G01*
X35130000Y-117820000D02*
X35130000Y-117480000D01*
G75*
G02*
X35270000Y-117340000I140000J0D01*
G01*
X35550000Y-117340000D01*
G75*
G02*
X35690000Y-117480000I0J-140000D01*
G01*
X35690000Y-117820000D01*
G75*
G02*
X35550000Y-117960000I-140000J0D01*
G01*
X35270000Y-117960000D01*
G75*
G02*
X35130000Y-117820000I0J140000D01*
G01*
G37*
%TD*%
%TO.C,C29*%
G36*
G01*
X32810000Y-119250000D02*
X33150000Y-119250000D01*
G75*
G02*
X33290000Y-119390000I0J-140000D01*
G01*
X33290000Y-119670000D01*
G75*
G02*
X33150000Y-119810000I-140000J0D01*
G01*
X32810000Y-119810000D01*
G75*
G02*
X32670000Y-119670000I0J140000D01*
G01*
X32670000Y-119390000D01*
G75*
G02*
X32810000Y-119250000I140000J0D01*
G01*
G37*
G36*
G01*
X32810000Y-118290000D02*
X33150000Y-118290000D01*
G75*
G02*
X33290000Y-118430000I0J-140000D01*
G01*
X33290000Y-118710000D01*
G75*
G02*
X33150000Y-118850000I-140000J0D01*
G01*
X32810000Y-118850000D01*
G75*
G02*
X32670000Y-118710000I0J140000D01*
G01*
X32670000Y-118430000D01*
G75*
G02*
X32810000Y-118290000I140000J0D01*
G01*
G37*
%TD*%
%TO.C,C30*%
G36*
G01*
X36700000Y-120160000D02*
X36360000Y-120160000D01*
G75*
G02*
X36220000Y-120020000I0J140000D01*
G01*
X36220000Y-119740000D01*
G75*
G02*
X36360000Y-119600000I140000J0D01*
G01*
X36700000Y-119600000D01*
G75*
G02*
X36840000Y-119740000I0J-140000D01*
G01*
X36840000Y-120020000D01*
G75*
G02*
X36700000Y-120160000I-140000J0D01*
G01*
G37*
G36*
G01*
X36700000Y-119200000D02*
X36360000Y-119200000D01*
G75*
G02*
X36220000Y-119060000I0J140000D01*
G01*
X36220000Y-118780000D01*
G75*
G02*
X36360000Y-118640000I140000J0D01*
G01*
X36700000Y-118640000D01*
G75*
G02*
X36840000Y-118780000I0J-140000D01*
G01*
X36840000Y-119060000D01*
G75*
G02*
X36700000Y-119200000I-140000J0D01*
G01*
G37*
%TD*%
%TO.C,D1*%
G36*
G01*
X35202500Y-115230000D02*
X34857500Y-115230000D01*
G75*
G02*
X34710000Y-115082500I0J147500D01*
G01*
X34710000Y-114787500D01*
G75*
G02*
X34857500Y-114640000I147500J0D01*
G01*
X35202500Y-114640000D01*
G75*
G02*
X35350000Y-114787500I0J-147500D01*
G01*
X35350000Y-115082500D01*
G75*
G02*
X35202500Y-115230000I-147500J0D01*
G01*
G37*
G36*
G01*
X35202500Y-114260000D02*
X34857500Y-114260000D01*
G75*
G02*
X34710000Y-114112500I0J147500D01*
G01*
X34710000Y-113817500D01*
G75*
G02*
X34857500Y-113670000I147500J0D01*
G01*
X35202500Y-113670000D01*
G75*
G02*
X35350000Y-113817500I0J-147500D01*
G01*
X35350000Y-114112500D01*
G75*
G02*
X35202500Y-114260000I-147500J0D01*
G01*
G37*
%TD*%
%TO.C,D6*%
G36*
G01*
X27086250Y-106100000D02*
X26173750Y-106100000D01*
G75*
G02*
X25930000Y-105856250I0J243750D01*
G01*
X25930000Y-105368750D01*
G75*
G02*
X26173750Y-105125000I243750J0D01*
G01*
X27086250Y-105125000D01*
G75*
G02*
X27330000Y-105368750I0J-243750D01*
G01*
X27330000Y-105856250D01*
G75*
G02*
X27086250Y-106100000I-243750J0D01*
G01*
G37*
G36*
G01*
X27086250Y-107975000D02*
X26173750Y-107975000D01*
G75*
G02*
X25930000Y-107731250I0J243750D01*
G01*
X25930000Y-107243750D01*
G75*
G02*
X26173750Y-107000000I243750J0D01*
G01*
X27086250Y-107000000D01*
G75*
G02*
X27330000Y-107243750I0J-243750D01*
G01*
X27330000Y-107731250D01*
G75*
G02*
X27086250Y-107975000I-243750J0D01*
G01*
G37*
%TD*%
%TO.C,FB1*%
G36*
G01*
X31397500Y-132630000D02*
X31742500Y-132630000D01*
G75*
G02*
X31890000Y-132777500I0J-147500D01*
G01*
X31890000Y-133072500D01*
G75*
G02*
X31742500Y-133220000I-147500J0D01*
G01*
X31397500Y-133220000D01*
G75*
G02*
X31250000Y-133072500I0J147500D01*
G01*
X31250000Y-132777500D01*
G75*
G02*
X31397500Y-132630000I147500J0D01*
G01*
G37*
G36*
G01*
X31397500Y-133600000D02*
X31742500Y-133600000D01*
G75*
G02*
X31890000Y-133747500I0J-147500D01*
G01*
X31890000Y-134042500D01*
G75*
G02*
X31742500Y-134190000I-147500J0D01*
G01*
X31397500Y-134190000D01*
G75*
G02*
X31250000Y-134042500I0J147500D01*
G01*
X31250000Y-133747500D01*
G75*
G02*
X31397500Y-133600000I147500J0D01*
G01*
G37*
%TD*%
%TO.C,IC1*%
G36*
G01*
X31640000Y-112680000D02*
X31640000Y-112880000D01*
G75*
G02*
X31540000Y-112980000I-100000J0D01*
G01*
X30940000Y-112980000D01*
G75*
G02*
X30840000Y-112880000I0J100000D01*
G01*
X30840000Y-112680000D01*
G75*
G02*
X30940000Y-112580000I100000J0D01*
G01*
X31540000Y-112580000D01*
G75*
G02*
X31640000Y-112680000I0J-100000D01*
G01*
G37*
G36*
G01*
X31640000Y-111680000D02*
X31640000Y-111880000D01*
G75*
G02*
X31540000Y-111980000I-100000J0D01*
G01*
X30940000Y-111980000D01*
G75*
G02*
X30840000Y-111880000I0J100000D01*
G01*
X30840000Y-111680000D01*
G75*
G02*
X30940000Y-111580000I100000J0D01*
G01*
X31540000Y-111580000D01*
G75*
G02*
X31640000Y-111680000I0J-100000D01*
G01*
G37*
G36*
G01*
X31640000Y-110680000D02*
X31640000Y-110880000D01*
G75*
G02*
X31540000Y-110980000I-100000J0D01*
G01*
X30940000Y-110980000D01*
G75*
G02*
X30840000Y-110880000I0J100000D01*
G01*
X30840000Y-110680000D01*
G75*
G02*
X30940000Y-110580000I100000J0D01*
G01*
X31540000Y-110580000D01*
G75*
G02*
X31640000Y-110680000I0J-100000D01*
G01*
G37*
G36*
G01*
X28740000Y-110680000D02*
X28740000Y-110880000D01*
G75*
G02*
X28640000Y-110980000I-100000J0D01*
G01*
X28040000Y-110980000D01*
G75*
G02*
X27940000Y-110880000I0J100000D01*
G01*
X27940000Y-110680000D01*
G75*
G02*
X28040000Y-110580000I100000J0D01*
G01*
X28640000Y-110580000D01*
G75*
G02*
X28740000Y-110680000I0J-100000D01*
G01*
G37*
G36*
G01*
X28740000Y-111680000D02*
X28740000Y-111880000D01*
G75*
G02*
X28640000Y-111980000I-100000J0D01*
G01*
X28040000Y-111980000D01*
G75*
G02*
X27940000Y-111880000I0J100000D01*
G01*
X27940000Y-111680000D01*
G75*
G02*
X28040000Y-111580000I100000J0D01*
G01*
X28640000Y-111580000D01*
G75*
G02*
X28740000Y-111680000I0J-100000D01*
G01*
G37*
G36*
G01*
X28740000Y-112680000D02*
X28740000Y-112880000D01*
G75*
G02*
X28640000Y-112980000I-100000J0D01*
G01*
X28040000Y-112980000D01*
G75*
G02*
X27940000Y-112880000I0J100000D01*
G01*
X27940000Y-112680000D01*
G75*
G02*
X28040000Y-112580000I100000J0D01*
G01*
X28640000Y-112580000D01*
G75*
G02*
X28740000Y-112680000I0J-100000D01*
G01*
G37*
G36*
G01*
X30465000Y-112045000D02*
X30465000Y-112715000D01*
G75*
G02*
X30315000Y-112865000I-150000J0D01*
G01*
X30015000Y-112865000D01*
G75*
G02*
X29865000Y-112715000I0J150000D01*
G01*
X29865000Y-112045000D01*
G75*
G02*
X30015000Y-111895000I150000J0D01*
G01*
X30315000Y-111895000D01*
G75*
G02*
X30465000Y-112045000I0J-150000D01*
G01*
G37*
G36*
G01*
X30465000Y-110845000D02*
X30465000Y-111515000D01*
G75*
G02*
X30315000Y-111665000I-150000J0D01*
G01*
X30015000Y-111665000D01*
G75*
G02*
X29865000Y-111515000I0J150000D01*
G01*
X29865000Y-110845000D01*
G75*
G02*
X30015000Y-110695000I150000J0D01*
G01*
X30315000Y-110695000D01*
G75*
G02*
X30465000Y-110845000I0J-150000D01*
G01*
G37*
G36*
G01*
X29715000Y-112045000D02*
X29715000Y-112715000D01*
G75*
G02*
X29565000Y-112865000I-150000J0D01*
G01*
X29265000Y-112865000D01*
G75*
G02*
X29115000Y-112715000I0J150000D01*
G01*
X29115000Y-112045000D01*
G75*
G02*
X29265000Y-111895000I150000J0D01*
G01*
X29565000Y-111895000D01*
G75*
G02*
X29715000Y-112045000I0J-150000D01*
G01*
G37*
G36*
G01*
X29715000Y-110845000D02*
X29715000Y-111515000D01*
G75*
G02*
X29565000Y-111665000I-150000J0D01*
G01*
X29265000Y-111665000D01*
G75*
G02*
X29115000Y-111515000I0J150000D01*
G01*
X29115000Y-110845000D01*
G75*
G02*
X29265000Y-110695000I150000J0D01*
G01*
X29565000Y-110695000D01*
G75*
G02*
X29715000Y-110845000I0J-150000D01*
G01*
G37*
%TD*%
D18*
%TO.C,IC2*%
X46625000Y-120485000D03*
X46625000Y-121435000D03*
X46625000Y-122385000D03*
X48825000Y-122385000D03*
X48825000Y-120485000D03*
%TD*%
D19*
%TO.C,IC5*%
X34520000Y-120172500D03*
X35020000Y-120172500D03*
X34520000Y-118647500D03*
X35020000Y-118647500D03*
X35520000Y-120172500D03*
X35520000Y-118647500D03*
X34020000Y-120172500D03*
X34020000Y-118647500D03*
D20*
X35532500Y-119660000D03*
X35532500Y-119160000D03*
X34007500Y-119160000D03*
X34007500Y-119660000D03*
%TD*%
%TO.C,R1*%
G36*
G01*
X36805000Y-114525000D02*
X36255000Y-114525000D01*
G75*
G02*
X36055000Y-114325000I0J200000D01*
G01*
X36055000Y-113925000D01*
G75*
G02*
X36255000Y-113725000I200000J0D01*
G01*
X36805000Y-113725000D01*
G75*
G02*
X37005000Y-113925000I0J-200000D01*
G01*
X37005000Y-114325000D01*
G75*
G02*
X36805000Y-114525000I-200000J0D01*
G01*
G37*
G36*
G01*
X36805000Y-116175000D02*
X36255000Y-116175000D01*
G75*
G02*
X36055000Y-115975000I0J200000D01*
G01*
X36055000Y-115575000D01*
G75*
G02*
X36255000Y-115375000I200000J0D01*
G01*
X36805000Y-115375000D01*
G75*
G02*
X37005000Y-115575000I0J-200000D01*
G01*
X37005000Y-115975000D01*
G75*
G02*
X36805000Y-116175000I-200000J0D01*
G01*
G37*
%TD*%
%TO.C,R2*%
G36*
G01*
X60440000Y-146245000D02*
X60440000Y-145875000D01*
G75*
G02*
X60575000Y-145740000I135000J0D01*
G01*
X60845000Y-145740000D01*
G75*
G02*
X60980000Y-145875000I0J-135000D01*
G01*
X60980000Y-146245000D01*
G75*
G02*
X60845000Y-146380000I-135000J0D01*
G01*
X60575000Y-146380000D01*
G75*
G02*
X60440000Y-146245000I0J135000D01*
G01*
G37*
G36*
G01*
X61460000Y-146245000D02*
X61460000Y-145875000D01*
G75*
G02*
X61595000Y-145740000I135000J0D01*
G01*
X61865000Y-145740000D01*
G75*
G02*
X62000000Y-145875000I0J-135000D01*
G01*
X62000000Y-146245000D01*
G75*
G02*
X61865000Y-146380000I-135000J0D01*
G01*
X61595000Y-146380000D01*
G75*
G02*
X61460000Y-146245000I0J135000D01*
G01*
G37*
%TD*%
%TO.C,R5*%
G36*
G01*
X55655000Y-137365000D02*
X55655000Y-137915000D01*
G75*
G02*
X55455000Y-138115000I-200000J0D01*
G01*
X55055000Y-138115000D01*
G75*
G02*
X54855000Y-137915000I0J200000D01*
G01*
X54855000Y-137365000D01*
G75*
G02*
X55055000Y-137165000I200000J0D01*
G01*
X55455000Y-137165000D01*
G75*
G02*
X55655000Y-137365000I0J-200000D01*
G01*
G37*
G36*
G01*
X54005000Y-137365000D02*
X54005000Y-137915000D01*
G75*
G02*
X53805000Y-138115000I-200000J0D01*
G01*
X53405000Y-138115000D01*
G75*
G02*
X53205000Y-137915000I0J200000D01*
G01*
X53205000Y-137365000D01*
G75*
G02*
X53405000Y-137165000I200000J0D01*
G01*
X53805000Y-137165000D01*
G75*
G02*
X54005000Y-137365000I0J-200000D01*
G01*
G37*
%TD*%
%TO.C,R6*%
G36*
G01*
X55655000Y-135665000D02*
X55655000Y-136215000D01*
G75*
G02*
X55455000Y-136415000I-200000J0D01*
G01*
X55055000Y-136415000D01*
G75*
G02*
X54855000Y-136215000I0J200000D01*
G01*
X54855000Y-135665000D01*
G75*
G02*
X55055000Y-135465000I200000J0D01*
G01*
X55455000Y-135465000D01*
G75*
G02*
X55655000Y-135665000I0J-200000D01*
G01*
G37*
G36*
G01*
X54005000Y-135665000D02*
X54005000Y-136215000D01*
G75*
G02*
X53805000Y-136415000I-200000J0D01*
G01*
X53405000Y-136415000D01*
G75*
G02*
X53205000Y-136215000I0J200000D01*
G01*
X53205000Y-135665000D01*
G75*
G02*
X53405000Y-135465000I200000J0D01*
G01*
X53805000Y-135465000D01*
G75*
G02*
X54005000Y-135665000I0J-200000D01*
G01*
G37*
%TD*%
%TO.C,JP1*%
G36*
G01*
X54005000Y-133965000D02*
X54005000Y-134515000D01*
G75*
G02*
X53805000Y-134715000I-200000J0D01*
G01*
X53405000Y-134715000D01*
G75*
G02*
X53205000Y-134515000I0J200000D01*
G01*
X53205000Y-133965000D01*
G75*
G02*
X53405000Y-133765000I200000J0D01*
G01*
X53805000Y-133765000D01*
G75*
G02*
X54005000Y-133965000I0J-200000D01*
G01*
G37*
G36*
G01*
X55655000Y-133965000D02*
X55655000Y-134515000D01*
G75*
G02*
X55455000Y-134715000I-200000J0D01*
G01*
X55055000Y-134715000D01*
G75*
G02*
X54855000Y-134515000I0J200000D01*
G01*
X54855000Y-133965000D01*
G75*
G02*
X55055000Y-133765000I200000J0D01*
G01*
X55455000Y-133765000D01*
G75*
G02*
X55655000Y-133965000I0J-200000D01*
G01*
G37*
%TD*%
%TO.C,R8*%
G36*
G01*
X55645000Y-132155000D02*
X55645000Y-132705000D01*
G75*
G02*
X55445000Y-132905000I-200000J0D01*
G01*
X55045000Y-132905000D01*
G75*
G02*
X54845000Y-132705000I0J200000D01*
G01*
X54845000Y-132155000D01*
G75*
G02*
X55045000Y-131955000I200000J0D01*
G01*
X55445000Y-131955000D01*
G75*
G02*
X55645000Y-132155000I0J-200000D01*
G01*
G37*
G36*
G01*
X53995000Y-132155000D02*
X53995000Y-132705000D01*
G75*
G02*
X53795000Y-132905000I-200000J0D01*
G01*
X53395000Y-132905000D01*
G75*
G02*
X53195000Y-132705000I0J200000D01*
G01*
X53195000Y-132155000D01*
G75*
G02*
X53395000Y-131955000I200000J0D01*
G01*
X53795000Y-131955000D01*
G75*
G02*
X53995000Y-132155000I0J-200000D01*
G01*
G37*
%TD*%
%TO.C,R9*%
G36*
G01*
X53470000Y-146335000D02*
X53470000Y-145965000D01*
G75*
G02*
X53605000Y-145830000I135000J0D01*
G01*
X53875000Y-145830000D01*
G75*
G02*
X54010000Y-145965000I0J-135000D01*
G01*
X54010000Y-146335000D01*
G75*
G02*
X53875000Y-146470000I-135000J0D01*
G01*
X53605000Y-146470000D01*
G75*
G02*
X53470000Y-146335000I0J135000D01*
G01*
G37*
G36*
G01*
X52450000Y-146335000D02*
X52450000Y-145965000D01*
G75*
G02*
X52585000Y-145830000I135000J0D01*
G01*
X52855000Y-145830000D01*
G75*
G02*
X52990000Y-145965000I0J-135000D01*
G01*
X52990000Y-146335000D01*
G75*
G02*
X52855000Y-146470000I-135000J0D01*
G01*
X52585000Y-146470000D01*
G75*
G02*
X52450000Y-146335000I0J135000D01*
G01*
G37*
%TD*%
%TO.C,R11*%
G36*
G01*
X49115000Y-142730000D02*
X48745000Y-142730000D01*
G75*
G02*
X48610000Y-142595000I0J135000D01*
G01*
X48610000Y-142325000D01*
G75*
G02*
X48745000Y-142190000I135000J0D01*
G01*
X49115000Y-142190000D01*
G75*
G02*
X49250000Y-142325000I0J-135000D01*
G01*
X49250000Y-142595000D01*
G75*
G02*
X49115000Y-142730000I-135000J0D01*
G01*
G37*
G36*
G01*
X49115000Y-141710000D02*
X48745000Y-141710000D01*
G75*
G02*
X48610000Y-141575000I0J135000D01*
G01*
X48610000Y-141305000D01*
G75*
G02*
X48745000Y-141170000I135000J0D01*
G01*
X49115000Y-141170000D01*
G75*
G02*
X49250000Y-141305000I0J-135000D01*
G01*
X49250000Y-141575000D01*
G75*
G02*
X49115000Y-141710000I-135000J0D01*
G01*
G37*
%TD*%
%TO.C,R12*%
G36*
G01*
X38245000Y-143590000D02*
X38615000Y-143590000D01*
G75*
G02*
X38750000Y-143725000I0J-135000D01*
G01*
X38750000Y-143995000D01*
G75*
G02*
X38615000Y-144130000I-135000J0D01*
G01*
X38245000Y-144130000D01*
G75*
G02*
X38110000Y-143995000I0J135000D01*
G01*
X38110000Y-143725000D01*
G75*
G02*
X38245000Y-143590000I135000J0D01*
G01*
G37*
G36*
G01*
X38245000Y-142570000D02*
X38615000Y-142570000D01*
G75*
G02*
X38750000Y-142705000I0J-135000D01*
G01*
X38750000Y-142975000D01*
G75*
G02*
X38615000Y-143110000I-135000J0D01*
G01*
X38245000Y-143110000D01*
G75*
G02*
X38110000Y-142975000I0J135000D01*
G01*
X38110000Y-142705000D01*
G75*
G02*
X38245000Y-142570000I135000J0D01*
G01*
G37*
%TD*%
D21*
%TO.C,S1*%
X58375000Y-147675000D03*
X61375000Y-147675000D03*
X62875000Y-147675000D03*
D22*
X56975000Y-150535000D03*
X64275000Y-150535000D03*
X64275000Y-148325000D03*
X56975000Y-148325000D03*
%TD*%
%TO.C,S2*%
X47950000Y-148370000D03*
X55250000Y-148370000D03*
X55250000Y-150580000D03*
X47950000Y-150580000D03*
D21*
X53850000Y-147720000D03*
X52350000Y-147720000D03*
X49350000Y-147720000D03*
%TD*%
D23*
%TO.C,U1*%
X61000000Y-111405000D03*
X60050000Y-111405000D03*
X59100000Y-111405000D03*
X59100000Y-113605000D03*
X61000000Y-113605000D03*
X60050000Y-113605000D03*
%TD*%
%TO.C,U2*%
G36*
G01*
X56080000Y-112075000D02*
X56380000Y-112075000D01*
G75*
G02*
X56530000Y-112225000I0J-150000D01*
G01*
X56530000Y-113875000D01*
G75*
G02*
X56380000Y-114025000I-150000J0D01*
G01*
X56080000Y-114025000D01*
G75*
G02*
X55930000Y-113875000I0J150000D01*
G01*
X55930000Y-112225000D01*
G75*
G02*
X56080000Y-112075000I150000J0D01*
G01*
G37*
G36*
G01*
X54810000Y-112075000D02*
X55110000Y-112075000D01*
G75*
G02*
X55260000Y-112225000I0J-150000D01*
G01*
X55260000Y-113875000D01*
G75*
G02*
X55110000Y-114025000I-150000J0D01*
G01*
X54810000Y-114025000D01*
G75*
G02*
X54660000Y-113875000I0J150000D01*
G01*
X54660000Y-112225000D01*
G75*
G02*
X54810000Y-112075000I150000J0D01*
G01*
G37*
G36*
G01*
X53540000Y-112075000D02*
X53840000Y-112075000D01*
G75*
G02*
X53990000Y-112225000I0J-150000D01*
G01*
X53990000Y-113875000D01*
G75*
G02*
X53840000Y-114025000I-150000J0D01*
G01*
X53540000Y-114025000D01*
G75*
G02*
X53390000Y-113875000I0J150000D01*
G01*
X53390000Y-112225000D01*
G75*
G02*
X53540000Y-112075000I150000J0D01*
G01*
G37*
G36*
G01*
X52270000Y-112075000D02*
X52570000Y-112075000D01*
G75*
G02*
X52720000Y-112225000I0J-150000D01*
G01*
X52720000Y-113875000D01*
G75*
G02*
X52570000Y-114025000I-150000J0D01*
G01*
X52270000Y-114025000D01*
G75*
G02*
X52120000Y-113875000I0J150000D01*
G01*
X52120000Y-112225000D01*
G75*
G02*
X52270000Y-112075000I150000J0D01*
G01*
G37*
G36*
G01*
X52270000Y-117025000D02*
X52570000Y-117025000D01*
G75*
G02*
X52720000Y-117175000I0J-150000D01*
G01*
X52720000Y-118825000D01*
G75*
G02*
X52570000Y-118975000I-150000J0D01*
G01*
X52270000Y-118975000D01*
G75*
G02*
X52120000Y-118825000I0J150000D01*
G01*
X52120000Y-117175000D01*
G75*
G02*
X52270000Y-117025000I150000J0D01*
G01*
G37*
G36*
G01*
X53540000Y-117025000D02*
X53840000Y-117025000D01*
G75*
G02*
X53990000Y-117175000I0J-150000D01*
G01*
X53990000Y-118825000D01*
G75*
G02*
X53840000Y-118975000I-150000J0D01*
G01*
X53540000Y-118975000D01*
G75*
G02*
X53390000Y-118825000I0J150000D01*
G01*
X53390000Y-117175000D01*
G75*
G02*
X53540000Y-117025000I150000J0D01*
G01*
G37*
G36*
G01*
X54810000Y-117025000D02*
X55110000Y-117025000D01*
G75*
G02*
X55260000Y-117175000I0J-150000D01*
G01*
X55260000Y-118825000D01*
G75*
G02*
X55110000Y-118975000I-150000J0D01*
G01*
X54810000Y-118975000D01*
G75*
G02*
X54660000Y-118825000I0J150000D01*
G01*
X54660000Y-117175000D01*
G75*
G02*
X54810000Y-117025000I150000J0D01*
G01*
G37*
G36*
G01*
X56080000Y-117025000D02*
X56380000Y-117025000D01*
G75*
G02*
X56530000Y-117175000I0J-150000D01*
G01*
X56530000Y-118825000D01*
G75*
G02*
X56380000Y-118975000I-150000J0D01*
G01*
X56080000Y-118975000D01*
G75*
G02*
X55930000Y-118825000I0J150000D01*
G01*
X55930000Y-117175000D01*
G75*
G02*
X56080000Y-117025000I150000J0D01*
G01*
G37*
%TD*%
%TO.C,U4*%
G36*
G01*
X46950000Y-117395000D02*
X46950000Y-117195000D01*
G75*
G02*
X47050000Y-117095000I100000J0D01*
G01*
X47400000Y-117095000D01*
G75*
G02*
X47500000Y-117195000I0J-100000D01*
G01*
X47500000Y-117395000D01*
G75*
G02*
X47400000Y-117495000I-100000J0D01*
G01*
X47050000Y-117495000D01*
G75*
G02*
X46950000Y-117395000I0J100000D01*
G01*
G37*
G36*
G01*
X46950000Y-117995000D02*
X46950000Y-117795000D01*
G75*
G02*
X47050000Y-117695000I100000J0D01*
G01*
X47400000Y-117695000D01*
G75*
G02*
X47500000Y-117795000I0J-100000D01*
G01*
X47500000Y-117995000D01*
G75*
G02*
X47400000Y-118095000I-100000J0D01*
G01*
X47050000Y-118095000D01*
G75*
G02*
X46950000Y-117995000I0J100000D01*
G01*
G37*
G36*
G01*
X47350000Y-118695000D02*
X47350000Y-118345000D01*
G75*
G02*
X47450000Y-118245000I100000J0D01*
G01*
X47650000Y-118245000D01*
G75*
G02*
X47750000Y-118345000I0J-100000D01*
G01*
X47750000Y-118695000D01*
G75*
G02*
X47650000Y-118795000I-100000J0D01*
G01*
X47450000Y-118795000D01*
G75*
G02*
X47350000Y-118695000I0J100000D01*
G01*
G37*
G36*
G01*
X47950000Y-118695000D02*
X47950000Y-118345000D01*
G75*
G02*
X48050000Y-118245000I100000J0D01*
G01*
X48250000Y-118245000D01*
G75*
G02*
X48350000Y-118345000I0J-100000D01*
G01*
X48350000Y-118695000D01*
G75*
G02*
X48250000Y-118795000I-100000J0D01*
G01*
X48050000Y-118795000D01*
G75*
G02*
X47950000Y-118695000I0J100000D01*
G01*
G37*
G36*
G01*
X48550000Y-118695000D02*
X48550000Y-118345000D01*
G75*
G02*
X48650000Y-118245000I100000J0D01*
G01*
X48850000Y-118245000D01*
G75*
G02*
X48950000Y-118345000I0J-100000D01*
G01*
X48950000Y-118695000D01*
G75*
G02*
X48850000Y-118795000I-100000J0D01*
G01*
X48650000Y-118795000D01*
G75*
G02*
X48550000Y-118695000I0J100000D01*
G01*
G37*
G36*
G01*
X48800000Y-117995000D02*
X48800000Y-117795000D01*
G75*
G02*
X48900000Y-117695000I100000J0D01*
G01*
X49250000Y-117695000D01*
G75*
G02*
X49350000Y-117795000I0J-100000D01*
G01*
X49350000Y-117995000D01*
G75*
G02*
X49250000Y-118095000I-100000J0D01*
G01*
X48900000Y-118095000D01*
G75*
G02*
X48800000Y-117995000I0J100000D01*
G01*
G37*
G36*
G01*
X48800000Y-117395000D02*
X48800000Y-117195000D01*
G75*
G02*
X48900000Y-117095000I100000J0D01*
G01*
X49250000Y-117095000D01*
G75*
G02*
X49350000Y-117195000I0J-100000D01*
G01*
X49350000Y-117395000D01*
G75*
G02*
X49250000Y-117495000I-100000J0D01*
G01*
X48900000Y-117495000D01*
G75*
G02*
X48800000Y-117395000I0J100000D01*
G01*
G37*
G36*
G01*
X48550000Y-116845000D02*
X48550000Y-116495000D01*
G75*
G02*
X48650000Y-116395000I100000J0D01*
G01*
X48850000Y-116395000D01*
G75*
G02*
X48950000Y-116495000I0J-100000D01*
G01*
X48950000Y-116845000D01*
G75*
G02*
X48850000Y-116945000I-100000J0D01*
G01*
X48650000Y-116945000D01*
G75*
G02*
X48550000Y-116845000I0J100000D01*
G01*
G37*
G36*
G01*
X47950000Y-116845000D02*
X47950000Y-116495000D01*
G75*
G02*
X48050000Y-116395000I100000J0D01*
G01*
X48250000Y-116395000D01*
G75*
G02*
X48350000Y-116495000I0J-100000D01*
G01*
X48350000Y-116845000D01*
G75*
G02*
X48250000Y-116945000I-100000J0D01*
G01*
X48050000Y-116945000D01*
G75*
G02*
X47950000Y-116845000I0J100000D01*
G01*
G37*
G36*
G01*
X47350000Y-116845000D02*
X47350000Y-116495000D01*
G75*
G02*
X47450000Y-116395000I100000J0D01*
G01*
X47650000Y-116395000D01*
G75*
G02*
X47750000Y-116495000I0J-100000D01*
G01*
X47750000Y-116845000D01*
G75*
G02*
X47650000Y-116945000I-100000J0D01*
G01*
X47450000Y-116945000D01*
G75*
G02*
X47350000Y-116845000I0J100000D01*
G01*
G37*
%TD*%
%TO.C,U5*%
G36*
G01*
X44390000Y-117825000D02*
X44390000Y-117975000D01*
G75*
G02*
X44315000Y-118050000I-75000J0D01*
G01*
X43440000Y-118050000D01*
G75*
G02*
X43365000Y-117975000I0J75000D01*
G01*
X43365000Y-117825000D01*
G75*
G02*
X43440000Y-117750000I75000J0D01*
G01*
X44315000Y-117750000D01*
G75*
G02*
X44390000Y-117825000I0J-75000D01*
G01*
G37*
G36*
G01*
X44390000Y-117175000D02*
X44390000Y-117325000D01*
G75*
G02*
X44315000Y-117400000I-75000J0D01*
G01*
X43440000Y-117400000D01*
G75*
G02*
X43365000Y-117325000I0J75000D01*
G01*
X43365000Y-117175000D01*
G75*
G02*
X43440000Y-117100000I75000J0D01*
G01*
X44315000Y-117100000D01*
G75*
G02*
X44390000Y-117175000I0J-75000D01*
G01*
G37*
G36*
G01*
X44390000Y-116525000D02*
X44390000Y-116675000D01*
G75*
G02*
X44315000Y-116750000I-75000J0D01*
G01*
X43440000Y-116750000D01*
G75*
G02*
X43365000Y-116675000I0J75000D01*
G01*
X43365000Y-116525000D01*
G75*
G02*
X43440000Y-116450000I75000J0D01*
G01*
X44315000Y-116450000D01*
G75*
G02*
X44390000Y-116525000I0J-75000D01*
G01*
G37*
G36*
G01*
X44390000Y-115875000D02*
X44390000Y-116025000D01*
G75*
G02*
X44315000Y-116100000I-75000J0D01*
G01*
X43440000Y-116100000D01*
G75*
G02*
X43365000Y-116025000I0J75000D01*
G01*
X43365000Y-115875000D01*
G75*
G02*
X43440000Y-115800000I75000J0D01*
G01*
X44315000Y-115800000D01*
G75*
G02*
X44390000Y-115875000I0J-75000D01*
G01*
G37*
G36*
G01*
X44390000Y-115225000D02*
X44390000Y-115375000D01*
G75*
G02*
X44315000Y-115450000I-75000J0D01*
G01*
X43440000Y-115450000D01*
G75*
G02*
X43365000Y-115375000I0J75000D01*
G01*
X43365000Y-115225000D01*
G75*
G02*
X43440000Y-115150000I75000J0D01*
G01*
X44315000Y-115150000D01*
G75*
G02*
X44390000Y-115225000I0J-75000D01*
G01*
G37*
G36*
G01*
X44390000Y-114575000D02*
X44390000Y-114725000D01*
G75*
G02*
X44315000Y-114800000I-75000J0D01*
G01*
X43440000Y-114800000D01*
G75*
G02*
X43365000Y-114725000I0J75000D01*
G01*
X43365000Y-114575000D01*
G75*
G02*
X43440000Y-114500000I75000J0D01*
G01*
X44315000Y-114500000D01*
G75*
G02*
X44390000Y-114575000I0J-75000D01*
G01*
G37*
G36*
G01*
X44390000Y-113925000D02*
X44390000Y-114075000D01*
G75*
G02*
X44315000Y-114150000I-75000J0D01*
G01*
X43440000Y-114150000D01*
G75*
G02*
X43365000Y-114075000I0J75000D01*
G01*
X43365000Y-113925000D01*
G75*
G02*
X43440000Y-113850000I75000J0D01*
G01*
X44315000Y-113850000D01*
G75*
G02*
X44390000Y-113925000I0J-75000D01*
G01*
G37*
G36*
G01*
X43140000Y-112675000D02*
X43140000Y-113550000D01*
G75*
G02*
X43065000Y-113625000I-75000J0D01*
G01*
X42915000Y-113625000D01*
G75*
G02*
X42840000Y-113550000I0J75000D01*
G01*
X42840000Y-112675000D01*
G75*
G02*
X42915000Y-112600000I75000J0D01*
G01*
X43065000Y-112600000D01*
G75*
G02*
X43140000Y-112675000I0J-75000D01*
G01*
G37*
G36*
G01*
X42490000Y-112675000D02*
X42490000Y-113550000D01*
G75*
G02*
X42415000Y-113625000I-75000J0D01*
G01*
X42265000Y-113625000D01*
G75*
G02*
X42190000Y-113550000I0J75000D01*
G01*
X42190000Y-112675000D01*
G75*
G02*
X42265000Y-112600000I75000J0D01*
G01*
X42415000Y-112600000D01*
G75*
G02*
X42490000Y-112675000I0J-75000D01*
G01*
G37*
G36*
G01*
X41840000Y-112675000D02*
X41840000Y-113550000D01*
G75*
G02*
X41765000Y-113625000I-75000J0D01*
G01*
X41615000Y-113625000D01*
G75*
G02*
X41540000Y-113550000I0J75000D01*
G01*
X41540000Y-112675000D01*
G75*
G02*
X41615000Y-112600000I75000J0D01*
G01*
X41765000Y-112600000D01*
G75*
G02*
X41840000Y-112675000I0J-75000D01*
G01*
G37*
G36*
G01*
X41190000Y-112675000D02*
X41190000Y-113550000D01*
G75*
G02*
X41115000Y-113625000I-75000J0D01*
G01*
X40965000Y-113625000D01*
G75*
G02*
X40890000Y-113550000I0J75000D01*
G01*
X40890000Y-112675000D01*
G75*
G02*
X40965000Y-112600000I75000J0D01*
G01*
X41115000Y-112600000D01*
G75*
G02*
X41190000Y-112675000I0J-75000D01*
G01*
G37*
G36*
G01*
X40540000Y-112675000D02*
X40540000Y-113550000D01*
G75*
G02*
X40465000Y-113625000I-75000J0D01*
G01*
X40315000Y-113625000D01*
G75*
G02*
X40240000Y-113550000I0J75000D01*
G01*
X40240000Y-112675000D01*
G75*
G02*
X40315000Y-112600000I75000J0D01*
G01*
X40465000Y-112600000D01*
G75*
G02*
X40540000Y-112675000I0J-75000D01*
G01*
G37*
G36*
G01*
X39890000Y-112675000D02*
X39890000Y-113550000D01*
G75*
G02*
X39815000Y-113625000I-75000J0D01*
G01*
X39665000Y-113625000D01*
G75*
G02*
X39590000Y-113550000I0J75000D01*
G01*
X39590000Y-112675000D01*
G75*
G02*
X39665000Y-112600000I75000J0D01*
G01*
X39815000Y-112600000D01*
G75*
G02*
X39890000Y-112675000I0J-75000D01*
G01*
G37*
G36*
G01*
X39240000Y-112675000D02*
X39240000Y-113550000D01*
G75*
G02*
X39165000Y-113625000I-75000J0D01*
G01*
X39015000Y-113625000D01*
G75*
G02*
X38940000Y-113550000I0J75000D01*
G01*
X38940000Y-112675000D01*
G75*
G02*
X39015000Y-112600000I75000J0D01*
G01*
X39165000Y-112600000D01*
G75*
G02*
X39240000Y-112675000I0J-75000D01*
G01*
G37*
G36*
G01*
X38715000Y-113925000D02*
X38715000Y-114075000D01*
G75*
G02*
X38640000Y-114150000I-75000J0D01*
G01*
X37765000Y-114150000D01*
G75*
G02*
X37690000Y-114075000I0J75000D01*
G01*
X37690000Y-113925000D01*
G75*
G02*
X37765000Y-113850000I75000J0D01*
G01*
X38640000Y-113850000D01*
G75*
G02*
X38715000Y-113925000I0J-75000D01*
G01*
G37*
G36*
G01*
X38715000Y-114575000D02*
X38715000Y-114725000D01*
G75*
G02*
X38640000Y-114800000I-75000J0D01*
G01*
X37765000Y-114800000D01*
G75*
G02*
X37690000Y-114725000I0J75000D01*
G01*
X37690000Y-114575000D01*
G75*
G02*
X37765000Y-114500000I75000J0D01*
G01*
X38640000Y-114500000D01*
G75*
G02*
X38715000Y-114575000I0J-75000D01*
G01*
G37*
G36*
G01*
X38715000Y-115225000D02*
X38715000Y-115375000D01*
G75*
G02*
X38640000Y-115450000I-75000J0D01*
G01*
X37765000Y-115450000D01*
G75*
G02*
X37690000Y-115375000I0J75000D01*
G01*
X37690000Y-115225000D01*
G75*
G02*
X37765000Y-115150000I75000J0D01*
G01*
X38640000Y-115150000D01*
G75*
G02*
X38715000Y-115225000I0J-75000D01*
G01*
G37*
G36*
G01*
X38715000Y-115875000D02*
X38715000Y-116025000D01*
G75*
G02*
X38640000Y-116100000I-75000J0D01*
G01*
X37765000Y-116100000D01*
G75*
G02*
X37690000Y-116025000I0J75000D01*
G01*
X37690000Y-115875000D01*
G75*
G02*
X37765000Y-115800000I75000J0D01*
G01*
X38640000Y-115800000D01*
G75*
G02*
X38715000Y-115875000I0J-75000D01*
G01*
G37*
G36*
G01*
X38715000Y-116525000D02*
X38715000Y-116675000D01*
G75*
G02*
X38640000Y-116750000I-75000J0D01*
G01*
X37765000Y-116750000D01*
G75*
G02*
X37690000Y-116675000I0J75000D01*
G01*
X37690000Y-116525000D01*
G75*
G02*
X37765000Y-116450000I75000J0D01*
G01*
X38640000Y-116450000D01*
G75*
G02*
X38715000Y-116525000I0J-75000D01*
G01*
G37*
G36*
G01*
X38715000Y-117175000D02*
X38715000Y-117325000D01*
G75*
G02*
X38640000Y-117400000I-75000J0D01*
G01*
X37765000Y-117400000D01*
G75*
G02*
X37690000Y-117325000I0J75000D01*
G01*
X37690000Y-117175000D01*
G75*
G02*
X37765000Y-117100000I75000J0D01*
G01*
X38640000Y-117100000D01*
G75*
G02*
X38715000Y-117175000I0J-75000D01*
G01*
G37*
G36*
G01*
X38715000Y-117825000D02*
X38715000Y-117975000D01*
G75*
G02*
X38640000Y-118050000I-75000J0D01*
G01*
X37765000Y-118050000D01*
G75*
G02*
X37690000Y-117975000I0J75000D01*
G01*
X37690000Y-117825000D01*
G75*
G02*
X37765000Y-117750000I75000J0D01*
G01*
X38640000Y-117750000D01*
G75*
G02*
X38715000Y-117825000I0J-75000D01*
G01*
G37*
G36*
G01*
X39240000Y-118350000D02*
X39240000Y-119225000D01*
G75*
G02*
X39165000Y-119300000I-75000J0D01*
G01*
X39015000Y-119300000D01*
G75*
G02*
X38940000Y-119225000I0J75000D01*
G01*
X38940000Y-118350000D01*
G75*
G02*
X39015000Y-118275000I75000J0D01*
G01*
X39165000Y-118275000D01*
G75*
G02*
X39240000Y-118350000I0J-75000D01*
G01*
G37*
G36*
G01*
X39890000Y-118350000D02*
X39890000Y-119225000D01*
G75*
G02*
X39815000Y-119300000I-75000J0D01*
G01*
X39665000Y-119300000D01*
G75*
G02*
X39590000Y-119225000I0J75000D01*
G01*
X39590000Y-118350000D01*
G75*
G02*
X39665000Y-118275000I75000J0D01*
G01*
X39815000Y-118275000D01*
G75*
G02*
X39890000Y-118350000I0J-75000D01*
G01*
G37*
G36*
G01*
X40540000Y-118350000D02*
X40540000Y-119225000D01*
G75*
G02*
X40465000Y-119300000I-75000J0D01*
G01*
X40315000Y-119300000D01*
G75*
G02*
X40240000Y-119225000I0J75000D01*
G01*
X40240000Y-118350000D01*
G75*
G02*
X40315000Y-118275000I75000J0D01*
G01*
X40465000Y-118275000D01*
G75*
G02*
X40540000Y-118350000I0J-75000D01*
G01*
G37*
G36*
G01*
X41190000Y-118350000D02*
X41190000Y-119225000D01*
G75*
G02*
X41115000Y-119300000I-75000J0D01*
G01*
X40965000Y-119300000D01*
G75*
G02*
X40890000Y-119225000I0J75000D01*
G01*
X40890000Y-118350000D01*
G75*
G02*
X40965000Y-118275000I75000J0D01*
G01*
X41115000Y-118275000D01*
G75*
G02*
X41190000Y-118350000I0J-75000D01*
G01*
G37*
G36*
G01*
X41840000Y-118350000D02*
X41840000Y-119225000D01*
G75*
G02*
X41765000Y-119300000I-75000J0D01*
G01*
X41615000Y-119300000D01*
G75*
G02*
X41540000Y-119225000I0J75000D01*
G01*
X41540000Y-118350000D01*
G75*
G02*
X41615000Y-118275000I75000J0D01*
G01*
X41765000Y-118275000D01*
G75*
G02*
X41840000Y-118350000I0J-75000D01*
G01*
G37*
G36*
G01*
X42490000Y-118350000D02*
X42490000Y-119225000D01*
G75*
G02*
X42415000Y-119300000I-75000J0D01*
G01*
X42265000Y-119300000D01*
G75*
G02*
X42190000Y-119225000I0J75000D01*
G01*
X42190000Y-118350000D01*
G75*
G02*
X42265000Y-118275000I75000J0D01*
G01*
X42415000Y-118275000D01*
G75*
G02*
X42490000Y-118350000I0J-75000D01*
G01*
G37*
G36*
G01*
X43140000Y-118350000D02*
X43140000Y-119225000D01*
G75*
G02*
X43065000Y-119300000I-75000J0D01*
G01*
X42915000Y-119300000D01*
G75*
G02*
X42840000Y-119225000I0J75000D01*
G01*
X42840000Y-118350000D01*
G75*
G02*
X42915000Y-118275000I75000J0D01*
G01*
X43065000Y-118275000D01*
G75*
G02*
X43140000Y-118350000I0J-75000D01*
G01*
G37*
G36*
G01*
X43030000Y-117049998D02*
X43030000Y-117690002D01*
G75*
G02*
X42780002Y-117940000I-249998J0D01*
G01*
X42139998Y-117940000D01*
G75*
G02*
X41890000Y-117690002I0J249998D01*
G01*
X41890000Y-117049998D01*
G75*
G02*
X42139998Y-116800000I249998J0D01*
G01*
X42780002Y-116800000D01*
G75*
G02*
X43030000Y-117049998I0J-249998D01*
G01*
G37*
G36*
G01*
X43030000Y-115629998D02*
X43030000Y-116270002D01*
G75*
G02*
X42780002Y-116520000I-249998J0D01*
G01*
X42139998Y-116520000D01*
G75*
G02*
X41890000Y-116270002I0J249998D01*
G01*
X41890000Y-115629998D01*
G75*
G02*
X42139998Y-115380000I249998J0D01*
G01*
X42780002Y-115380000D01*
G75*
G02*
X43030000Y-115629998I0J-249998D01*
G01*
G37*
G36*
G01*
X43030000Y-114209998D02*
X43030000Y-114850002D01*
G75*
G02*
X42780002Y-115100000I-249998J0D01*
G01*
X42139998Y-115100000D01*
G75*
G02*
X41890000Y-114850002I0J249998D01*
G01*
X41890000Y-114209998D01*
G75*
G02*
X42139998Y-113960000I249998J0D01*
G01*
X42780002Y-113960000D01*
G75*
G02*
X43030000Y-114209998I0J-249998D01*
G01*
G37*
G36*
G01*
X41610000Y-117049998D02*
X41610000Y-117690002D01*
G75*
G02*
X41360002Y-117940000I-249998J0D01*
G01*
X40719998Y-117940000D01*
G75*
G02*
X40470000Y-117690002I0J249998D01*
G01*
X40470000Y-117049998D01*
G75*
G02*
X40719998Y-116800000I249998J0D01*
G01*
X41360002Y-116800000D01*
G75*
G02*
X41610000Y-117049998I0J-249998D01*
G01*
G37*
G36*
G01*
X41610000Y-115629998D02*
X41610000Y-116270002D01*
G75*
G02*
X41360002Y-116520000I-249998J0D01*
G01*
X40719998Y-116520000D01*
G75*
G02*
X40470000Y-116270002I0J249998D01*
G01*
X40470000Y-115629998D01*
G75*
G02*
X40719998Y-115380000I249998J0D01*
G01*
X41360002Y-115380000D01*
G75*
G02*
X41610000Y-115629998I0J-249998D01*
G01*
G37*
G36*
G01*
X41610000Y-114209998D02*
X41610000Y-114850002D01*
G75*
G02*
X41360002Y-115100000I-249998J0D01*
G01*
X40719998Y-115100000D01*
G75*
G02*
X40470000Y-114850002I0J249998D01*
G01*
X40470000Y-114209998D01*
G75*
G02*
X40719998Y-113960000I249998J0D01*
G01*
X41360002Y-113960000D01*
G75*
G02*
X41610000Y-114209998I0J-249998D01*
G01*
G37*
G36*
G01*
X40190000Y-117049998D02*
X40190000Y-117690002D01*
G75*
G02*
X39940002Y-117940000I-249998J0D01*
G01*
X39299998Y-117940000D01*
G75*
G02*
X39050000Y-117690002I0J249998D01*
G01*
X39050000Y-117049998D01*
G75*
G02*
X39299998Y-116800000I249998J0D01*
G01*
X39940002Y-116800000D01*
G75*
G02*
X40190000Y-117049998I0J-249998D01*
G01*
G37*
G36*
G01*
X40190000Y-115629998D02*
X40190000Y-116270002D01*
G75*
G02*
X39940002Y-116520000I-249998J0D01*
G01*
X39299998Y-116520000D01*
G75*
G02*
X39050000Y-116270002I0J249998D01*
G01*
X39050000Y-115629998D01*
G75*
G02*
X39299998Y-115380000I249998J0D01*
G01*
X39940002Y-115380000D01*
G75*
G02*
X40190000Y-115629998I0J-249998D01*
G01*
G37*
G36*
G01*
X40190000Y-114209998D02*
X40190000Y-114850002D01*
G75*
G02*
X39940002Y-115100000I-249998J0D01*
G01*
X39299998Y-115100000D01*
G75*
G02*
X39050000Y-114850002I0J249998D01*
G01*
X39050000Y-114209998D01*
G75*
G02*
X39299998Y-113960000I249998J0D01*
G01*
X39940002Y-113960000D01*
G75*
G02*
X40190000Y-114209998I0J-249998D01*
G01*
G37*
%TD*%
D24*
%TO.C,Y1*%
X32330000Y-128080000D03*
X32330000Y-130280000D03*
X34030000Y-130280000D03*
X34030000Y-128080000D03*
%TD*%
%TO.C,C7*%
G36*
G01*
X32440000Y-132630000D02*
X32780000Y-132630000D01*
G75*
G02*
X32920000Y-132770000I0J-140000D01*
G01*
X32920000Y-133050000D01*
G75*
G02*
X32780000Y-133190000I-140000J0D01*
G01*
X32440000Y-133190000D01*
G75*
G02*
X32300000Y-133050000I0J140000D01*
G01*
X32300000Y-132770000D01*
G75*
G02*
X32440000Y-132630000I140000J0D01*
G01*
G37*
G36*
G01*
X32440000Y-133590000D02*
X32780000Y-133590000D01*
G75*
G02*
X32920000Y-133730000I0J-140000D01*
G01*
X32920000Y-134010000D01*
G75*
G02*
X32780000Y-134150000I-140000J0D01*
G01*
X32440000Y-134150000D01*
G75*
G02*
X32300000Y-134010000I0J140000D01*
G01*
X32300000Y-133730000D01*
G75*
G02*
X32440000Y-133590000I140000J0D01*
G01*
G37*
%TD*%
%TO.C,D2*%
G36*
G01*
X50880000Y-137383750D02*
X50880000Y-137896250D01*
G75*
G02*
X50661250Y-138115000I-218750J0D01*
G01*
X50223750Y-138115000D01*
G75*
G02*
X50005000Y-137896250I0J218750D01*
G01*
X50005000Y-137383750D01*
G75*
G02*
X50223750Y-137165000I218750J0D01*
G01*
X50661250Y-137165000D01*
G75*
G02*
X50880000Y-137383750I0J-218750D01*
G01*
G37*
G36*
G01*
X52455000Y-137383750D02*
X52455000Y-137896250D01*
G75*
G02*
X52236250Y-138115000I-218750J0D01*
G01*
X51798750Y-138115000D01*
G75*
G02*
X51580000Y-137896250I0J218750D01*
G01*
X51580000Y-137383750D01*
G75*
G02*
X51798750Y-137165000I218750J0D01*
G01*
X52236250Y-137165000D01*
G75*
G02*
X52455000Y-137383750I0J-218750D01*
G01*
G37*
%TD*%
%TO.C,D3*%
G36*
G01*
X52455000Y-135683750D02*
X52455000Y-136196250D01*
G75*
G02*
X52236250Y-136415000I-218750J0D01*
G01*
X51798750Y-136415000D01*
G75*
G02*
X51580000Y-136196250I0J218750D01*
G01*
X51580000Y-135683750D01*
G75*
G02*
X51798750Y-135465000I218750J0D01*
G01*
X52236250Y-135465000D01*
G75*
G02*
X52455000Y-135683750I0J-218750D01*
G01*
G37*
G36*
G01*
X50880000Y-135683750D02*
X50880000Y-136196250D01*
G75*
G02*
X50661250Y-136415000I-218750J0D01*
G01*
X50223750Y-136415000D01*
G75*
G02*
X50005000Y-136196250I0J218750D01*
G01*
X50005000Y-135683750D01*
G75*
G02*
X50223750Y-135465000I218750J0D01*
G01*
X50661250Y-135465000D01*
G75*
G02*
X50880000Y-135683750I0J-218750D01*
G01*
G37*
%TD*%
%TO.C,D4*%
G36*
G01*
X50880000Y-133983750D02*
X50880000Y-134496250D01*
G75*
G02*
X50661250Y-134715000I-218750J0D01*
G01*
X50223750Y-134715000D01*
G75*
G02*
X50005000Y-134496250I0J218750D01*
G01*
X50005000Y-133983750D01*
G75*
G02*
X50223750Y-133765000I218750J0D01*
G01*
X50661250Y-133765000D01*
G75*
G02*
X50880000Y-133983750I0J-218750D01*
G01*
G37*
G36*
G01*
X52455000Y-133983750D02*
X52455000Y-134496250D01*
G75*
G02*
X52236250Y-134715000I-218750J0D01*
G01*
X51798750Y-134715000D01*
G75*
G02*
X51580000Y-134496250I0J218750D01*
G01*
X51580000Y-133983750D01*
G75*
G02*
X51798750Y-133765000I218750J0D01*
G01*
X52236250Y-133765000D01*
G75*
G02*
X52455000Y-133983750I0J-218750D01*
G01*
G37*
%TD*%
%TO.C,D5*%
G36*
G01*
X52445000Y-132173750D02*
X52445000Y-132686250D01*
G75*
G02*
X52226250Y-132905000I-218750J0D01*
G01*
X51788750Y-132905000D01*
G75*
G02*
X51570000Y-132686250I0J218750D01*
G01*
X51570000Y-132173750D01*
G75*
G02*
X51788750Y-131955000I218750J0D01*
G01*
X52226250Y-131955000D01*
G75*
G02*
X52445000Y-132173750I0J-218750D01*
G01*
G37*
G36*
G01*
X50870000Y-132173750D02*
X50870000Y-132686250D01*
G75*
G02*
X50651250Y-132905000I-218750J0D01*
G01*
X50213750Y-132905000D01*
G75*
G02*
X49995000Y-132686250I0J218750D01*
G01*
X49995000Y-132173750D01*
G75*
G02*
X50213750Y-131955000I218750J0D01*
G01*
X50651250Y-131955000D01*
G75*
G02*
X50870000Y-132173750I0J-218750D01*
G01*
G37*
%TD*%
M02*
