%TF.GenerationSoftware,KiCad,Pcbnew,(5.1.9)-1*%
%TF.CreationDate,2021-10-28T19:53:03+05:30*%
%TF.ProjectId,royal_fc,726f7961-6c5f-4666-932e-6b696361645f,v1.0*%
%TF.SameCoordinates,Original*%
%TF.FileFunction,Soldermask,Bot*%
%TF.FilePolarity,Negative*%
%FSLAX46Y46*%
G04 Gerber Fmt 4.6, Leading zero omitted, Abs format (unit mm)*
G04 Created by KiCad (PCBNEW (5.1.9)-1) date 2021-10-28 19:53:03*
%MOMM*%
%LPD*%
G01*
G04 APERTURE LIST*
%ADD10O,0.800000X0.800000*%
%ADD11O,1.150000X1.800000*%
%ADD12O,1.450000X2.000000*%
%ADD13O,1.000000X1.000000*%
%ADD14R,1.000000X1.000000*%
%ADD15R,1.700000X1.700000*%
%ADD16O,1.700000X1.700000*%
%ADD17C,0.900000*%
%ADD18C,1.700000*%
G04 APERTURE END LIST*
D10*
%TO.C,USB1*%
X57130000Y-107250000D03*
X62130000Y-107250000D03*
D11*
X55755000Y-104500000D03*
X63505000Y-104500000D03*
D12*
X55905000Y-108300000D03*
X63355000Y-108300000D03*
%TD*%
D13*
%TO.C,JP1*%
X29440000Y-108770000D03*
D14*
X30710000Y-108770000D03*
%TD*%
D15*
%TO.C,VIN1*%
X25330000Y-113650000D03*
D16*
X25330000Y-111110000D03*
%TD*%
%TO.C,8  7  6*%
X34500000Y-108560000D03*
X37040000Y-108560000D03*
X39580000Y-108560000D03*
X42120000Y-108560000D03*
X44660000Y-108560000D03*
X47200000Y-108560000D03*
X49740000Y-108560000D03*
D15*
X52280000Y-108560000D03*
%TD*%
%TO.C,GPS*%
X45210000Y-149350000D03*
D16*
X42670000Y-149350000D03*
X40130000Y-149350000D03*
X37590000Y-149350000D03*
%TD*%
D15*
%TO.C,I2C3*%
X63980000Y-142880000D03*
D16*
X61440000Y-142880000D03*
X58900000Y-142880000D03*
X56360000Y-142880000D03*
%TD*%
D15*
%TO.C,J1*%
X30730000Y-106025000D03*
D16*
X30730000Y-103485000D03*
%TD*%
D15*
%TO.C,J3*%
X34520001Y-106019999D03*
D16*
X34520001Y-103479999D03*
X37060001Y-106019999D03*
X37060001Y-103479999D03*
X39600001Y-106019999D03*
X39600001Y-103479999D03*
X42140001Y-106019999D03*
X42140001Y-103479999D03*
X44680001Y-106019999D03*
X44680001Y-103479999D03*
X47220001Y-106019999D03*
X47220001Y-103479999D03*
X49760001Y-106019999D03*
X49760001Y-103479999D03*
X52300001Y-106019999D03*
X52300001Y-103479999D03*
%TD*%
D15*
%TO.C,RC*%
X26500000Y-129240000D03*
D16*
X26500000Y-131780000D03*
X26500000Y-134320000D03*
X26500000Y-136860000D03*
%TD*%
D17*
%TO.C,S1*%
X59125000Y-149435000D03*
X62125000Y-149435000D03*
%TD*%
%TO.C,S2*%
X53100000Y-149480000D03*
X50100000Y-149480000D03*
%TD*%
D15*
%TO.C,SBUS*%
X26470000Y-148420000D03*
D16*
X26470000Y-145880000D03*
X26470000Y-143340000D03*
X26470000Y-140800000D03*
%TD*%
%TO.C,SWD1*%
G36*
G01*
X63070000Y-134740000D02*
X63070000Y-135940000D01*
G75*
G02*
X62820000Y-136190000I-250000J0D01*
G01*
X61620000Y-136190000D01*
G75*
G02*
X61370000Y-135940000I0J250000D01*
G01*
X61370000Y-134740000D01*
G75*
G02*
X61620000Y-134490000I250000J0D01*
G01*
X62820000Y-134490000D01*
G75*
G02*
X63070000Y-134740000I0J-250000D01*
G01*
G37*
D18*
X62220000Y-132800000D03*
X62220000Y-130260000D03*
X62220000Y-127720000D03*
X62220000Y-125180000D03*
X59680000Y-135340000D03*
X59680000Y-132800000D03*
X59680000Y-130260000D03*
X59680000Y-127720000D03*
X59680000Y-125180000D03*
%TD*%
D16*
%TO.C,TELEM*%
X26570000Y-125370000D03*
X26570000Y-122830000D03*
X26570000Y-120290000D03*
D15*
X26570000Y-117750000D03*
%TD*%
M02*
