%TF.GenerationSoftware,KiCad,Pcbnew,(5.1.9)-1*%
%TF.CreationDate,2021-10-28T19:53:02+05:30*%
%TF.ProjectId,royal_fc,726f7961-6c5f-4666-932e-6b696361645f,v1.0*%
%TF.SameCoordinates,Original*%
%TF.FileFunction,Copper,L2,Inr*%
%TF.FilePolarity,Positive*%
%FSLAX46Y46*%
G04 Gerber Fmt 4.6, Leading zero omitted, Abs format (unit mm)*
G04 Created by KiCad (PCBNEW (5.1.9)-1) date 2021-10-28 19:53:02*
%MOMM*%
%LPD*%
G01*
G04 APERTURE LIST*
%TA.AperFunction,ComponentPad*%
%ADD10O,1.150000X1.800000*%
%TD*%
%TA.AperFunction,ComponentPad*%
%ADD11O,1.450000X2.000000*%
%TD*%
%TA.AperFunction,ComponentPad*%
%ADD12O,1.000000X1.000000*%
%TD*%
%TA.AperFunction,ComponentPad*%
%ADD13R,1.000000X1.000000*%
%TD*%
%TA.AperFunction,ComponentPad*%
%ADD14R,1.700000X1.700000*%
%TD*%
%TA.AperFunction,ComponentPad*%
%ADD15O,1.700000X1.700000*%
%TD*%
%TA.AperFunction,ComponentPad*%
%ADD16C,1.700000*%
%TD*%
%TA.AperFunction,ViaPad*%
%ADD17C,0.400000*%
%TD*%
%TA.AperFunction,ViaPad*%
%ADD18C,0.600000*%
%TD*%
%TA.AperFunction,ViaPad*%
%ADD19C,0.800000*%
%TD*%
%TA.AperFunction,Conductor*%
%ADD20C,1.000000*%
%TD*%
%TA.AperFunction,Conductor*%
%ADD21C,0.254000*%
%TD*%
%TA.AperFunction,Conductor*%
%ADD22C,0.100000*%
%TD*%
G04 APERTURE END LIST*
D10*
%TO.N,GND*%
%TO.C,USB1*%
X55755000Y-104500000D03*
X63505000Y-104500000D03*
D11*
X55905000Y-108300000D03*
X63355000Y-108300000D03*
%TD*%
D12*
%TO.N,Net-(D6-Pad2)*%
%TO.C,JP1*%
X29440000Y-108770000D03*
D13*
%TO.N,Net-(J1-Pad1)*%
X30710000Y-108770000D03*
%TD*%
D14*
%TO.N,VCC*%
%TO.C,VIN1*%
X25330000Y-113650000D03*
D15*
%TO.N,GND*%
X25330000Y-111110000D03*
%TD*%
%TO.N,Net-(J2-Pad8)*%
%TO.C,8  7  6*%
X34500000Y-108560000D03*
%TO.N,Net-(J2-Pad7)*%
X37040000Y-108560000D03*
%TO.N,Net-(J2-Pad6)*%
X39580000Y-108560000D03*
%TO.N,Net-(J2-Pad5)*%
X42120000Y-108560000D03*
%TO.N,Net-(J2-Pad4)*%
X44660000Y-108560000D03*
%TO.N,Net-(J2-Pad3)*%
X47200000Y-108560000D03*
%TO.N,Net-(J2-Pad2)*%
X49740000Y-108560000D03*
D14*
%TO.N,Net-(J2-Pad1)*%
X52280000Y-108560000D03*
%TD*%
%TO.N,+3V3*%
%TO.C,GPS*%
X45210000Y-149350000D03*
D15*
%TO.N,GND*%
X42670000Y-149350000D03*
%TO.N,USART2_TX*%
X40130000Y-149350000D03*
%TO.N,USART2_RX*%
X37590000Y-149350000D03*
%TD*%
D14*
%TO.N,+3V3*%
%TO.C,I2C3*%
X63980000Y-142880000D03*
D15*
%TO.N,GND*%
X61440000Y-142880000D03*
%TO.N,I2C3_SCL*%
X58900000Y-142880000D03*
%TO.N,I2C3_SDA*%
X56360000Y-142880000D03*
%TD*%
D14*
%TO.N,Net-(J1-Pad1)*%
%TO.C,J1*%
X30730000Y-106025000D03*
D15*
%TO.N,GND*%
X30730000Y-103485000D03*
%TD*%
D14*
%TO.N,Net-(J1-Pad1)*%
%TO.C,J3*%
X34520001Y-106019999D03*
D15*
%TO.N,GND*%
X34520001Y-103479999D03*
%TO.N,Net-(J1-Pad1)*%
X37060001Y-106019999D03*
%TO.N,GND*%
X37060001Y-103479999D03*
%TO.N,Net-(J1-Pad1)*%
X39600001Y-106019999D03*
%TO.N,GND*%
X39600001Y-103479999D03*
%TO.N,Net-(J1-Pad1)*%
X42140001Y-106019999D03*
%TO.N,GND*%
X42140001Y-103479999D03*
%TO.N,Net-(J1-Pad1)*%
X44680001Y-106019999D03*
%TO.N,GND*%
X44680001Y-103479999D03*
%TO.N,Net-(J1-Pad1)*%
X47220001Y-106019999D03*
%TO.N,GND*%
X47220001Y-103479999D03*
%TO.N,Net-(J1-Pad1)*%
X49760001Y-106019999D03*
%TO.N,GND*%
X49760001Y-103479999D03*
%TO.N,Net-(J1-Pad1)*%
X52300001Y-106019999D03*
%TO.N,GND*%
X52300001Y-103479999D03*
%TD*%
D14*
%TO.N,TIM2_CH1*%
%TO.C,RC*%
X26500000Y-129240000D03*
D15*
%TO.N,TIM2_CH2*%
X26500000Y-131780000D03*
%TO.N,TIM2_CH3*%
X26500000Y-134320000D03*
%TO.N,TIM2_CH4*%
X26500000Y-136860000D03*
%TD*%
D14*
%TO.N,+3V3*%
%TO.C,SBUS*%
X26470000Y-148420000D03*
D15*
%TO.N,GND*%
X26470000Y-145880000D03*
%TO.N,UART4_TX*%
X26470000Y-143340000D03*
%TO.N,/UART4_RX_INV*%
X26470000Y-140800000D03*
%TD*%
%TO.N,+3V3*%
%TO.C,SWD1*%
%TA.AperFunction,ComponentPad*%
G36*
G01*
X63070000Y-134740000D02*
X63070000Y-135940000D01*
G75*
G02*
X62820000Y-136190000I-250000J0D01*
G01*
X61620000Y-136190000D01*
G75*
G02*
X61370000Y-135940000I0J250000D01*
G01*
X61370000Y-134740000D01*
G75*
G02*
X61620000Y-134490000I250000J0D01*
G01*
X62820000Y-134490000D01*
G75*
G02*
X63070000Y-134740000I0J-250000D01*
G01*
G37*
%TD.AperFunction*%
D16*
%TO.N,GND*%
X62220000Y-132800000D03*
X62220000Y-130260000D03*
%TO.N,N/C*%
X62220000Y-127720000D03*
%TO.N,GND*%
X62220000Y-125180000D03*
%TO.N,SWDIO*%
X59680000Y-135340000D03*
%TO.N,SWDCLK*%
X59680000Y-132800000D03*
%TO.N,N/C*%
X59680000Y-130260000D03*
X59680000Y-127720000D03*
%TO.N,NRST*%
X59680000Y-125180000D03*
%TD*%
D15*
%TO.N,USART1_RX*%
%TO.C,TELEM*%
X26570000Y-125370000D03*
%TO.N,USART1_TX*%
X26570000Y-122830000D03*
%TO.N,GND*%
X26570000Y-120290000D03*
D14*
%TO.N,+3V3*%
X26570000Y-117750000D03*
%TD*%
D17*
%TO.N,GND*%
X40380000Y-131670000D03*
D18*
X47630000Y-140300000D03*
D17*
X60030000Y-112250000D03*
X51030000Y-115350000D03*
D19*
X30090000Y-115330000D03*
X30090000Y-114430000D03*
X32430000Y-114450000D03*
X31540000Y-116300000D03*
X33430000Y-114450000D03*
D18*
X29440000Y-112580000D03*
X29440000Y-111730000D03*
X29440000Y-110930000D03*
X30140000Y-110930000D03*
X30140000Y-111730000D03*
X30140000Y-112580000D03*
X32300000Y-110150000D03*
X48330000Y-121450000D03*
X53680000Y-114550000D03*
X58330000Y-117600000D03*
X51480000Y-147750000D03*
X60630000Y-147700000D03*
X59130000Y-117650000D03*
X48930000Y-114750000D03*
X44950000Y-118810000D03*
X49330000Y-115750000D03*
X48880000Y-119350000D03*
X42480000Y-120950000D03*
X37330000Y-118920000D03*
X30630000Y-117350000D03*
D17*
X35030000Y-119150000D03*
D18*
X34030000Y-148550000D03*
X33030000Y-148550000D03*
X32230000Y-137850000D03*
X37830000Y-135350000D03*
X37830000Y-133300000D03*
X56080000Y-137200000D03*
X56080000Y-136400000D03*
X56110000Y-134040000D03*
X56120000Y-133000000D03*
X50980000Y-119250000D03*
X43030000Y-142700000D03*
X43790000Y-142700000D03*
X43780000Y-143530000D03*
X43030000Y-143500000D03*
D17*
X29800000Y-137740000D03*
X30130000Y-135600000D03*
X46840000Y-118610000D03*
X34670000Y-125290000D03*
X29980000Y-120300000D03*
X33140000Y-122110000D03*
X32620000Y-122100000D03*
X34670000Y-124790000D03*
D18*
X33590000Y-134640000D03*
X48030000Y-139150000D03*
X47990000Y-138250000D03*
X52230000Y-128050000D03*
X52230000Y-127250000D03*
X49030000Y-125350000D03*
X36280000Y-125150000D03*
X48170000Y-136640000D03*
X36480000Y-139600000D03*
X35450000Y-124450000D03*
X32680000Y-134660000D03*
D17*
X38780000Y-127500000D03*
X31880000Y-131660000D03*
X34290000Y-126260000D03*
X32280000Y-119530000D03*
X35880000Y-117000000D03*
X36530000Y-116650000D03*
X38780000Y-139650000D03*
D18*
X57480000Y-109400000D03*
D17*
X37730000Y-146000000D03*
X41555000Y-131675000D03*
X42130000Y-131675000D03*
X42730000Y-131675000D03*
X40990000Y-131675000D03*
D18*
X58230000Y-104050000D03*
X59180000Y-104075000D03*
X60180000Y-104050000D03*
X61130000Y-104050000D03*
X58205000Y-103150000D03*
X59155000Y-103150000D03*
X60130000Y-103125000D03*
X61080000Y-103100000D03*
D19*
X30405000Y-142200000D03*
X31730000Y-142200000D03*
X33130000Y-142200000D03*
X30430000Y-143500000D03*
X31730000Y-143500000D03*
X33130000Y-143500000D03*
X30430000Y-144900000D03*
X31730000Y-144900000D03*
X33130000Y-144900000D03*
X55430000Y-122300000D03*
X56630000Y-122300000D03*
X55430000Y-123500000D03*
X56630000Y-123500000D03*
X60230000Y-138600000D03*
X61830000Y-138600000D03*
X60230000Y-139900000D03*
X61830000Y-139900000D03*
X55730000Y-110600000D03*
X56830000Y-110800000D03*
X42670000Y-147220000D03*
X60930000Y-120400000D03*
X62030000Y-120400000D03*
X60930000Y-121400000D03*
X62030000Y-121400000D03*
D17*
X26330000Y-104400000D03*
X26930000Y-104400000D03*
D18*
%TO.N,+3V3*%
X50130000Y-147750000D03*
X59230000Y-147700000D03*
X41580000Y-123650000D03*
X37070000Y-122220000D03*
D17*
X50730000Y-130100000D03*
X51250000Y-130030000D03*
D18*
X50530000Y-118100000D03*
D19*
X34710000Y-116640000D03*
D17*
X34780000Y-120750000D03*
D18*
X51030000Y-120550000D03*
D17*
X29080000Y-135600000D03*
X31280000Y-119550000D03*
X33200000Y-123190000D03*
X34130000Y-121750000D03*
X32430000Y-125340000D03*
X30680000Y-123300000D03*
X31180000Y-123300000D03*
D18*
X48930000Y-140650000D03*
X31530000Y-134620000D03*
X37530000Y-125270000D03*
X37730000Y-139650000D03*
X36220000Y-126260000D03*
X47910000Y-125460000D03*
X47030000Y-136450000D03*
X41370000Y-120920000D03*
X47780000Y-114900000D03*
X45740000Y-117980000D03*
D19*
X32630000Y-111450000D03*
X33680000Y-111500000D03*
X34630000Y-112950000D03*
X34630000Y-111900000D03*
D17*
X32280000Y-118400000D03*
D18*
X37630000Y-142800000D03*
D17*
X37730000Y-144950000D03*
D19*
%TO.N,VCC*%
X26130000Y-108800000D03*
X27230000Y-108800000D03*
D18*
%TO.N,NRST*%
X34730000Y-137850000D03*
D17*
X34730000Y-132750000D03*
X45330000Y-130600000D03*
X45330000Y-132750000D03*
D18*
%TO.N,USART2_TX*%
X39130000Y-134750000D03*
%TO.N,I2C1_SDA*%
X36230000Y-120900000D03*
X40390000Y-120490000D03*
X47700000Y-119210000D03*
X45530000Y-122400000D03*
X38930000Y-123600000D03*
%TO.N,FLASH_MISO*%
X48630000Y-143800000D03*
X40730000Y-138100000D03*
D17*
%TO.N,MAGNET_INT*%
X36330000Y-117950000D03*
X39530000Y-126750000D03*
%TO.N,BOOT0*%
X59980000Y-146100000D03*
X40080000Y-129800000D03*
%TO.N,BOOT1*%
X52680000Y-145400000D03*
X43730000Y-135350000D03*
D18*
%TO.N,TIM2_CH1*%
X45270000Y-128180000D03*
%TO.N,TIM2_CH2*%
X42780000Y-130250000D03*
%TO.N,TIM2_CH3*%
X43910000Y-131150000D03*
%TO.N,TIM2_CH4*%
X44770000Y-131780000D03*
%TO.N,UART4_TX*%
X31200000Y-135960000D03*
D17*
%TO.N,USART1_RX*%
X40780000Y-128170000D03*
%TO.N,USART1_TX*%
X41260000Y-127610000D03*
%TO.N,INT_ACC*%
X30130000Y-126250000D03*
X37730000Y-127150000D03*
%TO.N,INT_GYR*%
X31730000Y-124750000D03*
X38230000Y-126650000D03*
%TO.N,BARO_INT*%
X49830000Y-117250000D03*
X42030000Y-126850000D03*
%TD*%
D20*
%TO.N,GND*%
X61440000Y-142880000D02*
X61440000Y-142710000D01*
X61440000Y-142710000D02*
X60630000Y-141900000D01*
X60630000Y-141900000D02*
X60630000Y-142500000D01*
X60630000Y-142500000D02*
X60630000Y-143900000D01*
X60630000Y-143900000D02*
X60730000Y-144000000D01*
X60730000Y-144000000D02*
X61830000Y-144000000D01*
X61830000Y-144000000D02*
X62330000Y-143500000D01*
X62330000Y-143500000D02*
X62429999Y-143400001D01*
X62429999Y-143400001D02*
X62429999Y-142099999D01*
X62429999Y-142099999D02*
X62130000Y-141800000D01*
X62130000Y-141800000D02*
X61330000Y-141800000D01*
X42670000Y-149350000D02*
X42670000Y-148540000D01*
X42670000Y-148540000D02*
X42510000Y-148700000D01*
X42510000Y-148700000D02*
X42510000Y-148480000D01*
X42510000Y-148480000D02*
X42430000Y-148400000D01*
X41930000Y-148400000D02*
X41680001Y-148649999D01*
X42430000Y-148400000D02*
X41930000Y-148400000D01*
X41680001Y-148649999D02*
X41680001Y-149400000D01*
X41680001Y-149400000D02*
X41680001Y-150149999D01*
X41680001Y-150149999D02*
X41930002Y-150400000D01*
X41930002Y-150400000D02*
X43330000Y-150400000D01*
X43330000Y-150400000D02*
X43630000Y-150100000D01*
X43630000Y-150100000D02*
X43630000Y-148700000D01*
X43630000Y-148700000D02*
X43630000Y-148500000D01*
X43630000Y-148500000D02*
X43230000Y-148100000D01*
X26470000Y-145880000D02*
X25710000Y-145880000D01*
X25710000Y-145880000D02*
X25530000Y-145700000D01*
X25530000Y-145700000D02*
X25530000Y-145000000D01*
X26470000Y-145240000D02*
X26130000Y-144900000D01*
X26470000Y-145880000D02*
X26470000Y-145240000D01*
X26230000Y-144900000D02*
X26239999Y-144890001D01*
X26130000Y-144900000D02*
X26230000Y-144900000D01*
X26239999Y-144890001D02*
X27220001Y-144890001D01*
X27220001Y-144890001D02*
X27430000Y-145100000D01*
X27430000Y-145100000D02*
X27430000Y-145800000D01*
X27430000Y-145800000D02*
X27430000Y-146500000D01*
X27230000Y-146500000D02*
X26860001Y-146869999D01*
X27430000Y-146500000D02*
X27230000Y-146500000D01*
X26860001Y-146869999D02*
X25830000Y-146869999D01*
X25830000Y-146869999D02*
X25830000Y-146800000D01*
X25830000Y-146800000D02*
X25230000Y-146200000D01*
X26570000Y-120290000D02*
X26020000Y-120290000D01*
X26020000Y-120290000D02*
X25630000Y-119900000D01*
X25630000Y-119500000D02*
X25829999Y-119300001D01*
X25630000Y-119900000D02*
X25630000Y-119500000D01*
X25829999Y-119300001D02*
X26430000Y-119300001D01*
X26570000Y-119360000D02*
X26629999Y-119300001D01*
X26570000Y-120290000D02*
X26570000Y-119360000D01*
X26629999Y-119300001D02*
X27330001Y-119300001D01*
X27330001Y-119300001D02*
X27630000Y-119600000D01*
X27630000Y-119600000D02*
X27630000Y-120700000D01*
X27630000Y-120700000D02*
X27230000Y-121100000D01*
X27230000Y-121100000D02*
X25630000Y-121100000D01*
X25630000Y-121100000D02*
X25630000Y-120700000D01*
X25130000Y-110000000D02*
X26130000Y-110000000D01*
X24930000Y-112100000D02*
X24430000Y-111600000D01*
X25030000Y-109900000D02*
X25130000Y-110000000D01*
X26530000Y-111400000D02*
X25830000Y-112100000D01*
X26530000Y-110400000D02*
X26530000Y-111300000D01*
X25830000Y-112100000D02*
X24930000Y-112100000D01*
X24330000Y-110600000D02*
X25030000Y-109900000D01*
X24840000Y-111110000D02*
X24330000Y-110600000D01*
X26130000Y-110000000D02*
X26530000Y-110400000D01*
X26530000Y-111300000D02*
X26530000Y-111400000D01*
X25330000Y-111110000D02*
X24840000Y-111110000D01*
%TD*%
D21*
%TO.N,GND*%
X30098748Y-102140843D02*
X29848645Y-102289822D01*
X29632412Y-102484731D01*
X29458359Y-102718080D01*
X29333175Y-102980901D01*
X29288524Y-103128110D01*
X29409845Y-103358000D01*
X30603000Y-103358000D01*
X30603000Y-103338000D01*
X30857000Y-103338000D01*
X30857000Y-103358000D01*
X32050155Y-103358000D01*
X32171476Y-103128110D01*
X32126825Y-102980901D01*
X32001641Y-102718080D01*
X31827588Y-102484731D01*
X31611355Y-102289822D01*
X31361252Y-102140843D01*
X31203828Y-102085000D01*
X34012068Y-102085000D01*
X33753081Y-102208358D01*
X33519732Y-102382411D01*
X33324823Y-102598644D01*
X33175844Y-102848747D01*
X33078520Y-103123108D01*
X33199187Y-103352999D01*
X34393001Y-103352999D01*
X34393001Y-103332999D01*
X34647001Y-103332999D01*
X34647001Y-103352999D01*
X36933001Y-103352999D01*
X36933001Y-103332999D01*
X37187001Y-103332999D01*
X37187001Y-103352999D01*
X39473001Y-103352999D01*
X39473001Y-103332999D01*
X39727001Y-103332999D01*
X39727001Y-103352999D01*
X42013001Y-103352999D01*
X42013001Y-103332999D01*
X42267001Y-103332999D01*
X42267001Y-103352999D01*
X44553001Y-103352999D01*
X44553001Y-103332999D01*
X44807001Y-103332999D01*
X44807001Y-103352999D01*
X47093001Y-103352999D01*
X47093001Y-103332999D01*
X47347001Y-103332999D01*
X47347001Y-103352999D01*
X49633001Y-103352999D01*
X49633001Y-103332999D01*
X49887001Y-103332999D01*
X49887001Y-103352999D01*
X52173001Y-103352999D01*
X52173001Y-103332999D01*
X52427001Y-103332999D01*
X52427001Y-103352999D01*
X53620815Y-103352999D01*
X53741482Y-103123108D01*
X53644158Y-102848747D01*
X53495179Y-102598644D01*
X53300270Y-102382411D01*
X53066921Y-102208358D01*
X52807934Y-102085000D01*
X64094053Y-102085000D01*
X64375021Y-102112549D01*
X64610712Y-102183708D01*
X64828089Y-102299291D01*
X65018879Y-102454895D01*
X65175811Y-102644593D01*
X65292906Y-102861157D01*
X65365709Y-103096344D01*
X65395000Y-103375028D01*
X65395001Y-141739982D01*
X65360537Y-141675506D01*
X65281185Y-141578815D01*
X65184494Y-141499463D01*
X65074180Y-141440498D01*
X64954482Y-141404188D01*
X64830000Y-141391928D01*
X63130000Y-141391928D01*
X63005518Y-141404188D01*
X62885820Y-141440498D01*
X62775506Y-141499463D01*
X62678815Y-141578815D01*
X62599463Y-141675506D01*
X62540498Y-141785820D01*
X62516034Y-141866466D01*
X62440269Y-141782412D01*
X62206920Y-141608359D01*
X61944099Y-141483175D01*
X61796890Y-141438524D01*
X61567000Y-141559845D01*
X61567000Y-142753000D01*
X61587000Y-142753000D01*
X61587000Y-143007000D01*
X61567000Y-143007000D01*
X61567000Y-144200155D01*
X61796890Y-144321476D01*
X61944099Y-144276825D01*
X62206920Y-144151641D01*
X62440269Y-143977588D01*
X62516034Y-143893534D01*
X62540498Y-143974180D01*
X62599463Y-144084494D01*
X62678815Y-144181185D01*
X62775506Y-144260537D01*
X62885820Y-144319502D01*
X63005518Y-144355812D01*
X63130000Y-144368072D01*
X64830000Y-144368072D01*
X64954482Y-144355812D01*
X65074180Y-144319502D01*
X65184494Y-144260537D01*
X65281185Y-144181185D01*
X65360537Y-144084494D01*
X65395001Y-144020018D01*
X65395001Y-149284043D01*
X65367451Y-149565021D01*
X65296291Y-149800712D01*
X65180711Y-150018088D01*
X65025104Y-150208879D01*
X64835408Y-150365811D01*
X64618843Y-150482906D01*
X64383656Y-150555709D01*
X64104783Y-150585020D01*
X46554377Y-150598555D01*
X46590537Y-150554494D01*
X46649502Y-150444180D01*
X46685812Y-150324482D01*
X46698072Y-150200000D01*
X46698072Y-149373137D01*
X49015000Y-149373137D01*
X49015000Y-149586863D01*
X49056696Y-149796483D01*
X49138485Y-149993940D01*
X49257225Y-150171647D01*
X49408353Y-150322775D01*
X49586060Y-150441515D01*
X49783517Y-150523304D01*
X49993137Y-150565000D01*
X50206863Y-150565000D01*
X50416483Y-150523304D01*
X50613940Y-150441515D01*
X50791647Y-150322775D01*
X50942775Y-150171647D01*
X51061515Y-149993940D01*
X51143304Y-149796483D01*
X51185000Y-149586863D01*
X51185000Y-149373137D01*
X52015000Y-149373137D01*
X52015000Y-149586863D01*
X52056696Y-149796483D01*
X52138485Y-149993940D01*
X52257225Y-150171647D01*
X52408353Y-150322775D01*
X52586060Y-150441515D01*
X52783517Y-150523304D01*
X52993137Y-150565000D01*
X53206863Y-150565000D01*
X53416483Y-150523304D01*
X53613940Y-150441515D01*
X53791647Y-150322775D01*
X53942775Y-150171647D01*
X54061515Y-149993940D01*
X54143304Y-149796483D01*
X54185000Y-149586863D01*
X54185000Y-149373137D01*
X54176049Y-149328137D01*
X58040000Y-149328137D01*
X58040000Y-149541863D01*
X58081696Y-149751483D01*
X58163485Y-149948940D01*
X58282225Y-150126647D01*
X58433353Y-150277775D01*
X58611060Y-150396515D01*
X58808517Y-150478304D01*
X59018137Y-150520000D01*
X59231863Y-150520000D01*
X59441483Y-150478304D01*
X59638940Y-150396515D01*
X59816647Y-150277775D01*
X59967775Y-150126647D01*
X60086515Y-149948940D01*
X60168304Y-149751483D01*
X60210000Y-149541863D01*
X60210000Y-149328137D01*
X61040000Y-149328137D01*
X61040000Y-149541863D01*
X61081696Y-149751483D01*
X61163485Y-149948940D01*
X61282225Y-150126647D01*
X61433353Y-150277775D01*
X61611060Y-150396515D01*
X61808517Y-150478304D01*
X62018137Y-150520000D01*
X62231863Y-150520000D01*
X62441483Y-150478304D01*
X62638940Y-150396515D01*
X62816647Y-150277775D01*
X62967775Y-150126647D01*
X63086515Y-149948940D01*
X63168304Y-149751483D01*
X63210000Y-149541863D01*
X63210000Y-149328137D01*
X63168304Y-149118517D01*
X63086515Y-148921060D01*
X62967775Y-148743353D01*
X62816647Y-148592225D01*
X62638940Y-148473485D01*
X62441483Y-148391696D01*
X62231863Y-148350000D01*
X62018137Y-148350000D01*
X61808517Y-148391696D01*
X61611060Y-148473485D01*
X61433353Y-148592225D01*
X61282225Y-148743353D01*
X61163485Y-148921060D01*
X61081696Y-149118517D01*
X61040000Y-149328137D01*
X60210000Y-149328137D01*
X60168304Y-149118517D01*
X60086515Y-148921060D01*
X59967775Y-148743353D01*
X59816647Y-148592225D01*
X59697147Y-148512378D01*
X59826028Y-148426262D01*
X59956262Y-148296028D01*
X60058586Y-148142889D01*
X60129068Y-147972729D01*
X60165000Y-147792089D01*
X60165000Y-147607911D01*
X60129068Y-147427271D01*
X60058586Y-147257111D01*
X59956262Y-147103972D01*
X59826028Y-146973738D01*
X59693260Y-146885025D01*
X59736440Y-146902911D01*
X59897760Y-146935000D01*
X60062240Y-146935000D01*
X60223560Y-146902911D01*
X60375521Y-146839967D01*
X60512281Y-146748587D01*
X60628587Y-146632281D01*
X60719967Y-146495521D01*
X60782911Y-146343560D01*
X60815000Y-146182240D01*
X60815000Y-146017760D01*
X60782911Y-145856440D01*
X60719967Y-145704479D01*
X60628587Y-145567719D01*
X60512281Y-145451413D01*
X60375521Y-145360033D01*
X60223560Y-145297089D01*
X60062240Y-145265000D01*
X59897760Y-145265000D01*
X59736440Y-145297089D01*
X59584479Y-145360033D01*
X59447719Y-145451413D01*
X59331413Y-145567719D01*
X59240033Y-145704479D01*
X59177089Y-145856440D01*
X59145000Y-146017760D01*
X59145000Y-146182240D01*
X59177089Y-146343560D01*
X59240033Y-146495521D01*
X59331413Y-146632281D01*
X59447719Y-146748587D01*
X59564109Y-146826356D01*
X59502729Y-146800932D01*
X59322089Y-146765000D01*
X59137911Y-146765000D01*
X58957271Y-146800932D01*
X58787111Y-146871414D01*
X58633972Y-146973738D01*
X58503738Y-147103972D01*
X58401414Y-147257111D01*
X58330932Y-147427271D01*
X58295000Y-147607911D01*
X58295000Y-147792089D01*
X58330932Y-147972729D01*
X58401414Y-148142889D01*
X58503738Y-148296028D01*
X58633972Y-148426262D01*
X58668832Y-148449555D01*
X58611060Y-148473485D01*
X58433353Y-148592225D01*
X58282225Y-148743353D01*
X58163485Y-148921060D01*
X58081696Y-149118517D01*
X58040000Y-149328137D01*
X54176049Y-149328137D01*
X54143304Y-149163517D01*
X54061515Y-148966060D01*
X53942775Y-148788353D01*
X53791647Y-148637225D01*
X53613940Y-148518485D01*
X53416483Y-148436696D01*
X53206863Y-148395000D01*
X52993137Y-148395000D01*
X52783517Y-148436696D01*
X52586060Y-148518485D01*
X52408353Y-148637225D01*
X52257225Y-148788353D01*
X52138485Y-148966060D01*
X52056696Y-149163517D01*
X52015000Y-149373137D01*
X51185000Y-149373137D01*
X51143304Y-149163517D01*
X51061515Y-148966060D01*
X50942775Y-148788353D01*
X50791647Y-148637225D01*
X50638388Y-148534821D01*
X50726028Y-148476262D01*
X50856262Y-148346028D01*
X50958586Y-148192889D01*
X51029068Y-148022729D01*
X51065000Y-147842089D01*
X51065000Y-147657911D01*
X51029068Y-147477271D01*
X50958586Y-147307111D01*
X50856262Y-147153972D01*
X50726028Y-147023738D01*
X50572889Y-146921414D01*
X50402729Y-146850932D01*
X50222089Y-146815000D01*
X50037911Y-146815000D01*
X49857271Y-146850932D01*
X49687111Y-146921414D01*
X49533972Y-147023738D01*
X49403738Y-147153972D01*
X49301414Y-147307111D01*
X49230932Y-147477271D01*
X49195000Y-147657911D01*
X49195000Y-147842089D01*
X49230932Y-148022729D01*
X49301414Y-148192889D01*
X49403738Y-148346028D01*
X49533972Y-148476262D01*
X49592914Y-148515646D01*
X49586060Y-148518485D01*
X49408353Y-148637225D01*
X49257225Y-148788353D01*
X49138485Y-148966060D01*
X49056696Y-149163517D01*
X49015000Y-149373137D01*
X46698072Y-149373137D01*
X46698072Y-148500000D01*
X46685812Y-148375518D01*
X46649502Y-148255820D01*
X46590537Y-148145506D01*
X46511185Y-148048815D01*
X46414494Y-147969463D01*
X46304180Y-147910498D01*
X46184482Y-147874188D01*
X46060000Y-147861928D01*
X44360000Y-147861928D01*
X44235518Y-147874188D01*
X44115820Y-147910498D01*
X44005506Y-147969463D01*
X43908815Y-148048815D01*
X43829463Y-148145506D01*
X43770498Y-148255820D01*
X43746034Y-148336466D01*
X43670269Y-148252412D01*
X43436920Y-148078359D01*
X43174099Y-147953175D01*
X43026890Y-147908524D01*
X42797000Y-148029845D01*
X42797000Y-149223000D01*
X42817000Y-149223000D01*
X42817000Y-149477000D01*
X42797000Y-149477000D01*
X42797000Y-149497000D01*
X42543000Y-149497000D01*
X42543000Y-149477000D01*
X42523000Y-149477000D01*
X42523000Y-149223000D01*
X42543000Y-149223000D01*
X42543000Y-148029845D01*
X42313110Y-147908524D01*
X42165901Y-147953175D01*
X41903080Y-148078359D01*
X41669731Y-148252412D01*
X41474822Y-148468645D01*
X41405195Y-148585534D01*
X41283475Y-148403368D01*
X41076632Y-148196525D01*
X40833411Y-148034010D01*
X40563158Y-147922068D01*
X40276260Y-147865000D01*
X39983740Y-147865000D01*
X39696842Y-147922068D01*
X39426589Y-148034010D01*
X39183368Y-148196525D01*
X38976525Y-148403368D01*
X38860000Y-148577760D01*
X38743475Y-148403368D01*
X38536632Y-148196525D01*
X38293411Y-148034010D01*
X38023158Y-147922068D01*
X37736260Y-147865000D01*
X37443740Y-147865000D01*
X37156842Y-147922068D01*
X36886589Y-148034010D01*
X36643368Y-148196525D01*
X36436525Y-148403368D01*
X36274010Y-148646589D01*
X36162068Y-148916842D01*
X36105000Y-149203740D01*
X36105000Y-149496260D01*
X36162068Y-149783158D01*
X36274010Y-150053411D01*
X36436525Y-150296632D01*
X36643368Y-150503475D01*
X36796927Y-150606080D01*
X25265674Y-150614973D01*
X24984979Y-150587451D01*
X24749288Y-150516291D01*
X24531912Y-150400711D01*
X24341121Y-150245104D01*
X24184189Y-150055408D01*
X24067094Y-149838843D01*
X23994291Y-149603656D01*
X23964983Y-149324814D01*
X23963839Y-147570000D01*
X24981928Y-147570000D01*
X24981928Y-149270000D01*
X24994188Y-149394482D01*
X25030498Y-149514180D01*
X25089463Y-149624494D01*
X25168815Y-149721185D01*
X25265506Y-149800537D01*
X25375820Y-149859502D01*
X25495518Y-149895812D01*
X25620000Y-149908072D01*
X27320000Y-149908072D01*
X27444482Y-149895812D01*
X27564180Y-149859502D01*
X27674494Y-149800537D01*
X27771185Y-149721185D01*
X27850537Y-149624494D01*
X27909502Y-149514180D01*
X27945812Y-149394482D01*
X27958072Y-149270000D01*
X27958072Y-147570000D01*
X27945812Y-147445518D01*
X27909502Y-147325820D01*
X27850537Y-147215506D01*
X27771185Y-147118815D01*
X27674494Y-147039463D01*
X27564180Y-146980498D01*
X27483534Y-146956034D01*
X27567588Y-146880269D01*
X27741641Y-146646920D01*
X27866825Y-146384099D01*
X27911476Y-146236890D01*
X27790155Y-146007000D01*
X26597000Y-146007000D01*
X26597000Y-146027000D01*
X26343000Y-146027000D01*
X26343000Y-146007000D01*
X25149845Y-146007000D01*
X25028524Y-146236890D01*
X25073175Y-146384099D01*
X25198359Y-146646920D01*
X25372412Y-146880269D01*
X25456466Y-146956034D01*
X25375820Y-146980498D01*
X25265506Y-147039463D01*
X25168815Y-147118815D01*
X25089463Y-147215506D01*
X25030498Y-147325820D01*
X24994188Y-147445518D01*
X24981928Y-147570000D01*
X23963839Y-147570000D01*
X23959329Y-140653740D01*
X24985000Y-140653740D01*
X24985000Y-140946260D01*
X25042068Y-141233158D01*
X25154010Y-141503411D01*
X25316525Y-141746632D01*
X25523368Y-141953475D01*
X25697760Y-142070000D01*
X25523368Y-142186525D01*
X25316525Y-142393368D01*
X25154010Y-142636589D01*
X25042068Y-142906842D01*
X24985000Y-143193740D01*
X24985000Y-143486260D01*
X25042068Y-143773158D01*
X25154010Y-144043411D01*
X25316525Y-144286632D01*
X25523368Y-144493475D01*
X25705534Y-144615195D01*
X25588645Y-144684822D01*
X25372412Y-144879731D01*
X25198359Y-145113080D01*
X25073175Y-145375901D01*
X25028524Y-145523110D01*
X25149845Y-145753000D01*
X26343000Y-145753000D01*
X26343000Y-145733000D01*
X26597000Y-145733000D01*
X26597000Y-145753000D01*
X27790155Y-145753000D01*
X27911476Y-145523110D01*
X27866825Y-145375901D01*
X27741641Y-145113080D01*
X27567588Y-144879731D01*
X27554308Y-144867760D01*
X36895000Y-144867760D01*
X36895000Y-145032240D01*
X36927089Y-145193560D01*
X36990033Y-145345521D01*
X37081413Y-145482281D01*
X37197719Y-145598587D01*
X37334479Y-145689967D01*
X37486440Y-145752911D01*
X37647760Y-145785000D01*
X37812240Y-145785000D01*
X37973560Y-145752911D01*
X38125521Y-145689967D01*
X38262281Y-145598587D01*
X38378587Y-145482281D01*
X38469967Y-145345521D01*
X38481465Y-145317760D01*
X51845000Y-145317760D01*
X51845000Y-145482240D01*
X51877089Y-145643560D01*
X51940033Y-145795521D01*
X52031413Y-145932281D01*
X52147719Y-146048587D01*
X52284479Y-146139967D01*
X52436440Y-146202911D01*
X52597760Y-146235000D01*
X52762240Y-146235000D01*
X52923560Y-146202911D01*
X53075521Y-146139967D01*
X53212281Y-146048587D01*
X53328587Y-145932281D01*
X53419967Y-145795521D01*
X53482911Y-145643560D01*
X53515000Y-145482240D01*
X53515000Y-145317760D01*
X53482911Y-145156440D01*
X53419967Y-145004479D01*
X53328587Y-144867719D01*
X53212281Y-144751413D01*
X53075521Y-144660033D01*
X52923560Y-144597089D01*
X52762240Y-144565000D01*
X52597760Y-144565000D01*
X52436440Y-144597089D01*
X52284479Y-144660033D01*
X52147719Y-144751413D01*
X52031413Y-144867719D01*
X51940033Y-145004479D01*
X51877089Y-145156440D01*
X51845000Y-145317760D01*
X38481465Y-145317760D01*
X38532911Y-145193560D01*
X38565000Y-145032240D01*
X38565000Y-144867760D01*
X38532911Y-144706440D01*
X38469967Y-144554479D01*
X38378587Y-144417719D01*
X38262281Y-144301413D01*
X38125521Y-144210033D01*
X37973560Y-144147089D01*
X37812240Y-144115000D01*
X37647760Y-144115000D01*
X37486440Y-144147089D01*
X37334479Y-144210033D01*
X37197719Y-144301413D01*
X37081413Y-144417719D01*
X36990033Y-144554479D01*
X36927089Y-144706440D01*
X36895000Y-144867760D01*
X27554308Y-144867760D01*
X27351355Y-144684822D01*
X27234466Y-144615195D01*
X27416632Y-144493475D01*
X27623475Y-144286632D01*
X27785990Y-144043411D01*
X27897932Y-143773158D01*
X27955000Y-143486260D01*
X27955000Y-143193740D01*
X27897932Y-142906842D01*
X27815533Y-142707911D01*
X36695000Y-142707911D01*
X36695000Y-142892089D01*
X36730932Y-143072729D01*
X36801414Y-143242889D01*
X36903738Y-143396028D01*
X37033972Y-143526262D01*
X37187111Y-143628586D01*
X37357271Y-143699068D01*
X37537911Y-143735000D01*
X37722089Y-143735000D01*
X37858272Y-143707911D01*
X47695000Y-143707911D01*
X47695000Y-143892089D01*
X47730932Y-144072729D01*
X47801414Y-144242889D01*
X47903738Y-144396028D01*
X48033972Y-144526262D01*
X48187111Y-144628586D01*
X48357271Y-144699068D01*
X48537911Y-144735000D01*
X48722089Y-144735000D01*
X48902729Y-144699068D01*
X49072889Y-144628586D01*
X49226028Y-144526262D01*
X49356262Y-144396028D01*
X49458586Y-144242889D01*
X49529068Y-144072729D01*
X49565000Y-143892089D01*
X49565000Y-143707911D01*
X49529068Y-143527271D01*
X49458586Y-143357111D01*
X49356262Y-143203972D01*
X49226028Y-143073738D01*
X49072889Y-142971414D01*
X48902729Y-142900932D01*
X48722089Y-142865000D01*
X48537911Y-142865000D01*
X48357271Y-142900932D01*
X48187111Y-142971414D01*
X48033972Y-143073738D01*
X47903738Y-143203972D01*
X47801414Y-143357111D01*
X47730932Y-143527271D01*
X47695000Y-143707911D01*
X37858272Y-143707911D01*
X37902729Y-143699068D01*
X38072889Y-143628586D01*
X38226028Y-143526262D01*
X38356262Y-143396028D01*
X38458586Y-143242889D01*
X38529068Y-143072729D01*
X38565000Y-142892089D01*
X38565000Y-142733740D01*
X54875000Y-142733740D01*
X54875000Y-143026260D01*
X54932068Y-143313158D01*
X55044010Y-143583411D01*
X55206525Y-143826632D01*
X55413368Y-144033475D01*
X55656589Y-144195990D01*
X55926842Y-144307932D01*
X56213740Y-144365000D01*
X56506260Y-144365000D01*
X56793158Y-144307932D01*
X57063411Y-144195990D01*
X57306632Y-144033475D01*
X57513475Y-143826632D01*
X57630000Y-143652240D01*
X57746525Y-143826632D01*
X57953368Y-144033475D01*
X58196589Y-144195990D01*
X58466842Y-144307932D01*
X58753740Y-144365000D01*
X59046260Y-144365000D01*
X59333158Y-144307932D01*
X59603411Y-144195990D01*
X59846632Y-144033475D01*
X60053475Y-143826632D01*
X60175195Y-143644466D01*
X60244822Y-143761355D01*
X60439731Y-143977588D01*
X60673080Y-144151641D01*
X60935901Y-144276825D01*
X61083110Y-144321476D01*
X61313000Y-144200155D01*
X61313000Y-143007000D01*
X61293000Y-143007000D01*
X61293000Y-142753000D01*
X61313000Y-142753000D01*
X61313000Y-141559845D01*
X61083110Y-141438524D01*
X60935901Y-141483175D01*
X60673080Y-141608359D01*
X60439731Y-141782412D01*
X60244822Y-141998645D01*
X60175195Y-142115534D01*
X60053475Y-141933368D01*
X59846632Y-141726525D01*
X59603411Y-141564010D01*
X59333158Y-141452068D01*
X59046260Y-141395000D01*
X58753740Y-141395000D01*
X58466842Y-141452068D01*
X58196589Y-141564010D01*
X57953368Y-141726525D01*
X57746525Y-141933368D01*
X57630000Y-142107760D01*
X57513475Y-141933368D01*
X57306632Y-141726525D01*
X57063411Y-141564010D01*
X56793158Y-141452068D01*
X56506260Y-141395000D01*
X56213740Y-141395000D01*
X55926842Y-141452068D01*
X55656589Y-141564010D01*
X55413368Y-141726525D01*
X55206525Y-141933368D01*
X55044010Y-142176589D01*
X54932068Y-142446842D01*
X54875000Y-142733740D01*
X38565000Y-142733740D01*
X38565000Y-142707911D01*
X38529068Y-142527271D01*
X38458586Y-142357111D01*
X38356262Y-142203972D01*
X38226028Y-142073738D01*
X38072889Y-141971414D01*
X37902729Y-141900932D01*
X37722089Y-141865000D01*
X37537911Y-141865000D01*
X37357271Y-141900932D01*
X37187111Y-141971414D01*
X37033972Y-142073738D01*
X36903738Y-142203972D01*
X36801414Y-142357111D01*
X36730932Y-142527271D01*
X36695000Y-142707911D01*
X27815533Y-142707911D01*
X27785990Y-142636589D01*
X27623475Y-142393368D01*
X27416632Y-142186525D01*
X27242240Y-142070000D01*
X27416632Y-141953475D01*
X27623475Y-141746632D01*
X27785990Y-141503411D01*
X27897932Y-141233158D01*
X27955000Y-140946260D01*
X27955000Y-140653740D01*
X27897932Y-140366842D01*
X27785990Y-140096589D01*
X27623475Y-139853368D01*
X27416632Y-139646525D01*
X27284012Y-139557911D01*
X36795000Y-139557911D01*
X36795000Y-139742089D01*
X36830932Y-139922729D01*
X36901414Y-140092889D01*
X37003738Y-140246028D01*
X37133972Y-140376262D01*
X37287111Y-140478586D01*
X37457271Y-140549068D01*
X37637911Y-140585000D01*
X37822089Y-140585000D01*
X37958272Y-140557911D01*
X47995000Y-140557911D01*
X47995000Y-140742089D01*
X48030932Y-140922729D01*
X48101414Y-141092889D01*
X48203738Y-141246028D01*
X48333972Y-141376262D01*
X48487111Y-141478586D01*
X48657271Y-141549068D01*
X48837911Y-141585000D01*
X49022089Y-141585000D01*
X49202729Y-141549068D01*
X49372889Y-141478586D01*
X49526028Y-141376262D01*
X49656262Y-141246028D01*
X49758586Y-141092889D01*
X49829068Y-140922729D01*
X49865000Y-140742089D01*
X49865000Y-140557911D01*
X49829068Y-140377271D01*
X49758586Y-140207111D01*
X49656262Y-140053972D01*
X49526028Y-139923738D01*
X49372889Y-139821414D01*
X49202729Y-139750932D01*
X49022089Y-139715000D01*
X48837911Y-139715000D01*
X48657271Y-139750932D01*
X48487111Y-139821414D01*
X48333972Y-139923738D01*
X48203738Y-140053972D01*
X48101414Y-140207111D01*
X48030932Y-140377271D01*
X47995000Y-140557911D01*
X37958272Y-140557911D01*
X38002729Y-140549068D01*
X38172889Y-140478586D01*
X38326028Y-140376262D01*
X38456262Y-140246028D01*
X38558586Y-140092889D01*
X38629068Y-139922729D01*
X38665000Y-139742089D01*
X38665000Y-139557911D01*
X38629068Y-139377271D01*
X38558586Y-139207111D01*
X38456262Y-139053972D01*
X38326028Y-138923738D01*
X38172889Y-138821414D01*
X38002729Y-138750932D01*
X37822089Y-138715000D01*
X37637911Y-138715000D01*
X37457271Y-138750932D01*
X37287111Y-138821414D01*
X37133972Y-138923738D01*
X37003738Y-139053972D01*
X36901414Y-139207111D01*
X36830932Y-139377271D01*
X36795000Y-139557911D01*
X27284012Y-139557911D01*
X27173411Y-139484010D01*
X26903158Y-139372068D01*
X26616260Y-139315000D01*
X26323740Y-139315000D01*
X26036842Y-139372068D01*
X25766589Y-139484010D01*
X25523368Y-139646525D01*
X25316525Y-139853368D01*
X25154010Y-140096589D01*
X25042068Y-140366842D01*
X24985000Y-140653740D01*
X23959329Y-140653740D01*
X23951331Y-128390000D01*
X25011928Y-128390000D01*
X25011928Y-130090000D01*
X25024188Y-130214482D01*
X25060498Y-130334180D01*
X25119463Y-130444494D01*
X25198815Y-130541185D01*
X25295506Y-130620537D01*
X25405820Y-130679502D01*
X25478380Y-130701513D01*
X25346525Y-130833368D01*
X25184010Y-131076589D01*
X25072068Y-131346842D01*
X25015000Y-131633740D01*
X25015000Y-131926260D01*
X25072068Y-132213158D01*
X25184010Y-132483411D01*
X25346525Y-132726632D01*
X25553368Y-132933475D01*
X25727760Y-133050000D01*
X25553368Y-133166525D01*
X25346525Y-133373368D01*
X25184010Y-133616589D01*
X25072068Y-133886842D01*
X25015000Y-134173740D01*
X25015000Y-134466260D01*
X25072068Y-134753158D01*
X25184010Y-135023411D01*
X25346525Y-135266632D01*
X25553368Y-135473475D01*
X25727760Y-135590000D01*
X25553368Y-135706525D01*
X25346525Y-135913368D01*
X25184010Y-136156589D01*
X25072068Y-136426842D01*
X25015000Y-136713740D01*
X25015000Y-137006260D01*
X25072068Y-137293158D01*
X25184010Y-137563411D01*
X25346525Y-137806632D01*
X25553368Y-138013475D01*
X25796589Y-138175990D01*
X26066842Y-138287932D01*
X26353740Y-138345000D01*
X26646260Y-138345000D01*
X26933158Y-138287932D01*
X27203411Y-138175990D01*
X27446632Y-138013475D01*
X27653475Y-137806632D01*
X27686029Y-137757911D01*
X33795000Y-137757911D01*
X33795000Y-137942089D01*
X33830932Y-138122729D01*
X33901414Y-138292889D01*
X34003738Y-138446028D01*
X34133972Y-138576262D01*
X34287111Y-138678586D01*
X34457271Y-138749068D01*
X34637911Y-138785000D01*
X34822089Y-138785000D01*
X35002729Y-138749068D01*
X35172889Y-138678586D01*
X35326028Y-138576262D01*
X35456262Y-138446028D01*
X35558586Y-138292889D01*
X35629068Y-138122729D01*
X35651907Y-138007911D01*
X39795000Y-138007911D01*
X39795000Y-138192089D01*
X39830932Y-138372729D01*
X39901414Y-138542889D01*
X40003738Y-138696028D01*
X40133972Y-138826262D01*
X40287111Y-138928586D01*
X40457271Y-138999068D01*
X40637911Y-139035000D01*
X40822089Y-139035000D01*
X41002729Y-138999068D01*
X41172889Y-138928586D01*
X41326028Y-138826262D01*
X41456262Y-138696028D01*
X41558586Y-138542889D01*
X41629068Y-138372729D01*
X41665000Y-138192089D01*
X41665000Y-138007911D01*
X41629068Y-137827271D01*
X41558586Y-137657111D01*
X41456262Y-137503972D01*
X41326028Y-137373738D01*
X41172889Y-137271414D01*
X41002729Y-137200932D01*
X40822089Y-137165000D01*
X40637911Y-137165000D01*
X40457271Y-137200932D01*
X40287111Y-137271414D01*
X40133972Y-137373738D01*
X40003738Y-137503972D01*
X39901414Y-137657111D01*
X39830932Y-137827271D01*
X39795000Y-138007911D01*
X35651907Y-138007911D01*
X35665000Y-137942089D01*
X35665000Y-137757911D01*
X35629068Y-137577271D01*
X35558586Y-137407111D01*
X35456262Y-137253972D01*
X35326028Y-137123738D01*
X35172889Y-137021414D01*
X35002729Y-136950932D01*
X34822089Y-136915000D01*
X34637911Y-136915000D01*
X34457271Y-136950932D01*
X34287111Y-137021414D01*
X34133972Y-137123738D01*
X34003738Y-137253972D01*
X33901414Y-137407111D01*
X33830932Y-137577271D01*
X33795000Y-137757911D01*
X27686029Y-137757911D01*
X27815990Y-137563411D01*
X27927932Y-137293158D01*
X27985000Y-137006260D01*
X27985000Y-136713740D01*
X27927932Y-136426842D01*
X27815990Y-136156589D01*
X27653475Y-135913368D01*
X27446632Y-135706525D01*
X27272240Y-135590000D01*
X27380354Y-135517760D01*
X28245000Y-135517760D01*
X28245000Y-135682240D01*
X28277089Y-135843560D01*
X28340033Y-135995521D01*
X28431413Y-136132281D01*
X28547719Y-136248587D01*
X28684479Y-136339967D01*
X28836440Y-136402911D01*
X28997760Y-136435000D01*
X29162240Y-136435000D01*
X29323560Y-136402911D01*
X29475521Y-136339967D01*
X29612281Y-136248587D01*
X29728587Y-136132281D01*
X29819967Y-135995521D01*
X29872824Y-135867911D01*
X30265000Y-135867911D01*
X30265000Y-136052089D01*
X30300932Y-136232729D01*
X30371414Y-136402889D01*
X30473738Y-136556028D01*
X30603972Y-136686262D01*
X30757111Y-136788586D01*
X30927271Y-136859068D01*
X31107911Y-136895000D01*
X31292089Y-136895000D01*
X31472729Y-136859068D01*
X31642889Y-136788586D01*
X31796028Y-136686262D01*
X31926262Y-136556028D01*
X32028586Y-136402889D01*
X32047216Y-136357911D01*
X46095000Y-136357911D01*
X46095000Y-136542089D01*
X46130932Y-136722729D01*
X46201414Y-136892889D01*
X46303738Y-137046028D01*
X46433972Y-137176262D01*
X46587111Y-137278586D01*
X46757271Y-137349068D01*
X46937911Y-137385000D01*
X47122089Y-137385000D01*
X47302729Y-137349068D01*
X47472889Y-137278586D01*
X47626028Y-137176262D01*
X47756262Y-137046028D01*
X47858586Y-136892889D01*
X47929068Y-136722729D01*
X47965000Y-136542089D01*
X47965000Y-136357911D01*
X47929068Y-136177271D01*
X47858586Y-136007111D01*
X47756262Y-135853972D01*
X47626028Y-135723738D01*
X47472889Y-135621414D01*
X47302729Y-135550932D01*
X47122089Y-135515000D01*
X46937911Y-135515000D01*
X46757271Y-135550932D01*
X46587111Y-135621414D01*
X46433972Y-135723738D01*
X46303738Y-135853972D01*
X46201414Y-136007111D01*
X46130932Y-136177271D01*
X46095000Y-136357911D01*
X32047216Y-136357911D01*
X32099068Y-136232729D01*
X32135000Y-136052089D01*
X32135000Y-135867911D01*
X32099068Y-135687271D01*
X32028586Y-135517111D01*
X31979740Y-135444008D01*
X32126028Y-135346262D01*
X32256262Y-135216028D01*
X32358586Y-135062889D01*
X32429068Y-134892729D01*
X32465000Y-134712089D01*
X32465000Y-134657911D01*
X38195000Y-134657911D01*
X38195000Y-134842089D01*
X38230932Y-135022729D01*
X38301414Y-135192889D01*
X38403738Y-135346028D01*
X38533972Y-135476262D01*
X38687111Y-135578586D01*
X38857271Y-135649068D01*
X39037911Y-135685000D01*
X39222089Y-135685000D01*
X39402729Y-135649068D01*
X39572889Y-135578586D01*
X39726028Y-135476262D01*
X39856262Y-135346028D01*
X39908558Y-135267760D01*
X42895000Y-135267760D01*
X42895000Y-135432240D01*
X42927089Y-135593560D01*
X42990033Y-135745521D01*
X43081413Y-135882281D01*
X43197719Y-135998587D01*
X43334479Y-136089967D01*
X43486440Y-136152911D01*
X43647760Y-136185000D01*
X43812240Y-136185000D01*
X43973560Y-136152911D01*
X44125521Y-136089967D01*
X44262281Y-135998587D01*
X44378587Y-135882281D01*
X44469967Y-135745521D01*
X44532911Y-135593560D01*
X44565000Y-135432240D01*
X44565000Y-135267760D01*
X44532911Y-135106440D01*
X44469967Y-134954479D01*
X44378587Y-134817719D01*
X44262281Y-134701413D01*
X44125521Y-134610033D01*
X43973560Y-134547089D01*
X43812240Y-134515000D01*
X43647760Y-134515000D01*
X43486440Y-134547089D01*
X43334479Y-134610033D01*
X43197719Y-134701413D01*
X43081413Y-134817719D01*
X42990033Y-134954479D01*
X42927089Y-135106440D01*
X42895000Y-135267760D01*
X39908558Y-135267760D01*
X39958586Y-135192889D01*
X40029068Y-135022729D01*
X40065000Y-134842089D01*
X40065000Y-134657911D01*
X40029068Y-134477271D01*
X39958586Y-134307111D01*
X39856262Y-134153972D01*
X39726028Y-134023738D01*
X39572889Y-133921414D01*
X39402729Y-133850932D01*
X39222089Y-133815000D01*
X39037911Y-133815000D01*
X38857271Y-133850932D01*
X38687111Y-133921414D01*
X38533972Y-134023738D01*
X38403738Y-134153972D01*
X38301414Y-134307111D01*
X38230932Y-134477271D01*
X38195000Y-134657911D01*
X32465000Y-134657911D01*
X32465000Y-134527911D01*
X32429068Y-134347271D01*
X32358586Y-134177111D01*
X32256262Y-134023972D01*
X32126028Y-133893738D01*
X31972889Y-133791414D01*
X31802729Y-133720932D01*
X31622089Y-133685000D01*
X31437911Y-133685000D01*
X31257271Y-133720932D01*
X31087111Y-133791414D01*
X30933972Y-133893738D01*
X30803738Y-134023972D01*
X30701414Y-134177111D01*
X30630932Y-134347271D01*
X30595000Y-134527911D01*
X30595000Y-134712089D01*
X30630932Y-134892729D01*
X30701414Y-135062889D01*
X30750260Y-135135992D01*
X30603972Y-135233738D01*
X30473738Y-135363972D01*
X30371414Y-135517111D01*
X30300932Y-135687271D01*
X30265000Y-135867911D01*
X29872824Y-135867911D01*
X29882911Y-135843560D01*
X29915000Y-135682240D01*
X29915000Y-135517760D01*
X29882911Y-135356440D01*
X29819967Y-135204479D01*
X29728587Y-135067719D01*
X29612281Y-134951413D01*
X29475521Y-134860033D01*
X29323560Y-134797089D01*
X29162240Y-134765000D01*
X28997760Y-134765000D01*
X28836440Y-134797089D01*
X28684479Y-134860033D01*
X28547719Y-134951413D01*
X28431413Y-135067719D01*
X28340033Y-135204479D01*
X28277089Y-135356440D01*
X28245000Y-135517760D01*
X27380354Y-135517760D01*
X27446632Y-135473475D01*
X27653475Y-135266632D01*
X27815990Y-135023411D01*
X27927932Y-134753158D01*
X27985000Y-134466260D01*
X27985000Y-134173740D01*
X27927932Y-133886842D01*
X27815990Y-133616589D01*
X27653475Y-133373368D01*
X27446632Y-133166525D01*
X27272240Y-133050000D01*
X27446632Y-132933475D01*
X27653475Y-132726632D01*
X27815990Y-132483411D01*
X27927932Y-132213158D01*
X27985000Y-131926260D01*
X27985000Y-131633740D01*
X27927932Y-131346842D01*
X27815990Y-131076589D01*
X27653475Y-130833368D01*
X27521620Y-130701513D01*
X27594180Y-130679502D01*
X27704494Y-130620537D01*
X27801185Y-130541185D01*
X27880537Y-130444494D01*
X27939502Y-130334180D01*
X27975812Y-130214482D01*
X27988072Y-130090000D01*
X27988072Y-128390000D01*
X27975812Y-128265518D01*
X27939502Y-128145820D01*
X27880537Y-128035506D01*
X27801185Y-127938815D01*
X27704494Y-127859463D01*
X27594180Y-127800498D01*
X27474482Y-127764188D01*
X27350000Y-127751928D01*
X25650000Y-127751928D01*
X25525518Y-127764188D01*
X25405820Y-127800498D01*
X25295506Y-127859463D01*
X25198815Y-127938815D01*
X25119463Y-128035506D01*
X25060498Y-128145820D01*
X25024188Y-128265518D01*
X25011928Y-128390000D01*
X23951331Y-128390000D01*
X23947610Y-122683740D01*
X25085000Y-122683740D01*
X25085000Y-122976260D01*
X25142068Y-123263158D01*
X25254010Y-123533411D01*
X25416525Y-123776632D01*
X25623368Y-123983475D01*
X25797760Y-124100000D01*
X25623368Y-124216525D01*
X25416525Y-124423368D01*
X25254010Y-124666589D01*
X25142068Y-124936842D01*
X25085000Y-125223740D01*
X25085000Y-125516260D01*
X25142068Y-125803158D01*
X25254010Y-126073411D01*
X25416525Y-126316632D01*
X25623368Y-126523475D01*
X25866589Y-126685990D01*
X26136842Y-126797932D01*
X26423740Y-126855000D01*
X26716260Y-126855000D01*
X27003158Y-126797932D01*
X27273411Y-126685990D01*
X27516632Y-126523475D01*
X27723475Y-126316632D01*
X27822948Y-126167760D01*
X29295000Y-126167760D01*
X29295000Y-126332240D01*
X29327089Y-126493560D01*
X29390033Y-126645521D01*
X29481413Y-126782281D01*
X29597719Y-126898587D01*
X29734479Y-126989967D01*
X29886440Y-127052911D01*
X30047760Y-127085000D01*
X30212240Y-127085000D01*
X30373560Y-127052911D01*
X30525521Y-126989967D01*
X30662281Y-126898587D01*
X30778587Y-126782281D01*
X30869967Y-126645521D01*
X30932911Y-126493560D01*
X30965000Y-126332240D01*
X30965000Y-126167760D01*
X30932911Y-126006440D01*
X30869967Y-125854479D01*
X30778587Y-125717719D01*
X30662281Y-125601413D01*
X30525521Y-125510033D01*
X30373560Y-125447089D01*
X30212240Y-125415000D01*
X30047760Y-125415000D01*
X29886440Y-125447089D01*
X29734479Y-125510033D01*
X29597719Y-125601413D01*
X29481413Y-125717719D01*
X29390033Y-125854479D01*
X29327089Y-126006440D01*
X29295000Y-126167760D01*
X27822948Y-126167760D01*
X27885990Y-126073411D01*
X27997932Y-125803158D01*
X28055000Y-125516260D01*
X28055000Y-125223740D01*
X27997932Y-124936842D01*
X27885990Y-124666589D01*
X27723475Y-124423368D01*
X27516632Y-124216525D01*
X27342240Y-124100000D01*
X27516632Y-123983475D01*
X27723475Y-123776632D01*
X27885990Y-123533411D01*
X27997932Y-123263158D01*
X28006962Y-123217760D01*
X29845000Y-123217760D01*
X29845000Y-123382240D01*
X29877089Y-123543560D01*
X29940033Y-123695521D01*
X30031413Y-123832281D01*
X30147719Y-123948587D01*
X30284479Y-124039967D01*
X30436440Y-124102911D01*
X30597760Y-124135000D01*
X30762240Y-124135000D01*
X30923560Y-124102911D01*
X30930000Y-124100243D01*
X30936440Y-124102911D01*
X31097760Y-124135000D01*
X31164132Y-124135000D01*
X31081413Y-124217719D01*
X30990033Y-124354479D01*
X30927089Y-124506440D01*
X30895000Y-124667760D01*
X30895000Y-124832240D01*
X30927089Y-124993560D01*
X30990033Y-125145521D01*
X31081413Y-125282281D01*
X31197719Y-125398587D01*
X31334479Y-125489967D01*
X31486440Y-125552911D01*
X31587433Y-125573000D01*
X31480000Y-125573000D01*
X31455224Y-125575440D01*
X31431399Y-125582667D01*
X31409443Y-125594403D01*
X31390197Y-125610197D01*
X31374403Y-125629443D01*
X31362667Y-125651399D01*
X31355440Y-125675224D01*
X31353000Y-125700000D01*
X31353000Y-131450000D01*
X31330000Y-131450000D01*
X31330000Y-131577000D01*
X31353000Y-131577000D01*
X31353000Y-131673000D01*
X31330000Y-131673000D01*
X31330000Y-131800000D01*
X31353000Y-131800000D01*
X31353000Y-132450000D01*
X31355440Y-132474776D01*
X31362667Y-132498601D01*
X31374403Y-132520557D01*
X31390197Y-132539803D01*
X31409443Y-132555597D01*
X31431399Y-132567333D01*
X31455224Y-132574560D01*
X31480000Y-132577000D01*
X33913054Y-132577000D01*
X33895000Y-132667760D01*
X33895000Y-132832240D01*
X33927089Y-132993560D01*
X33990033Y-133145521D01*
X34081413Y-133282281D01*
X34197719Y-133398587D01*
X34334479Y-133489967D01*
X34486440Y-133552911D01*
X34647760Y-133585000D01*
X34812240Y-133585000D01*
X34973560Y-133552911D01*
X35125521Y-133489967D01*
X35262281Y-133398587D01*
X35378587Y-133282281D01*
X35469967Y-133145521D01*
X35532911Y-132993560D01*
X35565000Y-132832240D01*
X35565000Y-132667760D01*
X35532911Y-132506440D01*
X35469967Y-132354479D01*
X35378587Y-132217719D01*
X35262281Y-132101413D01*
X35125521Y-132010033D01*
X35052980Y-131979986D01*
X35054560Y-131974776D01*
X35057000Y-131950000D01*
X35057000Y-130177000D01*
X37330000Y-130177000D01*
X37354776Y-130174560D01*
X37378601Y-130167333D01*
X37400557Y-130155597D01*
X37419803Y-130139803D01*
X37435597Y-130120557D01*
X37447333Y-130098601D01*
X37454560Y-130074776D01*
X37457000Y-130050000D01*
X37457000Y-129717760D01*
X39245000Y-129717760D01*
X39245000Y-129882240D01*
X39277089Y-130043560D01*
X39340033Y-130195521D01*
X39431413Y-130332281D01*
X39547719Y-130448587D01*
X39684479Y-130539967D01*
X39836440Y-130602911D01*
X39997760Y-130635000D01*
X40162240Y-130635000D01*
X40323560Y-130602911D01*
X40475521Y-130539967D01*
X40612281Y-130448587D01*
X40728587Y-130332281D01*
X40819967Y-130195521D01*
X40835545Y-130157911D01*
X41845000Y-130157911D01*
X41845000Y-130342089D01*
X41880932Y-130522729D01*
X41951414Y-130692889D01*
X42053738Y-130846028D01*
X42183972Y-130976262D01*
X42337111Y-131078586D01*
X42507271Y-131149068D01*
X42687911Y-131185000D01*
X42872089Y-131185000D01*
X42975000Y-131164529D01*
X42975000Y-131242089D01*
X43010932Y-131422729D01*
X43081414Y-131592889D01*
X43183738Y-131746028D01*
X43313972Y-131876262D01*
X43467111Y-131978586D01*
X43637271Y-132049068D01*
X43817911Y-132085000D01*
X43884299Y-132085000D01*
X43941414Y-132222889D01*
X44043738Y-132376028D01*
X44173972Y-132506262D01*
X44327111Y-132608586D01*
X44495000Y-132678127D01*
X44495000Y-132832240D01*
X44527089Y-132993560D01*
X44590033Y-133145521D01*
X44681413Y-133282281D01*
X44797719Y-133398587D01*
X44934479Y-133489967D01*
X45086440Y-133552911D01*
X45247760Y-133585000D01*
X45412240Y-133585000D01*
X45573560Y-133552911D01*
X45725521Y-133489967D01*
X45862281Y-133398587D01*
X45978587Y-133282281D01*
X46069967Y-133145521D01*
X46132911Y-132993560D01*
X46165000Y-132832240D01*
X46165000Y-132667760D01*
X46132911Y-132506440D01*
X46069967Y-132354479D01*
X45978587Y-132217719D01*
X45862281Y-132101413D01*
X45725521Y-132010033D01*
X45681212Y-131991680D01*
X45705000Y-131872089D01*
X45705000Y-131687911D01*
X45669068Y-131507271D01*
X45618185Y-131384427D01*
X45725521Y-131339967D01*
X45862281Y-131248587D01*
X45978587Y-131132281D01*
X46069967Y-130995521D01*
X46132911Y-130843560D01*
X46165000Y-130682240D01*
X46165000Y-130517760D01*
X46132911Y-130356440D01*
X46069967Y-130204479D01*
X45978587Y-130067719D01*
X45928628Y-130017760D01*
X49895000Y-130017760D01*
X49895000Y-130182240D01*
X49927089Y-130343560D01*
X49990033Y-130495521D01*
X50081413Y-130632281D01*
X50197719Y-130748587D01*
X50334479Y-130839967D01*
X50486440Y-130902911D01*
X50647760Y-130935000D01*
X50812240Y-130935000D01*
X50973560Y-130902911D01*
X51098396Y-130851202D01*
X51167760Y-130865000D01*
X51332240Y-130865000D01*
X51493560Y-130832911D01*
X51645521Y-130769967D01*
X51782281Y-130678587D01*
X51898587Y-130562281D01*
X51989967Y-130425521D01*
X52052911Y-130273560D01*
X52085000Y-130112240D01*
X52085000Y-129947760D01*
X52052911Y-129786440D01*
X51989967Y-129634479D01*
X51898587Y-129497719D01*
X51782281Y-129381413D01*
X51645521Y-129290033D01*
X51493560Y-129227089D01*
X51332240Y-129195000D01*
X51167760Y-129195000D01*
X51006440Y-129227089D01*
X50881604Y-129278798D01*
X50812240Y-129265000D01*
X50647760Y-129265000D01*
X50486440Y-129297089D01*
X50334479Y-129360033D01*
X50197719Y-129451413D01*
X50081413Y-129567719D01*
X49990033Y-129704479D01*
X49927089Y-129856440D01*
X49895000Y-130017760D01*
X45928628Y-130017760D01*
X45862281Y-129951413D01*
X45725521Y-129860033D01*
X45573560Y-129797089D01*
X45412240Y-129765000D01*
X45247760Y-129765000D01*
X45086440Y-129797089D01*
X44934479Y-129860033D01*
X44797719Y-129951413D01*
X44681413Y-130067719D01*
X44590033Y-130204479D01*
X44527089Y-130356440D01*
X44512429Y-130430139D01*
X44506028Y-130423738D01*
X44352889Y-130321414D01*
X44182729Y-130250932D01*
X44002089Y-130215000D01*
X43817911Y-130215000D01*
X43715000Y-130235471D01*
X43715000Y-130157911D01*
X43679068Y-129977271D01*
X43608586Y-129807111D01*
X43506262Y-129653972D01*
X43376028Y-129523738D01*
X43222889Y-129421414D01*
X43052729Y-129350932D01*
X42872089Y-129315000D01*
X42687911Y-129315000D01*
X42507271Y-129350932D01*
X42337111Y-129421414D01*
X42183972Y-129523738D01*
X42053738Y-129653972D01*
X41951414Y-129807111D01*
X41880932Y-129977271D01*
X41845000Y-130157911D01*
X40835545Y-130157911D01*
X40882911Y-130043560D01*
X40915000Y-129882240D01*
X40915000Y-129717760D01*
X40882911Y-129556440D01*
X40819967Y-129404479D01*
X40728587Y-129267719D01*
X40612281Y-129151413D01*
X40475521Y-129060033D01*
X40323560Y-128997089D01*
X40162240Y-128965000D01*
X39997760Y-128965000D01*
X39836440Y-128997089D01*
X39684479Y-129060033D01*
X39547719Y-129151413D01*
X39431413Y-129267719D01*
X39340033Y-129404479D01*
X39277089Y-129556440D01*
X39245000Y-129717760D01*
X37457000Y-129717760D01*
X37457000Y-128800000D01*
X37454560Y-128775224D01*
X37447333Y-128751399D01*
X37435597Y-128729443D01*
X37419803Y-128710197D01*
X37400557Y-128694403D01*
X37378601Y-128682667D01*
X37354776Y-128675440D01*
X37330000Y-128673000D01*
X35007000Y-128673000D01*
X35007000Y-128087760D01*
X39945000Y-128087760D01*
X39945000Y-128252240D01*
X39977089Y-128413560D01*
X40040033Y-128565521D01*
X40131413Y-128702281D01*
X40247719Y-128818587D01*
X40384479Y-128909967D01*
X40536440Y-128972911D01*
X40697760Y-129005000D01*
X40862240Y-129005000D01*
X41023560Y-128972911D01*
X41175521Y-128909967D01*
X41312281Y-128818587D01*
X41428587Y-128702281D01*
X41519967Y-128565521D01*
X41582911Y-128413560D01*
X41590177Y-128377033D01*
X41655521Y-128349967D01*
X41792281Y-128258587D01*
X41908587Y-128142281D01*
X41944915Y-128087911D01*
X44335000Y-128087911D01*
X44335000Y-128272089D01*
X44370932Y-128452729D01*
X44441414Y-128622889D01*
X44543738Y-128776028D01*
X44673972Y-128906262D01*
X44827111Y-129008586D01*
X44997271Y-129079068D01*
X45177911Y-129115000D01*
X45362089Y-129115000D01*
X45542729Y-129079068D01*
X45712889Y-129008586D01*
X45866028Y-128906262D01*
X45996262Y-128776028D01*
X46098586Y-128622889D01*
X46169068Y-128452729D01*
X46205000Y-128272089D01*
X46205000Y-128087911D01*
X46169068Y-127907271D01*
X46098586Y-127737111D01*
X45996262Y-127583972D01*
X45866028Y-127453738D01*
X45712889Y-127351414D01*
X45542729Y-127280932D01*
X45362089Y-127245000D01*
X45177911Y-127245000D01*
X44997271Y-127280932D01*
X44827111Y-127351414D01*
X44673972Y-127453738D01*
X44543738Y-127583972D01*
X44441414Y-127737111D01*
X44370932Y-127907271D01*
X44335000Y-128087911D01*
X41944915Y-128087911D01*
X41999967Y-128005521D01*
X42062911Y-127853560D01*
X42095000Y-127692240D01*
X42095000Y-127685000D01*
X42112240Y-127685000D01*
X42273560Y-127652911D01*
X42425521Y-127589967D01*
X42562281Y-127498587D01*
X42678587Y-127382281D01*
X42769967Y-127245521D01*
X42832911Y-127093560D01*
X42865000Y-126932240D01*
X42865000Y-126767760D01*
X42832911Y-126606440D01*
X42769967Y-126454479D01*
X42678587Y-126317719D01*
X42562281Y-126201413D01*
X42425521Y-126110033D01*
X42273560Y-126047089D01*
X42112240Y-126015000D01*
X41947760Y-126015000D01*
X41786440Y-126047089D01*
X41634479Y-126110033D01*
X41497719Y-126201413D01*
X41381413Y-126317719D01*
X41290033Y-126454479D01*
X41227089Y-126606440D01*
X41195000Y-126767760D01*
X41195000Y-126775000D01*
X41177760Y-126775000D01*
X41016440Y-126807089D01*
X40864479Y-126870033D01*
X40727719Y-126961413D01*
X40611413Y-127077719D01*
X40520033Y-127214479D01*
X40457089Y-127366440D01*
X40449823Y-127402967D01*
X40384479Y-127430033D01*
X40247719Y-127521413D01*
X40131413Y-127637719D01*
X40040033Y-127774479D01*
X39977089Y-127926440D01*
X39945000Y-128087760D01*
X35007000Y-128087760D01*
X35007000Y-126167911D01*
X35285000Y-126167911D01*
X35285000Y-126352089D01*
X35320932Y-126532729D01*
X35391414Y-126702889D01*
X35493738Y-126856028D01*
X35623972Y-126986262D01*
X35777111Y-127088586D01*
X35947271Y-127159068D01*
X36127911Y-127195000D01*
X36312089Y-127195000D01*
X36492729Y-127159068D01*
X36662889Y-127088586D01*
X36816028Y-126986262D01*
X36946262Y-126856028D01*
X36950756Y-126849302D01*
X36927089Y-126906440D01*
X36895000Y-127067760D01*
X36895000Y-127232240D01*
X36927089Y-127393560D01*
X36990033Y-127545521D01*
X37081413Y-127682281D01*
X37197719Y-127798587D01*
X37334479Y-127889967D01*
X37486440Y-127952911D01*
X37647760Y-127985000D01*
X37812240Y-127985000D01*
X37973560Y-127952911D01*
X38125521Y-127889967D01*
X38262281Y-127798587D01*
X38378587Y-127682281D01*
X38469967Y-127545521D01*
X38515528Y-127435528D01*
X38625521Y-127389967D01*
X38762281Y-127298587D01*
X38840227Y-127220641D01*
X38881413Y-127282281D01*
X38997719Y-127398587D01*
X39134479Y-127489967D01*
X39286440Y-127552911D01*
X39447760Y-127585000D01*
X39612240Y-127585000D01*
X39773560Y-127552911D01*
X39925521Y-127489967D01*
X40062281Y-127398587D01*
X40178587Y-127282281D01*
X40269967Y-127145521D01*
X40332911Y-126993560D01*
X40365000Y-126832240D01*
X40365000Y-126667760D01*
X40332911Y-126506440D01*
X40269967Y-126354479D01*
X40178587Y-126217719D01*
X40062281Y-126101413D01*
X39925521Y-126010033D01*
X39773560Y-125947089D01*
X39612240Y-125915000D01*
X39447760Y-125915000D01*
X39286440Y-125947089D01*
X39134479Y-126010033D01*
X38997719Y-126101413D01*
X38919773Y-126179359D01*
X38878587Y-126117719D01*
X38762281Y-126001413D01*
X38625521Y-125910033D01*
X38473560Y-125847089D01*
X38312240Y-125815000D01*
X38290358Y-125815000D01*
X38358586Y-125712889D01*
X38429068Y-125542729D01*
X38463841Y-125367911D01*
X46975000Y-125367911D01*
X46975000Y-125552089D01*
X47010932Y-125732729D01*
X47081414Y-125902889D01*
X47183738Y-126056028D01*
X47313972Y-126186262D01*
X47467111Y-126288586D01*
X47637271Y-126359068D01*
X47817911Y-126395000D01*
X48002089Y-126395000D01*
X48182729Y-126359068D01*
X48352889Y-126288586D01*
X48506028Y-126186262D01*
X48636262Y-126056028D01*
X48738586Y-125902889D01*
X48809068Y-125732729D01*
X48845000Y-125552089D01*
X48845000Y-125367911D01*
X48809068Y-125187271D01*
X48745474Y-125033740D01*
X58195000Y-125033740D01*
X58195000Y-125326260D01*
X58252068Y-125613158D01*
X58364010Y-125883411D01*
X58526525Y-126126632D01*
X58733368Y-126333475D01*
X58907760Y-126450000D01*
X58733368Y-126566525D01*
X58526525Y-126773368D01*
X58364010Y-127016589D01*
X58252068Y-127286842D01*
X58195000Y-127573740D01*
X58195000Y-127866260D01*
X58252068Y-128153158D01*
X58364010Y-128423411D01*
X58526525Y-128666632D01*
X58733368Y-128873475D01*
X58907760Y-128990000D01*
X58733368Y-129106525D01*
X58526525Y-129313368D01*
X58364010Y-129556589D01*
X58252068Y-129826842D01*
X58195000Y-130113740D01*
X58195000Y-130406260D01*
X58252068Y-130693158D01*
X58364010Y-130963411D01*
X58526525Y-131206632D01*
X58733368Y-131413475D01*
X58907760Y-131530000D01*
X58733368Y-131646525D01*
X58526525Y-131853368D01*
X58364010Y-132096589D01*
X58252068Y-132366842D01*
X58195000Y-132653740D01*
X58195000Y-132946260D01*
X58252068Y-133233158D01*
X58364010Y-133503411D01*
X58526525Y-133746632D01*
X58733368Y-133953475D01*
X58907760Y-134070000D01*
X58733368Y-134186525D01*
X58526525Y-134393368D01*
X58364010Y-134636589D01*
X58252068Y-134906842D01*
X58195000Y-135193740D01*
X58195000Y-135486260D01*
X58252068Y-135773158D01*
X58364010Y-136043411D01*
X58526525Y-136286632D01*
X58733368Y-136493475D01*
X58976589Y-136655990D01*
X59246842Y-136767932D01*
X59533740Y-136825000D01*
X59826260Y-136825000D01*
X60113158Y-136767932D01*
X60383411Y-136655990D01*
X60626632Y-136493475D01*
X60813715Y-136306392D01*
X60881595Y-136433386D01*
X60992038Y-136567962D01*
X61126614Y-136678405D01*
X61280150Y-136760472D01*
X61446746Y-136811008D01*
X61620000Y-136828072D01*
X62820000Y-136828072D01*
X62993254Y-136811008D01*
X63159850Y-136760472D01*
X63313386Y-136678405D01*
X63447962Y-136567962D01*
X63558405Y-136433386D01*
X63640472Y-136279850D01*
X63691008Y-136113254D01*
X63708072Y-135940000D01*
X63708072Y-134740000D01*
X63691008Y-134566746D01*
X63640472Y-134400150D01*
X63558405Y-134246614D01*
X63447962Y-134112038D01*
X63313386Y-134001595D01*
X63159850Y-133919528D01*
X63050707Y-133886420D01*
X63068792Y-133828397D01*
X62220000Y-132979605D01*
X61371208Y-133828397D01*
X61389293Y-133886420D01*
X61280150Y-133919528D01*
X61126614Y-134001595D01*
X60992038Y-134112038D01*
X60881595Y-134246614D01*
X60813715Y-134373608D01*
X60626632Y-134186525D01*
X60452240Y-134070000D01*
X60626632Y-133953475D01*
X60833475Y-133746632D01*
X60949311Y-133573271D01*
X61191603Y-133648792D01*
X62040395Y-132800000D01*
X62399605Y-132800000D01*
X63248397Y-133648792D01*
X63497472Y-133571157D01*
X63623371Y-133307117D01*
X63695339Y-133023589D01*
X63710611Y-132731469D01*
X63668599Y-132441981D01*
X63570919Y-132166253D01*
X63497472Y-132028843D01*
X63248397Y-131951208D01*
X62399605Y-132800000D01*
X62040395Y-132800000D01*
X61191603Y-131951208D01*
X60949311Y-132026729D01*
X60833475Y-131853368D01*
X60626632Y-131646525D01*
X60452240Y-131530000D01*
X60626632Y-131413475D01*
X60751710Y-131288397D01*
X61371208Y-131288397D01*
X61446514Y-131530000D01*
X61371208Y-131771603D01*
X62220000Y-132620395D01*
X63068792Y-131771603D01*
X62993486Y-131530000D01*
X63068792Y-131288397D01*
X62220000Y-130439605D01*
X61371208Y-131288397D01*
X60751710Y-131288397D01*
X60833475Y-131206632D01*
X60949311Y-131033271D01*
X61191603Y-131108792D01*
X62040395Y-130260000D01*
X62399605Y-130260000D01*
X63248397Y-131108792D01*
X63497472Y-131031157D01*
X63623371Y-130767117D01*
X63695339Y-130483589D01*
X63710611Y-130191469D01*
X63668599Y-129901981D01*
X63570919Y-129626253D01*
X63497472Y-129488843D01*
X63248397Y-129411208D01*
X62399605Y-130260000D01*
X62040395Y-130260000D01*
X61191603Y-129411208D01*
X60949311Y-129486729D01*
X60833475Y-129313368D01*
X60626632Y-129106525D01*
X60452240Y-128990000D01*
X60626632Y-128873475D01*
X60833475Y-128666632D01*
X60950000Y-128492240D01*
X61066525Y-128666632D01*
X61273368Y-128873475D01*
X61446729Y-128989311D01*
X61371208Y-129231603D01*
X62220000Y-130080395D01*
X63068792Y-129231603D01*
X62993271Y-128989311D01*
X63166632Y-128873475D01*
X63373475Y-128666632D01*
X63535990Y-128423411D01*
X63647932Y-128153158D01*
X63705000Y-127866260D01*
X63705000Y-127573740D01*
X63647932Y-127286842D01*
X63535990Y-127016589D01*
X63373475Y-126773368D01*
X63166632Y-126566525D01*
X62993271Y-126450689D01*
X63068792Y-126208397D01*
X62220000Y-125359605D01*
X61371208Y-126208397D01*
X61446729Y-126450689D01*
X61273368Y-126566525D01*
X61066525Y-126773368D01*
X60950000Y-126947760D01*
X60833475Y-126773368D01*
X60626632Y-126566525D01*
X60452240Y-126450000D01*
X60626632Y-126333475D01*
X60833475Y-126126632D01*
X60949311Y-125953271D01*
X61191603Y-126028792D01*
X62040395Y-125180000D01*
X62399605Y-125180000D01*
X63248397Y-126028792D01*
X63497472Y-125951157D01*
X63623371Y-125687117D01*
X63695339Y-125403589D01*
X63710611Y-125111469D01*
X63668599Y-124821981D01*
X63570919Y-124546253D01*
X63497472Y-124408843D01*
X63248397Y-124331208D01*
X62399605Y-125180000D01*
X62040395Y-125180000D01*
X61191603Y-124331208D01*
X60949311Y-124406729D01*
X60833475Y-124233368D01*
X60751710Y-124151603D01*
X61371208Y-124151603D01*
X62220000Y-125000395D01*
X63068792Y-124151603D01*
X62991157Y-123902528D01*
X62727117Y-123776629D01*
X62443589Y-123704661D01*
X62151469Y-123689389D01*
X61861981Y-123731401D01*
X61586253Y-123829081D01*
X61448843Y-123902528D01*
X61371208Y-124151603D01*
X60751710Y-124151603D01*
X60626632Y-124026525D01*
X60383411Y-123864010D01*
X60113158Y-123752068D01*
X59826260Y-123695000D01*
X59533740Y-123695000D01*
X59246842Y-123752068D01*
X58976589Y-123864010D01*
X58733368Y-124026525D01*
X58526525Y-124233368D01*
X58364010Y-124476589D01*
X58252068Y-124746842D01*
X58195000Y-125033740D01*
X48745474Y-125033740D01*
X48738586Y-125017111D01*
X48636262Y-124863972D01*
X48506028Y-124733738D01*
X48352889Y-124631414D01*
X48182729Y-124560932D01*
X48002089Y-124525000D01*
X47817911Y-124525000D01*
X47637271Y-124560932D01*
X47467111Y-124631414D01*
X47313972Y-124733738D01*
X47183738Y-124863972D01*
X47081414Y-125017111D01*
X47010932Y-125187271D01*
X46975000Y-125367911D01*
X38463841Y-125367911D01*
X38465000Y-125362089D01*
X38465000Y-125177911D01*
X38429068Y-124997271D01*
X38358586Y-124827111D01*
X38256262Y-124673972D01*
X38126028Y-124543738D01*
X37972889Y-124441414D01*
X37802729Y-124370932D01*
X37622089Y-124335000D01*
X37437911Y-124335000D01*
X37257271Y-124370932D01*
X37087111Y-124441414D01*
X36933972Y-124543738D01*
X36803738Y-124673972D01*
X36701414Y-124827111D01*
X36630932Y-124997271D01*
X36595000Y-125177911D01*
X36595000Y-125362089D01*
X36603932Y-125406993D01*
X36492729Y-125360932D01*
X36312089Y-125325000D01*
X36127911Y-125325000D01*
X35947271Y-125360932D01*
X35777111Y-125431414D01*
X35623972Y-125533738D01*
X35493738Y-125663972D01*
X35391414Y-125817111D01*
X35320932Y-125987271D01*
X35285000Y-126167911D01*
X35007000Y-126167911D01*
X35007000Y-125700000D01*
X35004560Y-125675224D01*
X34997333Y-125651399D01*
X34985597Y-125629443D01*
X34969803Y-125610197D01*
X34950557Y-125594403D01*
X34928601Y-125582667D01*
X34904776Y-125575440D01*
X34880000Y-125573000D01*
X33235012Y-125573000D01*
X33265000Y-125422240D01*
X33265000Y-125257760D01*
X33232911Y-125096440D01*
X33169967Y-124944479D01*
X33078587Y-124807719D01*
X32962281Y-124691413D01*
X32825521Y-124600033D01*
X32673560Y-124537089D01*
X32533464Y-124509222D01*
X32532911Y-124506440D01*
X32469967Y-124354479D01*
X32378587Y-124217719D01*
X32262281Y-124101413D01*
X32125521Y-124010033D01*
X31973560Y-123947089D01*
X31812240Y-123915000D01*
X31745868Y-123915000D01*
X31828587Y-123832281D01*
X31919967Y-123695521D01*
X31982911Y-123543560D01*
X32015000Y-123382240D01*
X32015000Y-123217760D01*
X31993120Y-123107760D01*
X32365000Y-123107760D01*
X32365000Y-123272240D01*
X32397089Y-123433560D01*
X32460033Y-123585521D01*
X32551413Y-123722281D01*
X32667719Y-123838587D01*
X32804479Y-123929967D01*
X32956440Y-123992911D01*
X33117760Y-124025000D01*
X33282240Y-124025000D01*
X33443560Y-123992911D01*
X33595521Y-123929967D01*
X33732281Y-123838587D01*
X33848587Y-123722281D01*
X33939967Y-123585521D01*
X33972113Y-123507911D01*
X37995000Y-123507911D01*
X37995000Y-123692089D01*
X38030932Y-123872729D01*
X38101414Y-124042889D01*
X38203738Y-124196028D01*
X38333972Y-124326262D01*
X38487111Y-124428586D01*
X38657271Y-124499068D01*
X38837911Y-124535000D01*
X39022089Y-124535000D01*
X39202729Y-124499068D01*
X39372889Y-124428586D01*
X39526028Y-124326262D01*
X39656262Y-124196028D01*
X39758586Y-124042889D01*
X39829068Y-123872729D01*
X39865000Y-123692089D01*
X39865000Y-123557911D01*
X40645000Y-123557911D01*
X40645000Y-123742089D01*
X40680932Y-123922729D01*
X40751414Y-124092889D01*
X40853738Y-124246028D01*
X40983972Y-124376262D01*
X41137111Y-124478586D01*
X41307271Y-124549068D01*
X41487911Y-124585000D01*
X41672089Y-124585000D01*
X41852729Y-124549068D01*
X42022889Y-124478586D01*
X42176028Y-124376262D01*
X42306262Y-124246028D01*
X42408586Y-124092889D01*
X42479068Y-123922729D01*
X42515000Y-123742089D01*
X42515000Y-123557911D01*
X42479068Y-123377271D01*
X42408586Y-123207111D01*
X42306262Y-123053972D01*
X42176028Y-122923738D01*
X42022889Y-122821414D01*
X41852729Y-122750932D01*
X41672089Y-122715000D01*
X41487911Y-122715000D01*
X41307271Y-122750932D01*
X41137111Y-122821414D01*
X40983972Y-122923738D01*
X40853738Y-123053972D01*
X40751414Y-123207111D01*
X40680932Y-123377271D01*
X40645000Y-123557911D01*
X39865000Y-123557911D01*
X39865000Y-123507911D01*
X39829068Y-123327271D01*
X39758586Y-123157111D01*
X39656262Y-123003972D01*
X39526028Y-122873738D01*
X39372889Y-122771414D01*
X39202729Y-122700932D01*
X39022089Y-122665000D01*
X38837911Y-122665000D01*
X38657271Y-122700932D01*
X38487111Y-122771414D01*
X38333972Y-122873738D01*
X38203738Y-123003972D01*
X38101414Y-123157111D01*
X38030932Y-123327271D01*
X37995000Y-123507911D01*
X33972113Y-123507911D01*
X34002911Y-123433560D01*
X34035000Y-123272240D01*
X34035000Y-123107760D01*
X34002911Y-122946440D01*
X33939967Y-122794479D01*
X33848587Y-122657719D01*
X33732281Y-122541413D01*
X33595521Y-122450033D01*
X33443560Y-122387089D01*
X33282240Y-122355000D01*
X33117760Y-122355000D01*
X32956440Y-122387089D01*
X32804479Y-122450033D01*
X32667719Y-122541413D01*
X32551413Y-122657719D01*
X32460033Y-122794479D01*
X32397089Y-122946440D01*
X32365000Y-123107760D01*
X31993120Y-123107760D01*
X31982911Y-123056440D01*
X31919967Y-122904479D01*
X31828587Y-122767719D01*
X31712281Y-122651413D01*
X31575521Y-122560033D01*
X31423560Y-122497089D01*
X31262240Y-122465000D01*
X31097760Y-122465000D01*
X30936440Y-122497089D01*
X30930000Y-122499757D01*
X30923560Y-122497089D01*
X30762240Y-122465000D01*
X30597760Y-122465000D01*
X30436440Y-122497089D01*
X30284479Y-122560033D01*
X30147719Y-122651413D01*
X30031413Y-122767719D01*
X29940033Y-122904479D01*
X29877089Y-123056440D01*
X29845000Y-123217760D01*
X28006962Y-123217760D01*
X28055000Y-122976260D01*
X28055000Y-122683740D01*
X27997932Y-122396842D01*
X27885990Y-122126589D01*
X27723475Y-121883368D01*
X27516632Y-121676525D01*
X27503515Y-121667760D01*
X33295000Y-121667760D01*
X33295000Y-121832240D01*
X33327089Y-121993560D01*
X33390033Y-122145521D01*
X33481413Y-122282281D01*
X33597719Y-122398587D01*
X33734479Y-122489967D01*
X33886440Y-122552911D01*
X34047760Y-122585000D01*
X34212240Y-122585000D01*
X34373560Y-122552911D01*
X34525521Y-122489967D01*
X34662281Y-122398587D01*
X34778587Y-122282281D01*
X34869967Y-122145521D01*
X34932911Y-121993560D01*
X34965000Y-121832240D01*
X34965000Y-121667760D01*
X34945253Y-121568487D01*
X35023560Y-121552911D01*
X35175521Y-121489967D01*
X35312281Y-121398587D01*
X35391621Y-121319247D01*
X35401414Y-121342889D01*
X35503738Y-121496028D01*
X35633972Y-121626262D01*
X35787111Y-121728586D01*
X35957271Y-121799068D01*
X36137911Y-121835000D01*
X36217436Y-121835000D01*
X36170932Y-121947271D01*
X36135000Y-122127911D01*
X36135000Y-122312089D01*
X36170932Y-122492729D01*
X36241414Y-122662889D01*
X36343738Y-122816028D01*
X36473972Y-122946262D01*
X36627111Y-123048586D01*
X36797271Y-123119068D01*
X36977911Y-123155000D01*
X37162089Y-123155000D01*
X37342729Y-123119068D01*
X37512889Y-123048586D01*
X37666028Y-122946262D01*
X37796262Y-122816028D01*
X37898586Y-122662889D01*
X37969068Y-122492729D01*
X38005000Y-122312089D01*
X38005000Y-122307911D01*
X44595000Y-122307911D01*
X44595000Y-122492089D01*
X44630932Y-122672729D01*
X44701414Y-122842889D01*
X44803738Y-122996028D01*
X44933972Y-123126262D01*
X45087111Y-123228586D01*
X45257271Y-123299068D01*
X45437911Y-123335000D01*
X45622089Y-123335000D01*
X45802729Y-123299068D01*
X45972889Y-123228586D01*
X46126028Y-123126262D01*
X46256262Y-122996028D01*
X46358586Y-122842889D01*
X46429068Y-122672729D01*
X46465000Y-122492089D01*
X46465000Y-122307911D01*
X46429068Y-122127271D01*
X46358586Y-121957111D01*
X46256262Y-121803972D01*
X46126028Y-121673738D01*
X45972889Y-121571414D01*
X45802729Y-121500932D01*
X45622089Y-121465000D01*
X45437911Y-121465000D01*
X45257271Y-121500932D01*
X45087111Y-121571414D01*
X44933972Y-121673738D01*
X44803738Y-121803972D01*
X44701414Y-121957111D01*
X44630932Y-122127271D01*
X44595000Y-122307911D01*
X38005000Y-122307911D01*
X38005000Y-122127911D01*
X37969068Y-121947271D01*
X37898586Y-121777111D01*
X37796262Y-121623972D01*
X37666028Y-121493738D01*
X37512889Y-121391414D01*
X37342729Y-121320932D01*
X37162089Y-121285000D01*
X37082564Y-121285000D01*
X37129068Y-121172729D01*
X37165000Y-120992089D01*
X37165000Y-120807911D01*
X37129068Y-120627271D01*
X37058586Y-120457111D01*
X37019030Y-120397911D01*
X39455000Y-120397911D01*
X39455000Y-120582089D01*
X39490932Y-120762729D01*
X39561414Y-120932889D01*
X39663738Y-121086028D01*
X39793972Y-121216262D01*
X39947111Y-121318586D01*
X40117271Y-121389068D01*
X40297911Y-121425000D01*
X40482089Y-121425000D01*
X40571086Y-121407297D01*
X40643738Y-121516028D01*
X40773972Y-121646262D01*
X40927111Y-121748586D01*
X41097271Y-121819068D01*
X41277911Y-121855000D01*
X41462089Y-121855000D01*
X41642729Y-121819068D01*
X41812889Y-121748586D01*
X41966028Y-121646262D01*
X42096262Y-121516028D01*
X42198586Y-121362889D01*
X42269068Y-121192729D01*
X42305000Y-121012089D01*
X42305000Y-120827911D01*
X42269068Y-120647271D01*
X42198586Y-120477111D01*
X42185757Y-120457911D01*
X50095000Y-120457911D01*
X50095000Y-120642089D01*
X50130932Y-120822729D01*
X50201414Y-120992889D01*
X50303738Y-121146028D01*
X50433972Y-121276262D01*
X50587111Y-121378586D01*
X50757271Y-121449068D01*
X50937911Y-121485000D01*
X51122089Y-121485000D01*
X51302729Y-121449068D01*
X51472889Y-121378586D01*
X51626028Y-121276262D01*
X51756262Y-121146028D01*
X51858586Y-120992889D01*
X51929068Y-120822729D01*
X51965000Y-120642089D01*
X51965000Y-120457911D01*
X51929068Y-120277271D01*
X51858586Y-120107111D01*
X51756262Y-119953972D01*
X51626028Y-119823738D01*
X51472889Y-119721414D01*
X51302729Y-119650932D01*
X51122089Y-119615000D01*
X50937911Y-119615000D01*
X50757271Y-119650932D01*
X50587111Y-119721414D01*
X50433972Y-119823738D01*
X50303738Y-119953972D01*
X50201414Y-120107111D01*
X50130932Y-120277271D01*
X50095000Y-120457911D01*
X42185757Y-120457911D01*
X42096262Y-120323972D01*
X41966028Y-120193738D01*
X41812889Y-120091414D01*
X41642729Y-120020932D01*
X41462089Y-119985000D01*
X41277911Y-119985000D01*
X41188914Y-120002703D01*
X41116262Y-119893972D01*
X40986028Y-119763738D01*
X40832889Y-119661414D01*
X40662729Y-119590932D01*
X40482089Y-119555000D01*
X40297911Y-119555000D01*
X40117271Y-119590932D01*
X39947111Y-119661414D01*
X39793972Y-119763738D01*
X39663738Y-119893972D01*
X39561414Y-120047111D01*
X39490932Y-120217271D01*
X39455000Y-120397911D01*
X37019030Y-120397911D01*
X36956262Y-120303972D01*
X36826028Y-120173738D01*
X36672889Y-120071414D01*
X36502729Y-120000932D01*
X36322089Y-119965000D01*
X36137911Y-119965000D01*
X35957271Y-120000932D01*
X35787111Y-120071414D01*
X35633972Y-120173738D01*
X35503738Y-120303972D01*
X35494979Y-120317081D01*
X35428587Y-120217719D01*
X35312281Y-120101413D01*
X35175521Y-120010033D01*
X35023560Y-119947089D01*
X34862240Y-119915000D01*
X34697760Y-119915000D01*
X34536440Y-119947089D01*
X34384479Y-120010033D01*
X34247719Y-120101413D01*
X34131413Y-120217719D01*
X34040033Y-120354479D01*
X33977089Y-120506440D01*
X33945000Y-120667760D01*
X33945000Y-120832240D01*
X33964747Y-120931513D01*
X33886440Y-120947089D01*
X33734479Y-121010033D01*
X33597719Y-121101413D01*
X33481413Y-121217719D01*
X33390033Y-121354479D01*
X33327089Y-121506440D01*
X33295000Y-121667760D01*
X27503515Y-121667760D01*
X27334466Y-121554805D01*
X27451355Y-121485178D01*
X27667588Y-121290269D01*
X27841641Y-121056920D01*
X27966825Y-120794099D01*
X28011476Y-120646890D01*
X27890155Y-120417000D01*
X26697000Y-120417000D01*
X26697000Y-120437000D01*
X26443000Y-120437000D01*
X26443000Y-120417000D01*
X25249845Y-120417000D01*
X25128524Y-120646890D01*
X25173175Y-120794099D01*
X25298359Y-121056920D01*
X25472412Y-121290269D01*
X25688645Y-121485178D01*
X25805534Y-121554805D01*
X25623368Y-121676525D01*
X25416525Y-121883368D01*
X25254010Y-122126589D01*
X25142068Y-122396842D01*
X25085000Y-122683740D01*
X23947610Y-122683740D01*
X23943837Y-116900000D01*
X25081928Y-116900000D01*
X25081928Y-118600000D01*
X25094188Y-118724482D01*
X25130498Y-118844180D01*
X25189463Y-118954494D01*
X25268815Y-119051185D01*
X25365506Y-119130537D01*
X25475820Y-119189502D01*
X25556466Y-119213966D01*
X25472412Y-119289731D01*
X25298359Y-119523080D01*
X25173175Y-119785901D01*
X25128524Y-119933110D01*
X25249845Y-120163000D01*
X26443000Y-120163000D01*
X26443000Y-120143000D01*
X26697000Y-120143000D01*
X26697000Y-120163000D01*
X27890155Y-120163000D01*
X28011476Y-119933110D01*
X27966825Y-119785901D01*
X27841641Y-119523080D01*
X27800379Y-119467760D01*
X30445000Y-119467760D01*
X30445000Y-119632240D01*
X30477089Y-119793560D01*
X30540033Y-119945521D01*
X30631413Y-120082281D01*
X30747719Y-120198587D01*
X30884479Y-120289967D01*
X31036440Y-120352911D01*
X31197760Y-120385000D01*
X31362240Y-120385000D01*
X31523560Y-120352911D01*
X31675521Y-120289967D01*
X31812281Y-120198587D01*
X31928587Y-120082281D01*
X32019967Y-119945521D01*
X32082911Y-119793560D01*
X32115000Y-119632240D01*
X32115000Y-119467760D01*
X32082911Y-119306440D01*
X32040350Y-119203689D01*
X32197760Y-119235000D01*
X32362240Y-119235000D01*
X32523560Y-119202911D01*
X32675521Y-119139967D01*
X32708530Y-119117911D01*
X46765000Y-119117911D01*
X46765000Y-119302089D01*
X46800932Y-119482729D01*
X46871414Y-119652889D01*
X46973738Y-119806028D01*
X47103972Y-119936262D01*
X47257111Y-120038586D01*
X47427271Y-120109068D01*
X47607911Y-120145000D01*
X47792089Y-120145000D01*
X47972729Y-120109068D01*
X48142889Y-120038586D01*
X48296028Y-119936262D01*
X48426262Y-119806028D01*
X48528586Y-119652889D01*
X48599068Y-119482729D01*
X48635000Y-119302089D01*
X48635000Y-119117911D01*
X48599068Y-118937271D01*
X48528586Y-118767111D01*
X48426262Y-118613972D01*
X48296028Y-118483738D01*
X48142889Y-118381414D01*
X47972729Y-118310932D01*
X47792089Y-118275000D01*
X47607911Y-118275000D01*
X47427271Y-118310932D01*
X47257111Y-118381414D01*
X47103972Y-118483738D01*
X46973738Y-118613972D01*
X46871414Y-118767111D01*
X46800932Y-118937271D01*
X46765000Y-119117911D01*
X32708530Y-119117911D01*
X32812281Y-119048587D01*
X32928587Y-118932281D01*
X33019967Y-118795521D01*
X33082911Y-118643560D01*
X33115000Y-118482240D01*
X33115000Y-118317760D01*
X33082911Y-118156440D01*
X33019967Y-118004479D01*
X32928615Y-117867760D01*
X35495000Y-117867760D01*
X35495000Y-118032240D01*
X35527089Y-118193560D01*
X35590033Y-118345521D01*
X35681413Y-118482281D01*
X35797719Y-118598587D01*
X35934479Y-118689967D01*
X36086440Y-118752911D01*
X36247760Y-118785000D01*
X36412240Y-118785000D01*
X36573560Y-118752911D01*
X36725521Y-118689967D01*
X36862281Y-118598587D01*
X36978587Y-118482281D01*
X37069967Y-118345521D01*
X37132911Y-118193560D01*
X37165000Y-118032240D01*
X37165000Y-117887911D01*
X44805000Y-117887911D01*
X44805000Y-118072089D01*
X44840932Y-118252729D01*
X44911414Y-118422889D01*
X45013738Y-118576028D01*
X45143972Y-118706262D01*
X45297111Y-118808586D01*
X45467271Y-118879068D01*
X45647911Y-118915000D01*
X45832089Y-118915000D01*
X46012729Y-118879068D01*
X46182889Y-118808586D01*
X46336028Y-118706262D01*
X46466262Y-118576028D01*
X46568586Y-118422889D01*
X46639068Y-118252729D01*
X46675000Y-118072089D01*
X46675000Y-117887911D01*
X46639068Y-117707271D01*
X46568586Y-117537111D01*
X46466262Y-117383972D01*
X46336028Y-117253738D01*
X46207353Y-117167760D01*
X48995000Y-117167760D01*
X48995000Y-117332240D01*
X49027089Y-117493560D01*
X49090033Y-117645521D01*
X49181413Y-117782281D01*
X49297719Y-117898587D01*
X49434479Y-117989967D01*
X49586440Y-118052911D01*
X49595000Y-118054614D01*
X49595000Y-118192089D01*
X49630932Y-118372729D01*
X49701414Y-118542889D01*
X49803738Y-118696028D01*
X49933972Y-118826262D01*
X50087111Y-118928586D01*
X50257271Y-118999068D01*
X50437911Y-119035000D01*
X50622089Y-119035000D01*
X50802729Y-118999068D01*
X50972889Y-118928586D01*
X51126028Y-118826262D01*
X51256262Y-118696028D01*
X51358586Y-118542889D01*
X51429068Y-118372729D01*
X51465000Y-118192089D01*
X51465000Y-118007911D01*
X51429068Y-117827271D01*
X51358586Y-117657111D01*
X51256262Y-117503972D01*
X51126028Y-117373738D01*
X50972889Y-117271414D01*
X50802729Y-117200932D01*
X50665000Y-117173536D01*
X50665000Y-117167760D01*
X50632911Y-117006440D01*
X50569967Y-116854479D01*
X50478587Y-116717719D01*
X50362281Y-116601413D01*
X50225521Y-116510033D01*
X50073560Y-116447089D01*
X49912240Y-116415000D01*
X49747760Y-116415000D01*
X49586440Y-116447089D01*
X49434479Y-116510033D01*
X49297719Y-116601413D01*
X49181413Y-116717719D01*
X49090033Y-116854479D01*
X49027089Y-117006440D01*
X48995000Y-117167760D01*
X46207353Y-117167760D01*
X46182889Y-117151414D01*
X46012729Y-117080932D01*
X45832089Y-117045000D01*
X45647911Y-117045000D01*
X45467271Y-117080932D01*
X45297111Y-117151414D01*
X45143972Y-117253738D01*
X45013738Y-117383972D01*
X44911414Y-117537111D01*
X44840932Y-117707271D01*
X44805000Y-117887911D01*
X37165000Y-117887911D01*
X37165000Y-117867760D01*
X37132911Y-117706440D01*
X37069967Y-117554479D01*
X36978587Y-117417719D01*
X36862281Y-117301413D01*
X36725521Y-117210033D01*
X36573560Y-117147089D01*
X36412240Y-117115000D01*
X36247760Y-117115000D01*
X36086440Y-117147089D01*
X35934479Y-117210033D01*
X35797719Y-117301413D01*
X35681413Y-117417719D01*
X35590033Y-117554479D01*
X35527089Y-117706440D01*
X35495000Y-117867760D01*
X32928615Y-117867760D01*
X32928587Y-117867719D01*
X32812281Y-117751413D01*
X32675521Y-117660033D01*
X32523560Y-117597089D01*
X32362240Y-117565000D01*
X32197760Y-117565000D01*
X32036440Y-117597089D01*
X31884479Y-117660033D01*
X31747719Y-117751413D01*
X31631413Y-117867719D01*
X31540033Y-118004479D01*
X31477089Y-118156440D01*
X31445000Y-118317760D01*
X31445000Y-118482240D01*
X31477089Y-118643560D01*
X31519650Y-118746311D01*
X31362240Y-118715000D01*
X31197760Y-118715000D01*
X31036440Y-118747089D01*
X30884479Y-118810033D01*
X30747719Y-118901413D01*
X30631413Y-119017719D01*
X30540033Y-119154479D01*
X30477089Y-119306440D01*
X30445000Y-119467760D01*
X27800379Y-119467760D01*
X27667588Y-119289731D01*
X27583534Y-119213966D01*
X27664180Y-119189502D01*
X27774494Y-119130537D01*
X27871185Y-119051185D01*
X27950537Y-118954494D01*
X28009502Y-118844180D01*
X28045812Y-118724482D01*
X28058072Y-118600000D01*
X28058072Y-116900000D01*
X28045812Y-116775518D01*
X28009502Y-116655820D01*
X27950537Y-116545506D01*
X27944428Y-116538061D01*
X33675000Y-116538061D01*
X33675000Y-116741939D01*
X33714774Y-116941898D01*
X33792795Y-117130256D01*
X33906063Y-117299774D01*
X34050226Y-117443937D01*
X34219744Y-117557205D01*
X34408102Y-117635226D01*
X34608061Y-117675000D01*
X34811939Y-117675000D01*
X35011898Y-117635226D01*
X35200256Y-117557205D01*
X35369774Y-117443937D01*
X35513937Y-117299774D01*
X35627205Y-117130256D01*
X35705226Y-116941898D01*
X35745000Y-116741939D01*
X35745000Y-116538061D01*
X35705226Y-116338102D01*
X35627205Y-116149744D01*
X35513937Y-115980226D01*
X35369774Y-115836063D01*
X35200256Y-115722795D01*
X35011898Y-115644774D01*
X34811939Y-115605000D01*
X34608061Y-115605000D01*
X34408102Y-115644774D01*
X34219744Y-115722795D01*
X34050226Y-115836063D01*
X33906063Y-115980226D01*
X33792795Y-116149744D01*
X33714774Y-116338102D01*
X33675000Y-116538061D01*
X27944428Y-116538061D01*
X27871185Y-116448815D01*
X27774494Y-116369463D01*
X27664180Y-116310498D01*
X27544482Y-116274188D01*
X27420000Y-116261928D01*
X25720000Y-116261928D01*
X25595518Y-116274188D01*
X25475820Y-116310498D01*
X25365506Y-116369463D01*
X25268815Y-116448815D01*
X25189463Y-116545506D01*
X25130498Y-116655820D01*
X25094188Y-116775518D01*
X25081928Y-116900000D01*
X23943837Y-116900000D01*
X23942494Y-114841457D01*
X23949463Y-114854494D01*
X24028815Y-114951185D01*
X24125506Y-115030537D01*
X24235820Y-115089502D01*
X24355518Y-115125812D01*
X24480000Y-115138072D01*
X26180000Y-115138072D01*
X26304482Y-115125812D01*
X26424180Y-115089502D01*
X26534494Y-115030537D01*
X26631185Y-114951185D01*
X26710537Y-114854494D01*
X26735436Y-114807911D01*
X46845000Y-114807911D01*
X46845000Y-114992089D01*
X46880932Y-115172729D01*
X46951414Y-115342889D01*
X47053738Y-115496028D01*
X47183972Y-115626262D01*
X47337111Y-115728586D01*
X47507271Y-115799068D01*
X47687911Y-115835000D01*
X47872089Y-115835000D01*
X48052729Y-115799068D01*
X48222889Y-115728586D01*
X48376028Y-115626262D01*
X48506262Y-115496028D01*
X48608586Y-115342889D01*
X48679068Y-115172729D01*
X48715000Y-114992089D01*
X48715000Y-114807911D01*
X48679068Y-114627271D01*
X48608586Y-114457111D01*
X48506262Y-114303972D01*
X48376028Y-114173738D01*
X48222889Y-114071414D01*
X48052729Y-114000932D01*
X47872089Y-113965000D01*
X47687911Y-113965000D01*
X47507271Y-114000932D01*
X47337111Y-114071414D01*
X47183972Y-114173738D01*
X47053738Y-114303972D01*
X46951414Y-114457111D01*
X46880932Y-114627271D01*
X46845000Y-114807911D01*
X26735436Y-114807911D01*
X26769502Y-114744180D01*
X26805812Y-114624482D01*
X26818072Y-114500000D01*
X26818072Y-112800000D01*
X26805812Y-112675518D01*
X26769502Y-112555820D01*
X26710537Y-112445506D01*
X26631185Y-112348815D01*
X26534494Y-112269463D01*
X26424180Y-112210498D01*
X26343534Y-112186034D01*
X26427588Y-112110269D01*
X26601641Y-111876920D01*
X26726825Y-111614099D01*
X26771476Y-111466890D01*
X26708766Y-111348061D01*
X31595000Y-111348061D01*
X31595000Y-111551939D01*
X31634774Y-111751898D01*
X31712795Y-111940256D01*
X31826063Y-112109774D01*
X31970226Y-112253937D01*
X32139744Y-112367205D01*
X32328102Y-112445226D01*
X32528061Y-112485000D01*
X32731939Y-112485000D01*
X32931898Y-112445226D01*
X33116958Y-112368571D01*
X33189744Y-112417205D01*
X33378102Y-112495226D01*
X33578061Y-112535000D01*
X33681623Y-112535000D01*
X33634774Y-112648102D01*
X33595000Y-112848061D01*
X33595000Y-113051939D01*
X33634774Y-113251898D01*
X33712795Y-113440256D01*
X33826063Y-113609774D01*
X33970226Y-113753937D01*
X34139744Y-113867205D01*
X34328102Y-113945226D01*
X34528061Y-113985000D01*
X34731939Y-113985000D01*
X34931898Y-113945226D01*
X35120256Y-113867205D01*
X35289774Y-113753937D01*
X35433937Y-113609774D01*
X35547205Y-113440256D01*
X35625226Y-113251898D01*
X35665000Y-113051939D01*
X35665000Y-112848061D01*
X35625226Y-112648102D01*
X35547205Y-112459744D01*
X35523990Y-112425000D01*
X35547205Y-112390256D01*
X35625226Y-112201898D01*
X35665000Y-112001939D01*
X35665000Y-111798061D01*
X35625226Y-111598102D01*
X35547205Y-111409744D01*
X35433937Y-111240226D01*
X35289774Y-111096063D01*
X35120256Y-110982795D01*
X34931898Y-110904774D01*
X34731939Y-110865000D01*
X34528061Y-110865000D01*
X34503725Y-110869841D01*
X34483937Y-110840226D01*
X34339774Y-110696063D01*
X34170256Y-110582795D01*
X33981898Y-110504774D01*
X33781939Y-110465000D01*
X33578061Y-110465000D01*
X33378102Y-110504774D01*
X33193042Y-110581429D01*
X33120256Y-110532795D01*
X32931898Y-110454774D01*
X32731939Y-110415000D01*
X32528061Y-110415000D01*
X32328102Y-110454774D01*
X32139744Y-110532795D01*
X31970226Y-110646063D01*
X31826063Y-110790226D01*
X31712795Y-110959744D01*
X31634774Y-111148102D01*
X31595000Y-111348061D01*
X26708766Y-111348061D01*
X26650155Y-111237000D01*
X25457000Y-111237000D01*
X25457000Y-111257000D01*
X25203000Y-111257000D01*
X25203000Y-111237000D01*
X25183000Y-111237000D01*
X25183000Y-110983000D01*
X25203000Y-110983000D01*
X25203000Y-109789186D01*
X24973109Y-109668519D01*
X24698748Y-109765843D01*
X24448645Y-109914822D01*
X24232412Y-110109731D01*
X24058359Y-110343080D01*
X23939723Y-110592154D01*
X23938488Y-108698061D01*
X25095000Y-108698061D01*
X25095000Y-108901939D01*
X25134774Y-109101898D01*
X25212795Y-109290256D01*
X25326063Y-109459774D01*
X25470226Y-109603937D01*
X25619679Y-109703798D01*
X25457000Y-109789186D01*
X25457000Y-110983000D01*
X26650155Y-110983000D01*
X26771476Y-110753110D01*
X26726825Y-110605901D01*
X26601641Y-110343080D01*
X26427588Y-110109731D01*
X26211355Y-109914822D01*
X26077351Y-109835000D01*
X26231939Y-109835000D01*
X26431898Y-109795226D01*
X26620256Y-109717205D01*
X26680000Y-109677285D01*
X26739744Y-109717205D01*
X26928102Y-109795226D01*
X27128061Y-109835000D01*
X27331939Y-109835000D01*
X27531898Y-109795226D01*
X27720256Y-109717205D01*
X27889774Y-109603937D01*
X28033937Y-109459774D01*
X28147205Y-109290256D01*
X28225226Y-109101898D01*
X28265000Y-108901939D01*
X28265000Y-108698061D01*
X28257074Y-108658212D01*
X28305000Y-108658212D01*
X28305000Y-108881788D01*
X28348617Y-109101067D01*
X28434176Y-109307624D01*
X28558388Y-109493520D01*
X28716480Y-109651612D01*
X28902376Y-109775824D01*
X29108933Y-109861383D01*
X29328212Y-109905000D01*
X29551788Y-109905000D01*
X29771067Y-109861383D01*
X29882774Y-109815112D01*
X29965820Y-109859502D01*
X30085518Y-109895812D01*
X30210000Y-109908072D01*
X31210000Y-109908072D01*
X31334482Y-109895812D01*
X31454180Y-109859502D01*
X31564494Y-109800537D01*
X31661185Y-109721185D01*
X31740537Y-109624494D01*
X31799502Y-109514180D01*
X31835812Y-109394482D01*
X31848072Y-109270000D01*
X31848072Y-108413740D01*
X33015000Y-108413740D01*
X33015000Y-108706260D01*
X33072068Y-108993158D01*
X33184010Y-109263411D01*
X33346525Y-109506632D01*
X33553368Y-109713475D01*
X33796589Y-109875990D01*
X34066842Y-109987932D01*
X34353740Y-110045000D01*
X34646260Y-110045000D01*
X34933158Y-109987932D01*
X35203411Y-109875990D01*
X35446632Y-109713475D01*
X35653475Y-109506632D01*
X35770000Y-109332240D01*
X35886525Y-109506632D01*
X36093368Y-109713475D01*
X36336589Y-109875990D01*
X36606842Y-109987932D01*
X36893740Y-110045000D01*
X37186260Y-110045000D01*
X37473158Y-109987932D01*
X37743411Y-109875990D01*
X37986632Y-109713475D01*
X38193475Y-109506632D01*
X38310000Y-109332240D01*
X38426525Y-109506632D01*
X38633368Y-109713475D01*
X38876589Y-109875990D01*
X39146842Y-109987932D01*
X39433740Y-110045000D01*
X39726260Y-110045000D01*
X40013158Y-109987932D01*
X40283411Y-109875990D01*
X40526632Y-109713475D01*
X40733475Y-109506632D01*
X40850000Y-109332240D01*
X40966525Y-109506632D01*
X41173368Y-109713475D01*
X41416589Y-109875990D01*
X41686842Y-109987932D01*
X41973740Y-110045000D01*
X42266260Y-110045000D01*
X42553158Y-109987932D01*
X42823411Y-109875990D01*
X43066632Y-109713475D01*
X43273475Y-109506632D01*
X43390000Y-109332240D01*
X43506525Y-109506632D01*
X43713368Y-109713475D01*
X43956589Y-109875990D01*
X44226842Y-109987932D01*
X44513740Y-110045000D01*
X44806260Y-110045000D01*
X45093158Y-109987932D01*
X45363411Y-109875990D01*
X45606632Y-109713475D01*
X45813475Y-109506632D01*
X45930000Y-109332240D01*
X46046525Y-109506632D01*
X46253368Y-109713475D01*
X46496589Y-109875990D01*
X46766842Y-109987932D01*
X47053740Y-110045000D01*
X47346260Y-110045000D01*
X47633158Y-109987932D01*
X47903411Y-109875990D01*
X48146632Y-109713475D01*
X48353475Y-109506632D01*
X48470000Y-109332240D01*
X48586525Y-109506632D01*
X48793368Y-109713475D01*
X49036589Y-109875990D01*
X49306842Y-109987932D01*
X49593740Y-110045000D01*
X49886260Y-110045000D01*
X50173158Y-109987932D01*
X50443411Y-109875990D01*
X50686632Y-109713475D01*
X50818487Y-109581620D01*
X50840498Y-109654180D01*
X50899463Y-109764494D01*
X50978815Y-109861185D01*
X51075506Y-109940537D01*
X51185820Y-109999502D01*
X51305518Y-110035812D01*
X51430000Y-110048072D01*
X53130000Y-110048072D01*
X53254482Y-110035812D01*
X53374180Y-109999502D01*
X53484494Y-109940537D01*
X53581185Y-109861185D01*
X53660537Y-109764494D01*
X53719502Y-109654180D01*
X53755812Y-109534482D01*
X53768072Y-109410000D01*
X53768072Y-108427000D01*
X54545000Y-108427000D01*
X54545000Y-108702000D01*
X54595908Y-108964883D01*
X54697124Y-109212783D01*
X54844758Y-109436173D01*
X55033137Y-109626469D01*
X55255021Y-109776357D01*
X55501883Y-109880078D01*
X55567742Y-109892519D01*
X55778000Y-109769518D01*
X55778000Y-108427000D01*
X56032000Y-108427000D01*
X56032000Y-109769518D01*
X56242258Y-109892519D01*
X56308117Y-109880078D01*
X56554979Y-109776357D01*
X56776863Y-109626469D01*
X56965242Y-109436173D01*
X57112876Y-109212783D01*
X57214092Y-108964883D01*
X57265000Y-108702000D01*
X57265000Y-108427000D01*
X61995000Y-108427000D01*
X61995000Y-108702000D01*
X62045908Y-108964883D01*
X62147124Y-109212783D01*
X62294758Y-109436173D01*
X62483137Y-109626469D01*
X62705021Y-109776357D01*
X62951883Y-109880078D01*
X63017742Y-109892519D01*
X63228000Y-109769518D01*
X63228000Y-108427000D01*
X63482000Y-108427000D01*
X63482000Y-109769518D01*
X63692258Y-109892519D01*
X63758117Y-109880078D01*
X64004979Y-109776357D01*
X64226863Y-109626469D01*
X64415242Y-109436173D01*
X64562876Y-109212783D01*
X64664092Y-108964883D01*
X64715000Y-108702000D01*
X64715000Y-108427000D01*
X63482000Y-108427000D01*
X63228000Y-108427000D01*
X61995000Y-108427000D01*
X57265000Y-108427000D01*
X56032000Y-108427000D01*
X55778000Y-108427000D01*
X54545000Y-108427000D01*
X53768072Y-108427000D01*
X53768072Y-107898000D01*
X54545000Y-107898000D01*
X54545000Y-108173000D01*
X55778000Y-108173000D01*
X55778000Y-106830482D01*
X56032000Y-106830482D01*
X56032000Y-108173000D01*
X56653734Y-108173000D01*
X56828102Y-108245226D01*
X57028061Y-108285000D01*
X57231939Y-108285000D01*
X57431898Y-108245226D01*
X57620256Y-108167205D01*
X57789774Y-108053937D01*
X57933937Y-107909774D01*
X58047205Y-107740256D01*
X58125226Y-107551898D01*
X58165000Y-107351939D01*
X58165000Y-107148061D01*
X61095000Y-107148061D01*
X61095000Y-107351939D01*
X61134774Y-107551898D01*
X61212795Y-107740256D01*
X61326063Y-107909774D01*
X61470226Y-108053937D01*
X61639744Y-108167205D01*
X61828102Y-108245226D01*
X62028061Y-108285000D01*
X62231939Y-108285000D01*
X62431898Y-108245226D01*
X62606266Y-108173000D01*
X63228000Y-108173000D01*
X63228000Y-106830482D01*
X63482000Y-106830482D01*
X63482000Y-108173000D01*
X64715000Y-108173000D01*
X64715000Y-107898000D01*
X64664092Y-107635117D01*
X64562876Y-107387217D01*
X64415242Y-107163827D01*
X64226863Y-106973531D01*
X64004979Y-106823643D01*
X63758117Y-106719922D01*
X63692258Y-106707481D01*
X63482000Y-106830482D01*
X63228000Y-106830482D01*
X63017742Y-106707481D01*
X63012896Y-106708396D01*
X62933937Y-106590226D01*
X62789774Y-106446063D01*
X62620256Y-106332795D01*
X62431898Y-106254774D01*
X62231939Y-106215000D01*
X62028061Y-106215000D01*
X61828102Y-106254774D01*
X61639744Y-106332795D01*
X61470226Y-106446063D01*
X61326063Y-106590226D01*
X61212795Y-106759744D01*
X61134774Y-106948102D01*
X61095000Y-107148061D01*
X58165000Y-107148061D01*
X58125226Y-106948102D01*
X58047205Y-106759744D01*
X57933937Y-106590226D01*
X57789774Y-106446063D01*
X57620256Y-106332795D01*
X57431898Y-106254774D01*
X57231939Y-106215000D01*
X57028061Y-106215000D01*
X56828102Y-106254774D01*
X56639744Y-106332795D01*
X56470226Y-106446063D01*
X56326063Y-106590226D01*
X56247104Y-106708396D01*
X56242258Y-106707481D01*
X56032000Y-106830482D01*
X55778000Y-106830482D01*
X55567742Y-106707481D01*
X55501883Y-106719922D01*
X55255021Y-106823643D01*
X55033137Y-106973531D01*
X54844758Y-107163827D01*
X54697124Y-107387217D01*
X54595908Y-107635117D01*
X54545000Y-107898000D01*
X53768072Y-107898000D01*
X53768072Y-107710000D01*
X53755812Y-107585518D01*
X53719502Y-107465820D01*
X53660537Y-107355506D01*
X53581185Y-107258815D01*
X53484494Y-107179463D01*
X53374180Y-107120498D01*
X53316965Y-107103142D01*
X53453476Y-106966631D01*
X53615991Y-106723410D01*
X53727933Y-106453157D01*
X53785001Y-106166259D01*
X53785001Y-105873739D01*
X53727933Y-105586841D01*
X53615991Y-105316588D01*
X53453476Y-105073367D01*
X53246633Y-104866524D01*
X53070595Y-104748899D01*
X53234022Y-104627000D01*
X54545000Y-104627000D01*
X54545000Y-104952000D01*
X54593026Y-105185619D01*
X54685706Y-105405380D01*
X54819479Y-105602837D01*
X54989203Y-105770402D01*
X55188356Y-105901636D01*
X55409285Y-105991496D01*
X55441323Y-105993635D01*
X55628000Y-105868550D01*
X55628000Y-104627000D01*
X55882000Y-104627000D01*
X55882000Y-105868550D01*
X56068677Y-105993635D01*
X56100715Y-105991496D01*
X56321644Y-105901636D01*
X56520797Y-105770402D01*
X56690521Y-105602837D01*
X56824294Y-105405380D01*
X56916974Y-105185619D01*
X56965000Y-104952000D01*
X56965000Y-104627000D01*
X62295000Y-104627000D01*
X62295000Y-104952000D01*
X62343026Y-105185619D01*
X62435706Y-105405380D01*
X62569479Y-105602837D01*
X62739203Y-105770402D01*
X62938356Y-105901636D01*
X63159285Y-105991496D01*
X63191323Y-105993635D01*
X63378000Y-105868550D01*
X63378000Y-104627000D01*
X63632000Y-104627000D01*
X63632000Y-105868550D01*
X63818677Y-105993635D01*
X63850715Y-105991496D01*
X64071644Y-105901636D01*
X64270797Y-105770402D01*
X64440521Y-105602837D01*
X64574294Y-105405380D01*
X64666974Y-105185619D01*
X64715000Y-104952000D01*
X64715000Y-104627000D01*
X63632000Y-104627000D01*
X63378000Y-104627000D01*
X62295000Y-104627000D01*
X56965000Y-104627000D01*
X55882000Y-104627000D01*
X55628000Y-104627000D01*
X54545000Y-104627000D01*
X53234022Y-104627000D01*
X53300270Y-104577587D01*
X53495179Y-104361354D01*
X53644158Y-104111251D01*
X53666595Y-104048000D01*
X54545000Y-104048000D01*
X54545000Y-104373000D01*
X55628000Y-104373000D01*
X55628000Y-103131450D01*
X55882000Y-103131450D01*
X55882000Y-104373000D01*
X56965000Y-104373000D01*
X56965000Y-104048000D01*
X62295000Y-104048000D01*
X62295000Y-104373000D01*
X63378000Y-104373000D01*
X63378000Y-103131450D01*
X63632000Y-103131450D01*
X63632000Y-104373000D01*
X64715000Y-104373000D01*
X64715000Y-104048000D01*
X64666974Y-103814381D01*
X64574294Y-103594620D01*
X64440521Y-103397163D01*
X64270797Y-103229598D01*
X64071644Y-103098364D01*
X63850715Y-103008504D01*
X63818677Y-103006365D01*
X63632000Y-103131450D01*
X63378000Y-103131450D01*
X63191323Y-103006365D01*
X63159285Y-103008504D01*
X62938356Y-103098364D01*
X62739203Y-103229598D01*
X62569479Y-103397163D01*
X62435706Y-103594620D01*
X62343026Y-103814381D01*
X62295000Y-104048000D01*
X56965000Y-104048000D01*
X56916974Y-103814381D01*
X56824294Y-103594620D01*
X56690521Y-103397163D01*
X56520797Y-103229598D01*
X56321644Y-103098364D01*
X56100715Y-103008504D01*
X56068677Y-103006365D01*
X55882000Y-103131450D01*
X55628000Y-103131450D01*
X55441323Y-103006365D01*
X55409285Y-103008504D01*
X55188356Y-103098364D01*
X54989203Y-103229598D01*
X54819479Y-103397163D01*
X54685706Y-103594620D01*
X54593026Y-103814381D01*
X54545000Y-104048000D01*
X53666595Y-104048000D01*
X53741482Y-103836890D01*
X53620815Y-103606999D01*
X52427001Y-103606999D01*
X52427001Y-103626999D01*
X52173001Y-103626999D01*
X52173001Y-103606999D01*
X49887001Y-103606999D01*
X49887001Y-103626999D01*
X49633001Y-103626999D01*
X49633001Y-103606999D01*
X47347001Y-103606999D01*
X47347001Y-103626999D01*
X47093001Y-103626999D01*
X47093001Y-103606999D01*
X44807001Y-103606999D01*
X44807001Y-103626999D01*
X44553001Y-103626999D01*
X44553001Y-103606999D01*
X42267001Y-103606999D01*
X42267001Y-103626999D01*
X42013001Y-103626999D01*
X42013001Y-103606999D01*
X39727001Y-103606999D01*
X39727001Y-103626999D01*
X39473001Y-103626999D01*
X39473001Y-103606999D01*
X37187001Y-103606999D01*
X37187001Y-103626999D01*
X36933001Y-103626999D01*
X36933001Y-103606999D01*
X34647001Y-103606999D01*
X34647001Y-103626999D01*
X34393001Y-103626999D01*
X34393001Y-103606999D01*
X33199187Y-103606999D01*
X33078520Y-103836890D01*
X33175844Y-104111251D01*
X33324823Y-104361354D01*
X33501627Y-104557501D01*
X33425821Y-104580497D01*
X33315507Y-104639462D01*
X33218816Y-104718814D01*
X33139464Y-104815505D01*
X33080499Y-104925819D01*
X33044189Y-105045517D01*
X33031929Y-105169999D01*
X33031929Y-106869999D01*
X33044189Y-106994481D01*
X33080499Y-107114179D01*
X33139464Y-107224493D01*
X33218816Y-107321184D01*
X33315507Y-107400536D01*
X33425821Y-107459501D01*
X33483036Y-107476857D01*
X33346525Y-107613368D01*
X33184010Y-107856589D01*
X33072068Y-108126842D01*
X33015000Y-108413740D01*
X31848072Y-108413740D01*
X31848072Y-108270000D01*
X31835812Y-108145518D01*
X31799502Y-108025820D01*
X31740537Y-107915506D01*
X31661185Y-107818815D01*
X31564494Y-107739463D01*
X31454180Y-107680498D01*
X31334482Y-107644188D01*
X31210000Y-107631928D01*
X30210000Y-107631928D01*
X30085518Y-107644188D01*
X29965820Y-107680498D01*
X29882774Y-107724888D01*
X29771067Y-107678617D01*
X29551788Y-107635000D01*
X29328212Y-107635000D01*
X29108933Y-107678617D01*
X28902376Y-107764176D01*
X28716480Y-107888388D01*
X28558388Y-108046480D01*
X28434176Y-108232376D01*
X28348617Y-108438933D01*
X28305000Y-108658212D01*
X28257074Y-108658212D01*
X28225226Y-108498102D01*
X28147205Y-108309744D01*
X28033937Y-108140226D01*
X27889774Y-107996063D01*
X27720256Y-107882795D01*
X27531898Y-107804774D01*
X27331939Y-107765000D01*
X27128061Y-107765000D01*
X26928102Y-107804774D01*
X26739744Y-107882795D01*
X26680000Y-107922715D01*
X26620256Y-107882795D01*
X26431898Y-107804774D01*
X26231939Y-107765000D01*
X26028061Y-107765000D01*
X25828102Y-107804774D01*
X25639744Y-107882795D01*
X25470226Y-107996063D01*
X25326063Y-108140226D01*
X25212795Y-108309744D01*
X25134774Y-108498102D01*
X25095000Y-108698061D01*
X23938488Y-108698061D01*
X23936191Y-105175000D01*
X29241928Y-105175000D01*
X29241928Y-106875000D01*
X29254188Y-106999482D01*
X29290498Y-107119180D01*
X29349463Y-107229494D01*
X29428815Y-107326185D01*
X29525506Y-107405537D01*
X29635820Y-107464502D01*
X29755518Y-107500812D01*
X29880000Y-107513072D01*
X31580000Y-107513072D01*
X31704482Y-107500812D01*
X31824180Y-107464502D01*
X31934494Y-107405537D01*
X32031185Y-107326185D01*
X32110537Y-107229494D01*
X32169502Y-107119180D01*
X32205812Y-106999482D01*
X32218072Y-106875000D01*
X32218072Y-105175000D01*
X32205812Y-105050518D01*
X32169502Y-104930820D01*
X32110537Y-104820506D01*
X32031185Y-104723815D01*
X31934494Y-104644463D01*
X31824180Y-104585498D01*
X31743534Y-104561034D01*
X31827588Y-104485269D01*
X32001641Y-104251920D01*
X32126825Y-103989099D01*
X32171476Y-103841890D01*
X32050155Y-103612000D01*
X30857000Y-103612000D01*
X30857000Y-103632000D01*
X30603000Y-103632000D01*
X30603000Y-103612000D01*
X29409845Y-103612000D01*
X29288524Y-103841890D01*
X29333175Y-103989099D01*
X29458359Y-104251920D01*
X29632412Y-104485269D01*
X29716466Y-104561034D01*
X29635820Y-104585498D01*
X29525506Y-104644463D01*
X29428815Y-104723815D01*
X29349463Y-104820506D01*
X29290498Y-104930820D01*
X29254188Y-105050518D01*
X29241928Y-105175000D01*
X23936191Y-105175000D01*
X23935023Y-103385711D01*
X23962549Y-103104979D01*
X24033708Y-102869288D01*
X24149291Y-102651911D01*
X24304895Y-102461121D01*
X24494593Y-102304189D01*
X24711157Y-102187094D01*
X24946344Y-102114291D01*
X25225028Y-102085000D01*
X30256172Y-102085000D01*
X30098748Y-102140843D01*
%TA.AperFunction,Conductor*%
D22*
G36*
X30098748Y-102140843D02*
G01*
X29848645Y-102289822D01*
X29632412Y-102484731D01*
X29458359Y-102718080D01*
X29333175Y-102980901D01*
X29288524Y-103128110D01*
X29409845Y-103358000D01*
X30603000Y-103358000D01*
X30603000Y-103338000D01*
X30857000Y-103338000D01*
X30857000Y-103358000D01*
X32050155Y-103358000D01*
X32171476Y-103128110D01*
X32126825Y-102980901D01*
X32001641Y-102718080D01*
X31827588Y-102484731D01*
X31611355Y-102289822D01*
X31361252Y-102140843D01*
X31203828Y-102085000D01*
X34012068Y-102085000D01*
X33753081Y-102208358D01*
X33519732Y-102382411D01*
X33324823Y-102598644D01*
X33175844Y-102848747D01*
X33078520Y-103123108D01*
X33199187Y-103352999D01*
X34393001Y-103352999D01*
X34393001Y-103332999D01*
X34647001Y-103332999D01*
X34647001Y-103352999D01*
X36933001Y-103352999D01*
X36933001Y-103332999D01*
X37187001Y-103332999D01*
X37187001Y-103352999D01*
X39473001Y-103352999D01*
X39473001Y-103332999D01*
X39727001Y-103332999D01*
X39727001Y-103352999D01*
X42013001Y-103352999D01*
X42013001Y-103332999D01*
X42267001Y-103332999D01*
X42267001Y-103352999D01*
X44553001Y-103352999D01*
X44553001Y-103332999D01*
X44807001Y-103332999D01*
X44807001Y-103352999D01*
X47093001Y-103352999D01*
X47093001Y-103332999D01*
X47347001Y-103332999D01*
X47347001Y-103352999D01*
X49633001Y-103352999D01*
X49633001Y-103332999D01*
X49887001Y-103332999D01*
X49887001Y-103352999D01*
X52173001Y-103352999D01*
X52173001Y-103332999D01*
X52427001Y-103332999D01*
X52427001Y-103352999D01*
X53620815Y-103352999D01*
X53741482Y-103123108D01*
X53644158Y-102848747D01*
X53495179Y-102598644D01*
X53300270Y-102382411D01*
X53066921Y-102208358D01*
X52807934Y-102085000D01*
X64094053Y-102085000D01*
X64375021Y-102112549D01*
X64610712Y-102183708D01*
X64828089Y-102299291D01*
X65018879Y-102454895D01*
X65175811Y-102644593D01*
X65292906Y-102861157D01*
X65365709Y-103096344D01*
X65395000Y-103375028D01*
X65395001Y-141739982D01*
X65360537Y-141675506D01*
X65281185Y-141578815D01*
X65184494Y-141499463D01*
X65074180Y-141440498D01*
X64954482Y-141404188D01*
X64830000Y-141391928D01*
X63130000Y-141391928D01*
X63005518Y-141404188D01*
X62885820Y-141440498D01*
X62775506Y-141499463D01*
X62678815Y-141578815D01*
X62599463Y-141675506D01*
X62540498Y-141785820D01*
X62516034Y-141866466D01*
X62440269Y-141782412D01*
X62206920Y-141608359D01*
X61944099Y-141483175D01*
X61796890Y-141438524D01*
X61567000Y-141559845D01*
X61567000Y-142753000D01*
X61587000Y-142753000D01*
X61587000Y-143007000D01*
X61567000Y-143007000D01*
X61567000Y-144200155D01*
X61796890Y-144321476D01*
X61944099Y-144276825D01*
X62206920Y-144151641D01*
X62440269Y-143977588D01*
X62516034Y-143893534D01*
X62540498Y-143974180D01*
X62599463Y-144084494D01*
X62678815Y-144181185D01*
X62775506Y-144260537D01*
X62885820Y-144319502D01*
X63005518Y-144355812D01*
X63130000Y-144368072D01*
X64830000Y-144368072D01*
X64954482Y-144355812D01*
X65074180Y-144319502D01*
X65184494Y-144260537D01*
X65281185Y-144181185D01*
X65360537Y-144084494D01*
X65395001Y-144020018D01*
X65395001Y-149284043D01*
X65367451Y-149565021D01*
X65296291Y-149800712D01*
X65180711Y-150018088D01*
X65025104Y-150208879D01*
X64835408Y-150365811D01*
X64618843Y-150482906D01*
X64383656Y-150555709D01*
X64104783Y-150585020D01*
X46554377Y-150598555D01*
X46590537Y-150554494D01*
X46649502Y-150444180D01*
X46685812Y-150324482D01*
X46698072Y-150200000D01*
X46698072Y-149373137D01*
X49015000Y-149373137D01*
X49015000Y-149586863D01*
X49056696Y-149796483D01*
X49138485Y-149993940D01*
X49257225Y-150171647D01*
X49408353Y-150322775D01*
X49586060Y-150441515D01*
X49783517Y-150523304D01*
X49993137Y-150565000D01*
X50206863Y-150565000D01*
X50416483Y-150523304D01*
X50613940Y-150441515D01*
X50791647Y-150322775D01*
X50942775Y-150171647D01*
X51061515Y-149993940D01*
X51143304Y-149796483D01*
X51185000Y-149586863D01*
X51185000Y-149373137D01*
X52015000Y-149373137D01*
X52015000Y-149586863D01*
X52056696Y-149796483D01*
X52138485Y-149993940D01*
X52257225Y-150171647D01*
X52408353Y-150322775D01*
X52586060Y-150441515D01*
X52783517Y-150523304D01*
X52993137Y-150565000D01*
X53206863Y-150565000D01*
X53416483Y-150523304D01*
X53613940Y-150441515D01*
X53791647Y-150322775D01*
X53942775Y-150171647D01*
X54061515Y-149993940D01*
X54143304Y-149796483D01*
X54185000Y-149586863D01*
X54185000Y-149373137D01*
X54176049Y-149328137D01*
X58040000Y-149328137D01*
X58040000Y-149541863D01*
X58081696Y-149751483D01*
X58163485Y-149948940D01*
X58282225Y-150126647D01*
X58433353Y-150277775D01*
X58611060Y-150396515D01*
X58808517Y-150478304D01*
X59018137Y-150520000D01*
X59231863Y-150520000D01*
X59441483Y-150478304D01*
X59638940Y-150396515D01*
X59816647Y-150277775D01*
X59967775Y-150126647D01*
X60086515Y-149948940D01*
X60168304Y-149751483D01*
X60210000Y-149541863D01*
X60210000Y-149328137D01*
X61040000Y-149328137D01*
X61040000Y-149541863D01*
X61081696Y-149751483D01*
X61163485Y-149948940D01*
X61282225Y-150126647D01*
X61433353Y-150277775D01*
X61611060Y-150396515D01*
X61808517Y-150478304D01*
X62018137Y-150520000D01*
X62231863Y-150520000D01*
X62441483Y-150478304D01*
X62638940Y-150396515D01*
X62816647Y-150277775D01*
X62967775Y-150126647D01*
X63086515Y-149948940D01*
X63168304Y-149751483D01*
X63210000Y-149541863D01*
X63210000Y-149328137D01*
X63168304Y-149118517D01*
X63086515Y-148921060D01*
X62967775Y-148743353D01*
X62816647Y-148592225D01*
X62638940Y-148473485D01*
X62441483Y-148391696D01*
X62231863Y-148350000D01*
X62018137Y-148350000D01*
X61808517Y-148391696D01*
X61611060Y-148473485D01*
X61433353Y-148592225D01*
X61282225Y-148743353D01*
X61163485Y-148921060D01*
X61081696Y-149118517D01*
X61040000Y-149328137D01*
X60210000Y-149328137D01*
X60168304Y-149118517D01*
X60086515Y-148921060D01*
X59967775Y-148743353D01*
X59816647Y-148592225D01*
X59697147Y-148512378D01*
X59826028Y-148426262D01*
X59956262Y-148296028D01*
X60058586Y-148142889D01*
X60129068Y-147972729D01*
X60165000Y-147792089D01*
X60165000Y-147607911D01*
X60129068Y-147427271D01*
X60058586Y-147257111D01*
X59956262Y-147103972D01*
X59826028Y-146973738D01*
X59693260Y-146885025D01*
X59736440Y-146902911D01*
X59897760Y-146935000D01*
X60062240Y-146935000D01*
X60223560Y-146902911D01*
X60375521Y-146839967D01*
X60512281Y-146748587D01*
X60628587Y-146632281D01*
X60719967Y-146495521D01*
X60782911Y-146343560D01*
X60815000Y-146182240D01*
X60815000Y-146017760D01*
X60782911Y-145856440D01*
X60719967Y-145704479D01*
X60628587Y-145567719D01*
X60512281Y-145451413D01*
X60375521Y-145360033D01*
X60223560Y-145297089D01*
X60062240Y-145265000D01*
X59897760Y-145265000D01*
X59736440Y-145297089D01*
X59584479Y-145360033D01*
X59447719Y-145451413D01*
X59331413Y-145567719D01*
X59240033Y-145704479D01*
X59177089Y-145856440D01*
X59145000Y-146017760D01*
X59145000Y-146182240D01*
X59177089Y-146343560D01*
X59240033Y-146495521D01*
X59331413Y-146632281D01*
X59447719Y-146748587D01*
X59564109Y-146826356D01*
X59502729Y-146800932D01*
X59322089Y-146765000D01*
X59137911Y-146765000D01*
X58957271Y-146800932D01*
X58787111Y-146871414D01*
X58633972Y-146973738D01*
X58503738Y-147103972D01*
X58401414Y-147257111D01*
X58330932Y-147427271D01*
X58295000Y-147607911D01*
X58295000Y-147792089D01*
X58330932Y-147972729D01*
X58401414Y-148142889D01*
X58503738Y-148296028D01*
X58633972Y-148426262D01*
X58668832Y-148449555D01*
X58611060Y-148473485D01*
X58433353Y-148592225D01*
X58282225Y-148743353D01*
X58163485Y-148921060D01*
X58081696Y-149118517D01*
X58040000Y-149328137D01*
X54176049Y-149328137D01*
X54143304Y-149163517D01*
X54061515Y-148966060D01*
X53942775Y-148788353D01*
X53791647Y-148637225D01*
X53613940Y-148518485D01*
X53416483Y-148436696D01*
X53206863Y-148395000D01*
X52993137Y-148395000D01*
X52783517Y-148436696D01*
X52586060Y-148518485D01*
X52408353Y-148637225D01*
X52257225Y-148788353D01*
X52138485Y-148966060D01*
X52056696Y-149163517D01*
X52015000Y-149373137D01*
X51185000Y-149373137D01*
X51143304Y-149163517D01*
X51061515Y-148966060D01*
X50942775Y-148788353D01*
X50791647Y-148637225D01*
X50638388Y-148534821D01*
X50726028Y-148476262D01*
X50856262Y-148346028D01*
X50958586Y-148192889D01*
X51029068Y-148022729D01*
X51065000Y-147842089D01*
X51065000Y-147657911D01*
X51029068Y-147477271D01*
X50958586Y-147307111D01*
X50856262Y-147153972D01*
X50726028Y-147023738D01*
X50572889Y-146921414D01*
X50402729Y-146850932D01*
X50222089Y-146815000D01*
X50037911Y-146815000D01*
X49857271Y-146850932D01*
X49687111Y-146921414D01*
X49533972Y-147023738D01*
X49403738Y-147153972D01*
X49301414Y-147307111D01*
X49230932Y-147477271D01*
X49195000Y-147657911D01*
X49195000Y-147842089D01*
X49230932Y-148022729D01*
X49301414Y-148192889D01*
X49403738Y-148346028D01*
X49533972Y-148476262D01*
X49592914Y-148515646D01*
X49586060Y-148518485D01*
X49408353Y-148637225D01*
X49257225Y-148788353D01*
X49138485Y-148966060D01*
X49056696Y-149163517D01*
X49015000Y-149373137D01*
X46698072Y-149373137D01*
X46698072Y-148500000D01*
X46685812Y-148375518D01*
X46649502Y-148255820D01*
X46590537Y-148145506D01*
X46511185Y-148048815D01*
X46414494Y-147969463D01*
X46304180Y-147910498D01*
X46184482Y-147874188D01*
X46060000Y-147861928D01*
X44360000Y-147861928D01*
X44235518Y-147874188D01*
X44115820Y-147910498D01*
X44005506Y-147969463D01*
X43908815Y-148048815D01*
X43829463Y-148145506D01*
X43770498Y-148255820D01*
X43746034Y-148336466D01*
X43670269Y-148252412D01*
X43436920Y-148078359D01*
X43174099Y-147953175D01*
X43026890Y-147908524D01*
X42797000Y-148029845D01*
X42797000Y-149223000D01*
X42817000Y-149223000D01*
X42817000Y-149477000D01*
X42797000Y-149477000D01*
X42797000Y-149497000D01*
X42543000Y-149497000D01*
X42543000Y-149477000D01*
X42523000Y-149477000D01*
X42523000Y-149223000D01*
X42543000Y-149223000D01*
X42543000Y-148029845D01*
X42313110Y-147908524D01*
X42165901Y-147953175D01*
X41903080Y-148078359D01*
X41669731Y-148252412D01*
X41474822Y-148468645D01*
X41405195Y-148585534D01*
X41283475Y-148403368D01*
X41076632Y-148196525D01*
X40833411Y-148034010D01*
X40563158Y-147922068D01*
X40276260Y-147865000D01*
X39983740Y-147865000D01*
X39696842Y-147922068D01*
X39426589Y-148034010D01*
X39183368Y-148196525D01*
X38976525Y-148403368D01*
X38860000Y-148577760D01*
X38743475Y-148403368D01*
X38536632Y-148196525D01*
X38293411Y-148034010D01*
X38023158Y-147922068D01*
X37736260Y-147865000D01*
X37443740Y-147865000D01*
X37156842Y-147922068D01*
X36886589Y-148034010D01*
X36643368Y-148196525D01*
X36436525Y-148403368D01*
X36274010Y-148646589D01*
X36162068Y-148916842D01*
X36105000Y-149203740D01*
X36105000Y-149496260D01*
X36162068Y-149783158D01*
X36274010Y-150053411D01*
X36436525Y-150296632D01*
X36643368Y-150503475D01*
X36796927Y-150606080D01*
X25265674Y-150614973D01*
X24984979Y-150587451D01*
X24749288Y-150516291D01*
X24531912Y-150400711D01*
X24341121Y-150245104D01*
X24184189Y-150055408D01*
X24067094Y-149838843D01*
X23994291Y-149603656D01*
X23964983Y-149324814D01*
X23963839Y-147570000D01*
X24981928Y-147570000D01*
X24981928Y-149270000D01*
X24994188Y-149394482D01*
X25030498Y-149514180D01*
X25089463Y-149624494D01*
X25168815Y-149721185D01*
X25265506Y-149800537D01*
X25375820Y-149859502D01*
X25495518Y-149895812D01*
X25620000Y-149908072D01*
X27320000Y-149908072D01*
X27444482Y-149895812D01*
X27564180Y-149859502D01*
X27674494Y-149800537D01*
X27771185Y-149721185D01*
X27850537Y-149624494D01*
X27909502Y-149514180D01*
X27945812Y-149394482D01*
X27958072Y-149270000D01*
X27958072Y-147570000D01*
X27945812Y-147445518D01*
X27909502Y-147325820D01*
X27850537Y-147215506D01*
X27771185Y-147118815D01*
X27674494Y-147039463D01*
X27564180Y-146980498D01*
X27483534Y-146956034D01*
X27567588Y-146880269D01*
X27741641Y-146646920D01*
X27866825Y-146384099D01*
X27911476Y-146236890D01*
X27790155Y-146007000D01*
X26597000Y-146007000D01*
X26597000Y-146027000D01*
X26343000Y-146027000D01*
X26343000Y-146007000D01*
X25149845Y-146007000D01*
X25028524Y-146236890D01*
X25073175Y-146384099D01*
X25198359Y-146646920D01*
X25372412Y-146880269D01*
X25456466Y-146956034D01*
X25375820Y-146980498D01*
X25265506Y-147039463D01*
X25168815Y-147118815D01*
X25089463Y-147215506D01*
X25030498Y-147325820D01*
X24994188Y-147445518D01*
X24981928Y-147570000D01*
X23963839Y-147570000D01*
X23959329Y-140653740D01*
X24985000Y-140653740D01*
X24985000Y-140946260D01*
X25042068Y-141233158D01*
X25154010Y-141503411D01*
X25316525Y-141746632D01*
X25523368Y-141953475D01*
X25697760Y-142070000D01*
X25523368Y-142186525D01*
X25316525Y-142393368D01*
X25154010Y-142636589D01*
X25042068Y-142906842D01*
X24985000Y-143193740D01*
X24985000Y-143486260D01*
X25042068Y-143773158D01*
X25154010Y-144043411D01*
X25316525Y-144286632D01*
X25523368Y-144493475D01*
X25705534Y-144615195D01*
X25588645Y-144684822D01*
X25372412Y-144879731D01*
X25198359Y-145113080D01*
X25073175Y-145375901D01*
X25028524Y-145523110D01*
X25149845Y-145753000D01*
X26343000Y-145753000D01*
X26343000Y-145733000D01*
X26597000Y-145733000D01*
X26597000Y-145753000D01*
X27790155Y-145753000D01*
X27911476Y-145523110D01*
X27866825Y-145375901D01*
X27741641Y-145113080D01*
X27567588Y-144879731D01*
X27554308Y-144867760D01*
X36895000Y-144867760D01*
X36895000Y-145032240D01*
X36927089Y-145193560D01*
X36990033Y-145345521D01*
X37081413Y-145482281D01*
X37197719Y-145598587D01*
X37334479Y-145689967D01*
X37486440Y-145752911D01*
X37647760Y-145785000D01*
X37812240Y-145785000D01*
X37973560Y-145752911D01*
X38125521Y-145689967D01*
X38262281Y-145598587D01*
X38378587Y-145482281D01*
X38469967Y-145345521D01*
X38481465Y-145317760D01*
X51845000Y-145317760D01*
X51845000Y-145482240D01*
X51877089Y-145643560D01*
X51940033Y-145795521D01*
X52031413Y-145932281D01*
X52147719Y-146048587D01*
X52284479Y-146139967D01*
X52436440Y-146202911D01*
X52597760Y-146235000D01*
X52762240Y-146235000D01*
X52923560Y-146202911D01*
X53075521Y-146139967D01*
X53212281Y-146048587D01*
X53328587Y-145932281D01*
X53419967Y-145795521D01*
X53482911Y-145643560D01*
X53515000Y-145482240D01*
X53515000Y-145317760D01*
X53482911Y-145156440D01*
X53419967Y-145004479D01*
X53328587Y-144867719D01*
X53212281Y-144751413D01*
X53075521Y-144660033D01*
X52923560Y-144597089D01*
X52762240Y-144565000D01*
X52597760Y-144565000D01*
X52436440Y-144597089D01*
X52284479Y-144660033D01*
X52147719Y-144751413D01*
X52031413Y-144867719D01*
X51940033Y-145004479D01*
X51877089Y-145156440D01*
X51845000Y-145317760D01*
X38481465Y-145317760D01*
X38532911Y-145193560D01*
X38565000Y-145032240D01*
X38565000Y-144867760D01*
X38532911Y-144706440D01*
X38469967Y-144554479D01*
X38378587Y-144417719D01*
X38262281Y-144301413D01*
X38125521Y-144210033D01*
X37973560Y-144147089D01*
X37812240Y-144115000D01*
X37647760Y-144115000D01*
X37486440Y-144147089D01*
X37334479Y-144210033D01*
X37197719Y-144301413D01*
X37081413Y-144417719D01*
X36990033Y-144554479D01*
X36927089Y-144706440D01*
X36895000Y-144867760D01*
X27554308Y-144867760D01*
X27351355Y-144684822D01*
X27234466Y-144615195D01*
X27416632Y-144493475D01*
X27623475Y-144286632D01*
X27785990Y-144043411D01*
X27897932Y-143773158D01*
X27955000Y-143486260D01*
X27955000Y-143193740D01*
X27897932Y-142906842D01*
X27815533Y-142707911D01*
X36695000Y-142707911D01*
X36695000Y-142892089D01*
X36730932Y-143072729D01*
X36801414Y-143242889D01*
X36903738Y-143396028D01*
X37033972Y-143526262D01*
X37187111Y-143628586D01*
X37357271Y-143699068D01*
X37537911Y-143735000D01*
X37722089Y-143735000D01*
X37858272Y-143707911D01*
X47695000Y-143707911D01*
X47695000Y-143892089D01*
X47730932Y-144072729D01*
X47801414Y-144242889D01*
X47903738Y-144396028D01*
X48033972Y-144526262D01*
X48187111Y-144628586D01*
X48357271Y-144699068D01*
X48537911Y-144735000D01*
X48722089Y-144735000D01*
X48902729Y-144699068D01*
X49072889Y-144628586D01*
X49226028Y-144526262D01*
X49356262Y-144396028D01*
X49458586Y-144242889D01*
X49529068Y-144072729D01*
X49565000Y-143892089D01*
X49565000Y-143707911D01*
X49529068Y-143527271D01*
X49458586Y-143357111D01*
X49356262Y-143203972D01*
X49226028Y-143073738D01*
X49072889Y-142971414D01*
X48902729Y-142900932D01*
X48722089Y-142865000D01*
X48537911Y-142865000D01*
X48357271Y-142900932D01*
X48187111Y-142971414D01*
X48033972Y-143073738D01*
X47903738Y-143203972D01*
X47801414Y-143357111D01*
X47730932Y-143527271D01*
X47695000Y-143707911D01*
X37858272Y-143707911D01*
X37902729Y-143699068D01*
X38072889Y-143628586D01*
X38226028Y-143526262D01*
X38356262Y-143396028D01*
X38458586Y-143242889D01*
X38529068Y-143072729D01*
X38565000Y-142892089D01*
X38565000Y-142733740D01*
X54875000Y-142733740D01*
X54875000Y-143026260D01*
X54932068Y-143313158D01*
X55044010Y-143583411D01*
X55206525Y-143826632D01*
X55413368Y-144033475D01*
X55656589Y-144195990D01*
X55926842Y-144307932D01*
X56213740Y-144365000D01*
X56506260Y-144365000D01*
X56793158Y-144307932D01*
X57063411Y-144195990D01*
X57306632Y-144033475D01*
X57513475Y-143826632D01*
X57630000Y-143652240D01*
X57746525Y-143826632D01*
X57953368Y-144033475D01*
X58196589Y-144195990D01*
X58466842Y-144307932D01*
X58753740Y-144365000D01*
X59046260Y-144365000D01*
X59333158Y-144307932D01*
X59603411Y-144195990D01*
X59846632Y-144033475D01*
X60053475Y-143826632D01*
X60175195Y-143644466D01*
X60244822Y-143761355D01*
X60439731Y-143977588D01*
X60673080Y-144151641D01*
X60935901Y-144276825D01*
X61083110Y-144321476D01*
X61313000Y-144200155D01*
X61313000Y-143007000D01*
X61293000Y-143007000D01*
X61293000Y-142753000D01*
X61313000Y-142753000D01*
X61313000Y-141559845D01*
X61083110Y-141438524D01*
X60935901Y-141483175D01*
X60673080Y-141608359D01*
X60439731Y-141782412D01*
X60244822Y-141998645D01*
X60175195Y-142115534D01*
X60053475Y-141933368D01*
X59846632Y-141726525D01*
X59603411Y-141564010D01*
X59333158Y-141452068D01*
X59046260Y-141395000D01*
X58753740Y-141395000D01*
X58466842Y-141452068D01*
X58196589Y-141564010D01*
X57953368Y-141726525D01*
X57746525Y-141933368D01*
X57630000Y-142107760D01*
X57513475Y-141933368D01*
X57306632Y-141726525D01*
X57063411Y-141564010D01*
X56793158Y-141452068D01*
X56506260Y-141395000D01*
X56213740Y-141395000D01*
X55926842Y-141452068D01*
X55656589Y-141564010D01*
X55413368Y-141726525D01*
X55206525Y-141933368D01*
X55044010Y-142176589D01*
X54932068Y-142446842D01*
X54875000Y-142733740D01*
X38565000Y-142733740D01*
X38565000Y-142707911D01*
X38529068Y-142527271D01*
X38458586Y-142357111D01*
X38356262Y-142203972D01*
X38226028Y-142073738D01*
X38072889Y-141971414D01*
X37902729Y-141900932D01*
X37722089Y-141865000D01*
X37537911Y-141865000D01*
X37357271Y-141900932D01*
X37187111Y-141971414D01*
X37033972Y-142073738D01*
X36903738Y-142203972D01*
X36801414Y-142357111D01*
X36730932Y-142527271D01*
X36695000Y-142707911D01*
X27815533Y-142707911D01*
X27785990Y-142636589D01*
X27623475Y-142393368D01*
X27416632Y-142186525D01*
X27242240Y-142070000D01*
X27416632Y-141953475D01*
X27623475Y-141746632D01*
X27785990Y-141503411D01*
X27897932Y-141233158D01*
X27955000Y-140946260D01*
X27955000Y-140653740D01*
X27897932Y-140366842D01*
X27785990Y-140096589D01*
X27623475Y-139853368D01*
X27416632Y-139646525D01*
X27284012Y-139557911D01*
X36795000Y-139557911D01*
X36795000Y-139742089D01*
X36830932Y-139922729D01*
X36901414Y-140092889D01*
X37003738Y-140246028D01*
X37133972Y-140376262D01*
X37287111Y-140478586D01*
X37457271Y-140549068D01*
X37637911Y-140585000D01*
X37822089Y-140585000D01*
X37958272Y-140557911D01*
X47995000Y-140557911D01*
X47995000Y-140742089D01*
X48030932Y-140922729D01*
X48101414Y-141092889D01*
X48203738Y-141246028D01*
X48333972Y-141376262D01*
X48487111Y-141478586D01*
X48657271Y-141549068D01*
X48837911Y-141585000D01*
X49022089Y-141585000D01*
X49202729Y-141549068D01*
X49372889Y-141478586D01*
X49526028Y-141376262D01*
X49656262Y-141246028D01*
X49758586Y-141092889D01*
X49829068Y-140922729D01*
X49865000Y-140742089D01*
X49865000Y-140557911D01*
X49829068Y-140377271D01*
X49758586Y-140207111D01*
X49656262Y-140053972D01*
X49526028Y-139923738D01*
X49372889Y-139821414D01*
X49202729Y-139750932D01*
X49022089Y-139715000D01*
X48837911Y-139715000D01*
X48657271Y-139750932D01*
X48487111Y-139821414D01*
X48333972Y-139923738D01*
X48203738Y-140053972D01*
X48101414Y-140207111D01*
X48030932Y-140377271D01*
X47995000Y-140557911D01*
X37958272Y-140557911D01*
X38002729Y-140549068D01*
X38172889Y-140478586D01*
X38326028Y-140376262D01*
X38456262Y-140246028D01*
X38558586Y-140092889D01*
X38629068Y-139922729D01*
X38665000Y-139742089D01*
X38665000Y-139557911D01*
X38629068Y-139377271D01*
X38558586Y-139207111D01*
X38456262Y-139053972D01*
X38326028Y-138923738D01*
X38172889Y-138821414D01*
X38002729Y-138750932D01*
X37822089Y-138715000D01*
X37637911Y-138715000D01*
X37457271Y-138750932D01*
X37287111Y-138821414D01*
X37133972Y-138923738D01*
X37003738Y-139053972D01*
X36901414Y-139207111D01*
X36830932Y-139377271D01*
X36795000Y-139557911D01*
X27284012Y-139557911D01*
X27173411Y-139484010D01*
X26903158Y-139372068D01*
X26616260Y-139315000D01*
X26323740Y-139315000D01*
X26036842Y-139372068D01*
X25766589Y-139484010D01*
X25523368Y-139646525D01*
X25316525Y-139853368D01*
X25154010Y-140096589D01*
X25042068Y-140366842D01*
X24985000Y-140653740D01*
X23959329Y-140653740D01*
X23951331Y-128390000D01*
X25011928Y-128390000D01*
X25011928Y-130090000D01*
X25024188Y-130214482D01*
X25060498Y-130334180D01*
X25119463Y-130444494D01*
X25198815Y-130541185D01*
X25295506Y-130620537D01*
X25405820Y-130679502D01*
X25478380Y-130701513D01*
X25346525Y-130833368D01*
X25184010Y-131076589D01*
X25072068Y-131346842D01*
X25015000Y-131633740D01*
X25015000Y-131926260D01*
X25072068Y-132213158D01*
X25184010Y-132483411D01*
X25346525Y-132726632D01*
X25553368Y-132933475D01*
X25727760Y-133050000D01*
X25553368Y-133166525D01*
X25346525Y-133373368D01*
X25184010Y-133616589D01*
X25072068Y-133886842D01*
X25015000Y-134173740D01*
X25015000Y-134466260D01*
X25072068Y-134753158D01*
X25184010Y-135023411D01*
X25346525Y-135266632D01*
X25553368Y-135473475D01*
X25727760Y-135590000D01*
X25553368Y-135706525D01*
X25346525Y-135913368D01*
X25184010Y-136156589D01*
X25072068Y-136426842D01*
X25015000Y-136713740D01*
X25015000Y-137006260D01*
X25072068Y-137293158D01*
X25184010Y-137563411D01*
X25346525Y-137806632D01*
X25553368Y-138013475D01*
X25796589Y-138175990D01*
X26066842Y-138287932D01*
X26353740Y-138345000D01*
X26646260Y-138345000D01*
X26933158Y-138287932D01*
X27203411Y-138175990D01*
X27446632Y-138013475D01*
X27653475Y-137806632D01*
X27686029Y-137757911D01*
X33795000Y-137757911D01*
X33795000Y-137942089D01*
X33830932Y-138122729D01*
X33901414Y-138292889D01*
X34003738Y-138446028D01*
X34133972Y-138576262D01*
X34287111Y-138678586D01*
X34457271Y-138749068D01*
X34637911Y-138785000D01*
X34822089Y-138785000D01*
X35002729Y-138749068D01*
X35172889Y-138678586D01*
X35326028Y-138576262D01*
X35456262Y-138446028D01*
X35558586Y-138292889D01*
X35629068Y-138122729D01*
X35651907Y-138007911D01*
X39795000Y-138007911D01*
X39795000Y-138192089D01*
X39830932Y-138372729D01*
X39901414Y-138542889D01*
X40003738Y-138696028D01*
X40133972Y-138826262D01*
X40287111Y-138928586D01*
X40457271Y-138999068D01*
X40637911Y-139035000D01*
X40822089Y-139035000D01*
X41002729Y-138999068D01*
X41172889Y-138928586D01*
X41326028Y-138826262D01*
X41456262Y-138696028D01*
X41558586Y-138542889D01*
X41629068Y-138372729D01*
X41665000Y-138192089D01*
X41665000Y-138007911D01*
X41629068Y-137827271D01*
X41558586Y-137657111D01*
X41456262Y-137503972D01*
X41326028Y-137373738D01*
X41172889Y-137271414D01*
X41002729Y-137200932D01*
X40822089Y-137165000D01*
X40637911Y-137165000D01*
X40457271Y-137200932D01*
X40287111Y-137271414D01*
X40133972Y-137373738D01*
X40003738Y-137503972D01*
X39901414Y-137657111D01*
X39830932Y-137827271D01*
X39795000Y-138007911D01*
X35651907Y-138007911D01*
X35665000Y-137942089D01*
X35665000Y-137757911D01*
X35629068Y-137577271D01*
X35558586Y-137407111D01*
X35456262Y-137253972D01*
X35326028Y-137123738D01*
X35172889Y-137021414D01*
X35002729Y-136950932D01*
X34822089Y-136915000D01*
X34637911Y-136915000D01*
X34457271Y-136950932D01*
X34287111Y-137021414D01*
X34133972Y-137123738D01*
X34003738Y-137253972D01*
X33901414Y-137407111D01*
X33830932Y-137577271D01*
X33795000Y-137757911D01*
X27686029Y-137757911D01*
X27815990Y-137563411D01*
X27927932Y-137293158D01*
X27985000Y-137006260D01*
X27985000Y-136713740D01*
X27927932Y-136426842D01*
X27815990Y-136156589D01*
X27653475Y-135913368D01*
X27446632Y-135706525D01*
X27272240Y-135590000D01*
X27380354Y-135517760D01*
X28245000Y-135517760D01*
X28245000Y-135682240D01*
X28277089Y-135843560D01*
X28340033Y-135995521D01*
X28431413Y-136132281D01*
X28547719Y-136248587D01*
X28684479Y-136339967D01*
X28836440Y-136402911D01*
X28997760Y-136435000D01*
X29162240Y-136435000D01*
X29323560Y-136402911D01*
X29475521Y-136339967D01*
X29612281Y-136248587D01*
X29728587Y-136132281D01*
X29819967Y-135995521D01*
X29872824Y-135867911D01*
X30265000Y-135867911D01*
X30265000Y-136052089D01*
X30300932Y-136232729D01*
X30371414Y-136402889D01*
X30473738Y-136556028D01*
X30603972Y-136686262D01*
X30757111Y-136788586D01*
X30927271Y-136859068D01*
X31107911Y-136895000D01*
X31292089Y-136895000D01*
X31472729Y-136859068D01*
X31642889Y-136788586D01*
X31796028Y-136686262D01*
X31926262Y-136556028D01*
X32028586Y-136402889D01*
X32047216Y-136357911D01*
X46095000Y-136357911D01*
X46095000Y-136542089D01*
X46130932Y-136722729D01*
X46201414Y-136892889D01*
X46303738Y-137046028D01*
X46433972Y-137176262D01*
X46587111Y-137278586D01*
X46757271Y-137349068D01*
X46937911Y-137385000D01*
X47122089Y-137385000D01*
X47302729Y-137349068D01*
X47472889Y-137278586D01*
X47626028Y-137176262D01*
X47756262Y-137046028D01*
X47858586Y-136892889D01*
X47929068Y-136722729D01*
X47965000Y-136542089D01*
X47965000Y-136357911D01*
X47929068Y-136177271D01*
X47858586Y-136007111D01*
X47756262Y-135853972D01*
X47626028Y-135723738D01*
X47472889Y-135621414D01*
X47302729Y-135550932D01*
X47122089Y-135515000D01*
X46937911Y-135515000D01*
X46757271Y-135550932D01*
X46587111Y-135621414D01*
X46433972Y-135723738D01*
X46303738Y-135853972D01*
X46201414Y-136007111D01*
X46130932Y-136177271D01*
X46095000Y-136357911D01*
X32047216Y-136357911D01*
X32099068Y-136232729D01*
X32135000Y-136052089D01*
X32135000Y-135867911D01*
X32099068Y-135687271D01*
X32028586Y-135517111D01*
X31979740Y-135444008D01*
X32126028Y-135346262D01*
X32256262Y-135216028D01*
X32358586Y-135062889D01*
X32429068Y-134892729D01*
X32465000Y-134712089D01*
X32465000Y-134657911D01*
X38195000Y-134657911D01*
X38195000Y-134842089D01*
X38230932Y-135022729D01*
X38301414Y-135192889D01*
X38403738Y-135346028D01*
X38533972Y-135476262D01*
X38687111Y-135578586D01*
X38857271Y-135649068D01*
X39037911Y-135685000D01*
X39222089Y-135685000D01*
X39402729Y-135649068D01*
X39572889Y-135578586D01*
X39726028Y-135476262D01*
X39856262Y-135346028D01*
X39908558Y-135267760D01*
X42895000Y-135267760D01*
X42895000Y-135432240D01*
X42927089Y-135593560D01*
X42990033Y-135745521D01*
X43081413Y-135882281D01*
X43197719Y-135998587D01*
X43334479Y-136089967D01*
X43486440Y-136152911D01*
X43647760Y-136185000D01*
X43812240Y-136185000D01*
X43973560Y-136152911D01*
X44125521Y-136089967D01*
X44262281Y-135998587D01*
X44378587Y-135882281D01*
X44469967Y-135745521D01*
X44532911Y-135593560D01*
X44565000Y-135432240D01*
X44565000Y-135267760D01*
X44532911Y-135106440D01*
X44469967Y-134954479D01*
X44378587Y-134817719D01*
X44262281Y-134701413D01*
X44125521Y-134610033D01*
X43973560Y-134547089D01*
X43812240Y-134515000D01*
X43647760Y-134515000D01*
X43486440Y-134547089D01*
X43334479Y-134610033D01*
X43197719Y-134701413D01*
X43081413Y-134817719D01*
X42990033Y-134954479D01*
X42927089Y-135106440D01*
X42895000Y-135267760D01*
X39908558Y-135267760D01*
X39958586Y-135192889D01*
X40029068Y-135022729D01*
X40065000Y-134842089D01*
X40065000Y-134657911D01*
X40029068Y-134477271D01*
X39958586Y-134307111D01*
X39856262Y-134153972D01*
X39726028Y-134023738D01*
X39572889Y-133921414D01*
X39402729Y-133850932D01*
X39222089Y-133815000D01*
X39037911Y-133815000D01*
X38857271Y-133850932D01*
X38687111Y-133921414D01*
X38533972Y-134023738D01*
X38403738Y-134153972D01*
X38301414Y-134307111D01*
X38230932Y-134477271D01*
X38195000Y-134657911D01*
X32465000Y-134657911D01*
X32465000Y-134527911D01*
X32429068Y-134347271D01*
X32358586Y-134177111D01*
X32256262Y-134023972D01*
X32126028Y-133893738D01*
X31972889Y-133791414D01*
X31802729Y-133720932D01*
X31622089Y-133685000D01*
X31437911Y-133685000D01*
X31257271Y-133720932D01*
X31087111Y-133791414D01*
X30933972Y-133893738D01*
X30803738Y-134023972D01*
X30701414Y-134177111D01*
X30630932Y-134347271D01*
X30595000Y-134527911D01*
X30595000Y-134712089D01*
X30630932Y-134892729D01*
X30701414Y-135062889D01*
X30750260Y-135135992D01*
X30603972Y-135233738D01*
X30473738Y-135363972D01*
X30371414Y-135517111D01*
X30300932Y-135687271D01*
X30265000Y-135867911D01*
X29872824Y-135867911D01*
X29882911Y-135843560D01*
X29915000Y-135682240D01*
X29915000Y-135517760D01*
X29882911Y-135356440D01*
X29819967Y-135204479D01*
X29728587Y-135067719D01*
X29612281Y-134951413D01*
X29475521Y-134860033D01*
X29323560Y-134797089D01*
X29162240Y-134765000D01*
X28997760Y-134765000D01*
X28836440Y-134797089D01*
X28684479Y-134860033D01*
X28547719Y-134951413D01*
X28431413Y-135067719D01*
X28340033Y-135204479D01*
X28277089Y-135356440D01*
X28245000Y-135517760D01*
X27380354Y-135517760D01*
X27446632Y-135473475D01*
X27653475Y-135266632D01*
X27815990Y-135023411D01*
X27927932Y-134753158D01*
X27985000Y-134466260D01*
X27985000Y-134173740D01*
X27927932Y-133886842D01*
X27815990Y-133616589D01*
X27653475Y-133373368D01*
X27446632Y-133166525D01*
X27272240Y-133050000D01*
X27446632Y-132933475D01*
X27653475Y-132726632D01*
X27815990Y-132483411D01*
X27927932Y-132213158D01*
X27985000Y-131926260D01*
X27985000Y-131633740D01*
X27927932Y-131346842D01*
X27815990Y-131076589D01*
X27653475Y-130833368D01*
X27521620Y-130701513D01*
X27594180Y-130679502D01*
X27704494Y-130620537D01*
X27801185Y-130541185D01*
X27880537Y-130444494D01*
X27939502Y-130334180D01*
X27975812Y-130214482D01*
X27988072Y-130090000D01*
X27988072Y-128390000D01*
X27975812Y-128265518D01*
X27939502Y-128145820D01*
X27880537Y-128035506D01*
X27801185Y-127938815D01*
X27704494Y-127859463D01*
X27594180Y-127800498D01*
X27474482Y-127764188D01*
X27350000Y-127751928D01*
X25650000Y-127751928D01*
X25525518Y-127764188D01*
X25405820Y-127800498D01*
X25295506Y-127859463D01*
X25198815Y-127938815D01*
X25119463Y-128035506D01*
X25060498Y-128145820D01*
X25024188Y-128265518D01*
X25011928Y-128390000D01*
X23951331Y-128390000D01*
X23947610Y-122683740D01*
X25085000Y-122683740D01*
X25085000Y-122976260D01*
X25142068Y-123263158D01*
X25254010Y-123533411D01*
X25416525Y-123776632D01*
X25623368Y-123983475D01*
X25797760Y-124100000D01*
X25623368Y-124216525D01*
X25416525Y-124423368D01*
X25254010Y-124666589D01*
X25142068Y-124936842D01*
X25085000Y-125223740D01*
X25085000Y-125516260D01*
X25142068Y-125803158D01*
X25254010Y-126073411D01*
X25416525Y-126316632D01*
X25623368Y-126523475D01*
X25866589Y-126685990D01*
X26136842Y-126797932D01*
X26423740Y-126855000D01*
X26716260Y-126855000D01*
X27003158Y-126797932D01*
X27273411Y-126685990D01*
X27516632Y-126523475D01*
X27723475Y-126316632D01*
X27822948Y-126167760D01*
X29295000Y-126167760D01*
X29295000Y-126332240D01*
X29327089Y-126493560D01*
X29390033Y-126645521D01*
X29481413Y-126782281D01*
X29597719Y-126898587D01*
X29734479Y-126989967D01*
X29886440Y-127052911D01*
X30047760Y-127085000D01*
X30212240Y-127085000D01*
X30373560Y-127052911D01*
X30525521Y-126989967D01*
X30662281Y-126898587D01*
X30778587Y-126782281D01*
X30869967Y-126645521D01*
X30932911Y-126493560D01*
X30965000Y-126332240D01*
X30965000Y-126167760D01*
X30932911Y-126006440D01*
X30869967Y-125854479D01*
X30778587Y-125717719D01*
X30662281Y-125601413D01*
X30525521Y-125510033D01*
X30373560Y-125447089D01*
X30212240Y-125415000D01*
X30047760Y-125415000D01*
X29886440Y-125447089D01*
X29734479Y-125510033D01*
X29597719Y-125601413D01*
X29481413Y-125717719D01*
X29390033Y-125854479D01*
X29327089Y-126006440D01*
X29295000Y-126167760D01*
X27822948Y-126167760D01*
X27885990Y-126073411D01*
X27997932Y-125803158D01*
X28055000Y-125516260D01*
X28055000Y-125223740D01*
X27997932Y-124936842D01*
X27885990Y-124666589D01*
X27723475Y-124423368D01*
X27516632Y-124216525D01*
X27342240Y-124100000D01*
X27516632Y-123983475D01*
X27723475Y-123776632D01*
X27885990Y-123533411D01*
X27997932Y-123263158D01*
X28006962Y-123217760D01*
X29845000Y-123217760D01*
X29845000Y-123382240D01*
X29877089Y-123543560D01*
X29940033Y-123695521D01*
X30031413Y-123832281D01*
X30147719Y-123948587D01*
X30284479Y-124039967D01*
X30436440Y-124102911D01*
X30597760Y-124135000D01*
X30762240Y-124135000D01*
X30923560Y-124102911D01*
X30930000Y-124100243D01*
X30936440Y-124102911D01*
X31097760Y-124135000D01*
X31164132Y-124135000D01*
X31081413Y-124217719D01*
X30990033Y-124354479D01*
X30927089Y-124506440D01*
X30895000Y-124667760D01*
X30895000Y-124832240D01*
X30927089Y-124993560D01*
X30990033Y-125145521D01*
X31081413Y-125282281D01*
X31197719Y-125398587D01*
X31334479Y-125489967D01*
X31486440Y-125552911D01*
X31587433Y-125573000D01*
X31480000Y-125573000D01*
X31455224Y-125575440D01*
X31431399Y-125582667D01*
X31409443Y-125594403D01*
X31390197Y-125610197D01*
X31374403Y-125629443D01*
X31362667Y-125651399D01*
X31355440Y-125675224D01*
X31353000Y-125700000D01*
X31353000Y-131450000D01*
X31330000Y-131450000D01*
X31330000Y-131577000D01*
X31353000Y-131577000D01*
X31353000Y-131673000D01*
X31330000Y-131673000D01*
X31330000Y-131800000D01*
X31353000Y-131800000D01*
X31353000Y-132450000D01*
X31355440Y-132474776D01*
X31362667Y-132498601D01*
X31374403Y-132520557D01*
X31390197Y-132539803D01*
X31409443Y-132555597D01*
X31431399Y-132567333D01*
X31455224Y-132574560D01*
X31480000Y-132577000D01*
X33913054Y-132577000D01*
X33895000Y-132667760D01*
X33895000Y-132832240D01*
X33927089Y-132993560D01*
X33990033Y-133145521D01*
X34081413Y-133282281D01*
X34197719Y-133398587D01*
X34334479Y-133489967D01*
X34486440Y-133552911D01*
X34647760Y-133585000D01*
X34812240Y-133585000D01*
X34973560Y-133552911D01*
X35125521Y-133489967D01*
X35262281Y-133398587D01*
X35378587Y-133282281D01*
X35469967Y-133145521D01*
X35532911Y-132993560D01*
X35565000Y-132832240D01*
X35565000Y-132667760D01*
X35532911Y-132506440D01*
X35469967Y-132354479D01*
X35378587Y-132217719D01*
X35262281Y-132101413D01*
X35125521Y-132010033D01*
X35052980Y-131979986D01*
X35054560Y-131974776D01*
X35057000Y-131950000D01*
X35057000Y-130177000D01*
X37330000Y-130177000D01*
X37354776Y-130174560D01*
X37378601Y-130167333D01*
X37400557Y-130155597D01*
X37419803Y-130139803D01*
X37435597Y-130120557D01*
X37447333Y-130098601D01*
X37454560Y-130074776D01*
X37457000Y-130050000D01*
X37457000Y-129717760D01*
X39245000Y-129717760D01*
X39245000Y-129882240D01*
X39277089Y-130043560D01*
X39340033Y-130195521D01*
X39431413Y-130332281D01*
X39547719Y-130448587D01*
X39684479Y-130539967D01*
X39836440Y-130602911D01*
X39997760Y-130635000D01*
X40162240Y-130635000D01*
X40323560Y-130602911D01*
X40475521Y-130539967D01*
X40612281Y-130448587D01*
X40728587Y-130332281D01*
X40819967Y-130195521D01*
X40835545Y-130157911D01*
X41845000Y-130157911D01*
X41845000Y-130342089D01*
X41880932Y-130522729D01*
X41951414Y-130692889D01*
X42053738Y-130846028D01*
X42183972Y-130976262D01*
X42337111Y-131078586D01*
X42507271Y-131149068D01*
X42687911Y-131185000D01*
X42872089Y-131185000D01*
X42975000Y-131164529D01*
X42975000Y-131242089D01*
X43010932Y-131422729D01*
X43081414Y-131592889D01*
X43183738Y-131746028D01*
X43313972Y-131876262D01*
X43467111Y-131978586D01*
X43637271Y-132049068D01*
X43817911Y-132085000D01*
X43884299Y-132085000D01*
X43941414Y-132222889D01*
X44043738Y-132376028D01*
X44173972Y-132506262D01*
X44327111Y-132608586D01*
X44495000Y-132678127D01*
X44495000Y-132832240D01*
X44527089Y-132993560D01*
X44590033Y-133145521D01*
X44681413Y-133282281D01*
X44797719Y-133398587D01*
X44934479Y-133489967D01*
X45086440Y-133552911D01*
X45247760Y-133585000D01*
X45412240Y-133585000D01*
X45573560Y-133552911D01*
X45725521Y-133489967D01*
X45862281Y-133398587D01*
X45978587Y-133282281D01*
X46069967Y-133145521D01*
X46132911Y-132993560D01*
X46165000Y-132832240D01*
X46165000Y-132667760D01*
X46132911Y-132506440D01*
X46069967Y-132354479D01*
X45978587Y-132217719D01*
X45862281Y-132101413D01*
X45725521Y-132010033D01*
X45681212Y-131991680D01*
X45705000Y-131872089D01*
X45705000Y-131687911D01*
X45669068Y-131507271D01*
X45618185Y-131384427D01*
X45725521Y-131339967D01*
X45862281Y-131248587D01*
X45978587Y-131132281D01*
X46069967Y-130995521D01*
X46132911Y-130843560D01*
X46165000Y-130682240D01*
X46165000Y-130517760D01*
X46132911Y-130356440D01*
X46069967Y-130204479D01*
X45978587Y-130067719D01*
X45928628Y-130017760D01*
X49895000Y-130017760D01*
X49895000Y-130182240D01*
X49927089Y-130343560D01*
X49990033Y-130495521D01*
X50081413Y-130632281D01*
X50197719Y-130748587D01*
X50334479Y-130839967D01*
X50486440Y-130902911D01*
X50647760Y-130935000D01*
X50812240Y-130935000D01*
X50973560Y-130902911D01*
X51098396Y-130851202D01*
X51167760Y-130865000D01*
X51332240Y-130865000D01*
X51493560Y-130832911D01*
X51645521Y-130769967D01*
X51782281Y-130678587D01*
X51898587Y-130562281D01*
X51989967Y-130425521D01*
X52052911Y-130273560D01*
X52085000Y-130112240D01*
X52085000Y-129947760D01*
X52052911Y-129786440D01*
X51989967Y-129634479D01*
X51898587Y-129497719D01*
X51782281Y-129381413D01*
X51645521Y-129290033D01*
X51493560Y-129227089D01*
X51332240Y-129195000D01*
X51167760Y-129195000D01*
X51006440Y-129227089D01*
X50881604Y-129278798D01*
X50812240Y-129265000D01*
X50647760Y-129265000D01*
X50486440Y-129297089D01*
X50334479Y-129360033D01*
X50197719Y-129451413D01*
X50081413Y-129567719D01*
X49990033Y-129704479D01*
X49927089Y-129856440D01*
X49895000Y-130017760D01*
X45928628Y-130017760D01*
X45862281Y-129951413D01*
X45725521Y-129860033D01*
X45573560Y-129797089D01*
X45412240Y-129765000D01*
X45247760Y-129765000D01*
X45086440Y-129797089D01*
X44934479Y-129860033D01*
X44797719Y-129951413D01*
X44681413Y-130067719D01*
X44590033Y-130204479D01*
X44527089Y-130356440D01*
X44512429Y-130430139D01*
X44506028Y-130423738D01*
X44352889Y-130321414D01*
X44182729Y-130250932D01*
X44002089Y-130215000D01*
X43817911Y-130215000D01*
X43715000Y-130235471D01*
X43715000Y-130157911D01*
X43679068Y-129977271D01*
X43608586Y-129807111D01*
X43506262Y-129653972D01*
X43376028Y-129523738D01*
X43222889Y-129421414D01*
X43052729Y-129350932D01*
X42872089Y-129315000D01*
X42687911Y-129315000D01*
X42507271Y-129350932D01*
X42337111Y-129421414D01*
X42183972Y-129523738D01*
X42053738Y-129653972D01*
X41951414Y-129807111D01*
X41880932Y-129977271D01*
X41845000Y-130157911D01*
X40835545Y-130157911D01*
X40882911Y-130043560D01*
X40915000Y-129882240D01*
X40915000Y-129717760D01*
X40882911Y-129556440D01*
X40819967Y-129404479D01*
X40728587Y-129267719D01*
X40612281Y-129151413D01*
X40475521Y-129060033D01*
X40323560Y-128997089D01*
X40162240Y-128965000D01*
X39997760Y-128965000D01*
X39836440Y-128997089D01*
X39684479Y-129060033D01*
X39547719Y-129151413D01*
X39431413Y-129267719D01*
X39340033Y-129404479D01*
X39277089Y-129556440D01*
X39245000Y-129717760D01*
X37457000Y-129717760D01*
X37457000Y-128800000D01*
X37454560Y-128775224D01*
X37447333Y-128751399D01*
X37435597Y-128729443D01*
X37419803Y-128710197D01*
X37400557Y-128694403D01*
X37378601Y-128682667D01*
X37354776Y-128675440D01*
X37330000Y-128673000D01*
X35007000Y-128673000D01*
X35007000Y-128087760D01*
X39945000Y-128087760D01*
X39945000Y-128252240D01*
X39977089Y-128413560D01*
X40040033Y-128565521D01*
X40131413Y-128702281D01*
X40247719Y-128818587D01*
X40384479Y-128909967D01*
X40536440Y-128972911D01*
X40697760Y-129005000D01*
X40862240Y-129005000D01*
X41023560Y-128972911D01*
X41175521Y-128909967D01*
X41312281Y-128818587D01*
X41428587Y-128702281D01*
X41519967Y-128565521D01*
X41582911Y-128413560D01*
X41590177Y-128377033D01*
X41655521Y-128349967D01*
X41792281Y-128258587D01*
X41908587Y-128142281D01*
X41944915Y-128087911D01*
X44335000Y-128087911D01*
X44335000Y-128272089D01*
X44370932Y-128452729D01*
X44441414Y-128622889D01*
X44543738Y-128776028D01*
X44673972Y-128906262D01*
X44827111Y-129008586D01*
X44997271Y-129079068D01*
X45177911Y-129115000D01*
X45362089Y-129115000D01*
X45542729Y-129079068D01*
X45712889Y-129008586D01*
X45866028Y-128906262D01*
X45996262Y-128776028D01*
X46098586Y-128622889D01*
X46169068Y-128452729D01*
X46205000Y-128272089D01*
X46205000Y-128087911D01*
X46169068Y-127907271D01*
X46098586Y-127737111D01*
X45996262Y-127583972D01*
X45866028Y-127453738D01*
X45712889Y-127351414D01*
X45542729Y-127280932D01*
X45362089Y-127245000D01*
X45177911Y-127245000D01*
X44997271Y-127280932D01*
X44827111Y-127351414D01*
X44673972Y-127453738D01*
X44543738Y-127583972D01*
X44441414Y-127737111D01*
X44370932Y-127907271D01*
X44335000Y-128087911D01*
X41944915Y-128087911D01*
X41999967Y-128005521D01*
X42062911Y-127853560D01*
X42095000Y-127692240D01*
X42095000Y-127685000D01*
X42112240Y-127685000D01*
X42273560Y-127652911D01*
X42425521Y-127589967D01*
X42562281Y-127498587D01*
X42678587Y-127382281D01*
X42769967Y-127245521D01*
X42832911Y-127093560D01*
X42865000Y-126932240D01*
X42865000Y-126767760D01*
X42832911Y-126606440D01*
X42769967Y-126454479D01*
X42678587Y-126317719D01*
X42562281Y-126201413D01*
X42425521Y-126110033D01*
X42273560Y-126047089D01*
X42112240Y-126015000D01*
X41947760Y-126015000D01*
X41786440Y-126047089D01*
X41634479Y-126110033D01*
X41497719Y-126201413D01*
X41381413Y-126317719D01*
X41290033Y-126454479D01*
X41227089Y-126606440D01*
X41195000Y-126767760D01*
X41195000Y-126775000D01*
X41177760Y-126775000D01*
X41016440Y-126807089D01*
X40864479Y-126870033D01*
X40727719Y-126961413D01*
X40611413Y-127077719D01*
X40520033Y-127214479D01*
X40457089Y-127366440D01*
X40449823Y-127402967D01*
X40384479Y-127430033D01*
X40247719Y-127521413D01*
X40131413Y-127637719D01*
X40040033Y-127774479D01*
X39977089Y-127926440D01*
X39945000Y-128087760D01*
X35007000Y-128087760D01*
X35007000Y-126167911D01*
X35285000Y-126167911D01*
X35285000Y-126352089D01*
X35320932Y-126532729D01*
X35391414Y-126702889D01*
X35493738Y-126856028D01*
X35623972Y-126986262D01*
X35777111Y-127088586D01*
X35947271Y-127159068D01*
X36127911Y-127195000D01*
X36312089Y-127195000D01*
X36492729Y-127159068D01*
X36662889Y-127088586D01*
X36816028Y-126986262D01*
X36946262Y-126856028D01*
X36950756Y-126849302D01*
X36927089Y-126906440D01*
X36895000Y-127067760D01*
X36895000Y-127232240D01*
X36927089Y-127393560D01*
X36990033Y-127545521D01*
X37081413Y-127682281D01*
X37197719Y-127798587D01*
X37334479Y-127889967D01*
X37486440Y-127952911D01*
X37647760Y-127985000D01*
X37812240Y-127985000D01*
X37973560Y-127952911D01*
X38125521Y-127889967D01*
X38262281Y-127798587D01*
X38378587Y-127682281D01*
X38469967Y-127545521D01*
X38515528Y-127435528D01*
X38625521Y-127389967D01*
X38762281Y-127298587D01*
X38840227Y-127220641D01*
X38881413Y-127282281D01*
X38997719Y-127398587D01*
X39134479Y-127489967D01*
X39286440Y-127552911D01*
X39447760Y-127585000D01*
X39612240Y-127585000D01*
X39773560Y-127552911D01*
X39925521Y-127489967D01*
X40062281Y-127398587D01*
X40178587Y-127282281D01*
X40269967Y-127145521D01*
X40332911Y-126993560D01*
X40365000Y-126832240D01*
X40365000Y-126667760D01*
X40332911Y-126506440D01*
X40269967Y-126354479D01*
X40178587Y-126217719D01*
X40062281Y-126101413D01*
X39925521Y-126010033D01*
X39773560Y-125947089D01*
X39612240Y-125915000D01*
X39447760Y-125915000D01*
X39286440Y-125947089D01*
X39134479Y-126010033D01*
X38997719Y-126101413D01*
X38919773Y-126179359D01*
X38878587Y-126117719D01*
X38762281Y-126001413D01*
X38625521Y-125910033D01*
X38473560Y-125847089D01*
X38312240Y-125815000D01*
X38290358Y-125815000D01*
X38358586Y-125712889D01*
X38429068Y-125542729D01*
X38463841Y-125367911D01*
X46975000Y-125367911D01*
X46975000Y-125552089D01*
X47010932Y-125732729D01*
X47081414Y-125902889D01*
X47183738Y-126056028D01*
X47313972Y-126186262D01*
X47467111Y-126288586D01*
X47637271Y-126359068D01*
X47817911Y-126395000D01*
X48002089Y-126395000D01*
X48182729Y-126359068D01*
X48352889Y-126288586D01*
X48506028Y-126186262D01*
X48636262Y-126056028D01*
X48738586Y-125902889D01*
X48809068Y-125732729D01*
X48845000Y-125552089D01*
X48845000Y-125367911D01*
X48809068Y-125187271D01*
X48745474Y-125033740D01*
X58195000Y-125033740D01*
X58195000Y-125326260D01*
X58252068Y-125613158D01*
X58364010Y-125883411D01*
X58526525Y-126126632D01*
X58733368Y-126333475D01*
X58907760Y-126450000D01*
X58733368Y-126566525D01*
X58526525Y-126773368D01*
X58364010Y-127016589D01*
X58252068Y-127286842D01*
X58195000Y-127573740D01*
X58195000Y-127866260D01*
X58252068Y-128153158D01*
X58364010Y-128423411D01*
X58526525Y-128666632D01*
X58733368Y-128873475D01*
X58907760Y-128990000D01*
X58733368Y-129106525D01*
X58526525Y-129313368D01*
X58364010Y-129556589D01*
X58252068Y-129826842D01*
X58195000Y-130113740D01*
X58195000Y-130406260D01*
X58252068Y-130693158D01*
X58364010Y-130963411D01*
X58526525Y-131206632D01*
X58733368Y-131413475D01*
X58907760Y-131530000D01*
X58733368Y-131646525D01*
X58526525Y-131853368D01*
X58364010Y-132096589D01*
X58252068Y-132366842D01*
X58195000Y-132653740D01*
X58195000Y-132946260D01*
X58252068Y-133233158D01*
X58364010Y-133503411D01*
X58526525Y-133746632D01*
X58733368Y-133953475D01*
X58907760Y-134070000D01*
X58733368Y-134186525D01*
X58526525Y-134393368D01*
X58364010Y-134636589D01*
X58252068Y-134906842D01*
X58195000Y-135193740D01*
X58195000Y-135486260D01*
X58252068Y-135773158D01*
X58364010Y-136043411D01*
X58526525Y-136286632D01*
X58733368Y-136493475D01*
X58976589Y-136655990D01*
X59246842Y-136767932D01*
X59533740Y-136825000D01*
X59826260Y-136825000D01*
X60113158Y-136767932D01*
X60383411Y-136655990D01*
X60626632Y-136493475D01*
X60813715Y-136306392D01*
X60881595Y-136433386D01*
X60992038Y-136567962D01*
X61126614Y-136678405D01*
X61280150Y-136760472D01*
X61446746Y-136811008D01*
X61620000Y-136828072D01*
X62820000Y-136828072D01*
X62993254Y-136811008D01*
X63159850Y-136760472D01*
X63313386Y-136678405D01*
X63447962Y-136567962D01*
X63558405Y-136433386D01*
X63640472Y-136279850D01*
X63691008Y-136113254D01*
X63708072Y-135940000D01*
X63708072Y-134740000D01*
X63691008Y-134566746D01*
X63640472Y-134400150D01*
X63558405Y-134246614D01*
X63447962Y-134112038D01*
X63313386Y-134001595D01*
X63159850Y-133919528D01*
X63050707Y-133886420D01*
X63068792Y-133828397D01*
X62220000Y-132979605D01*
X61371208Y-133828397D01*
X61389293Y-133886420D01*
X61280150Y-133919528D01*
X61126614Y-134001595D01*
X60992038Y-134112038D01*
X60881595Y-134246614D01*
X60813715Y-134373608D01*
X60626632Y-134186525D01*
X60452240Y-134070000D01*
X60626632Y-133953475D01*
X60833475Y-133746632D01*
X60949311Y-133573271D01*
X61191603Y-133648792D01*
X62040395Y-132800000D01*
X62399605Y-132800000D01*
X63248397Y-133648792D01*
X63497472Y-133571157D01*
X63623371Y-133307117D01*
X63695339Y-133023589D01*
X63710611Y-132731469D01*
X63668599Y-132441981D01*
X63570919Y-132166253D01*
X63497472Y-132028843D01*
X63248397Y-131951208D01*
X62399605Y-132800000D01*
X62040395Y-132800000D01*
X61191603Y-131951208D01*
X60949311Y-132026729D01*
X60833475Y-131853368D01*
X60626632Y-131646525D01*
X60452240Y-131530000D01*
X60626632Y-131413475D01*
X60751710Y-131288397D01*
X61371208Y-131288397D01*
X61446514Y-131530000D01*
X61371208Y-131771603D01*
X62220000Y-132620395D01*
X63068792Y-131771603D01*
X62993486Y-131530000D01*
X63068792Y-131288397D01*
X62220000Y-130439605D01*
X61371208Y-131288397D01*
X60751710Y-131288397D01*
X60833475Y-131206632D01*
X60949311Y-131033271D01*
X61191603Y-131108792D01*
X62040395Y-130260000D01*
X62399605Y-130260000D01*
X63248397Y-131108792D01*
X63497472Y-131031157D01*
X63623371Y-130767117D01*
X63695339Y-130483589D01*
X63710611Y-130191469D01*
X63668599Y-129901981D01*
X63570919Y-129626253D01*
X63497472Y-129488843D01*
X63248397Y-129411208D01*
X62399605Y-130260000D01*
X62040395Y-130260000D01*
X61191603Y-129411208D01*
X60949311Y-129486729D01*
X60833475Y-129313368D01*
X60626632Y-129106525D01*
X60452240Y-128990000D01*
X60626632Y-128873475D01*
X60833475Y-128666632D01*
X60950000Y-128492240D01*
X61066525Y-128666632D01*
X61273368Y-128873475D01*
X61446729Y-128989311D01*
X61371208Y-129231603D01*
X62220000Y-130080395D01*
X63068792Y-129231603D01*
X62993271Y-128989311D01*
X63166632Y-128873475D01*
X63373475Y-128666632D01*
X63535990Y-128423411D01*
X63647932Y-128153158D01*
X63705000Y-127866260D01*
X63705000Y-127573740D01*
X63647932Y-127286842D01*
X63535990Y-127016589D01*
X63373475Y-126773368D01*
X63166632Y-126566525D01*
X62993271Y-126450689D01*
X63068792Y-126208397D01*
X62220000Y-125359605D01*
X61371208Y-126208397D01*
X61446729Y-126450689D01*
X61273368Y-126566525D01*
X61066525Y-126773368D01*
X60950000Y-126947760D01*
X60833475Y-126773368D01*
X60626632Y-126566525D01*
X60452240Y-126450000D01*
X60626632Y-126333475D01*
X60833475Y-126126632D01*
X60949311Y-125953271D01*
X61191603Y-126028792D01*
X62040395Y-125180000D01*
X62399605Y-125180000D01*
X63248397Y-126028792D01*
X63497472Y-125951157D01*
X63623371Y-125687117D01*
X63695339Y-125403589D01*
X63710611Y-125111469D01*
X63668599Y-124821981D01*
X63570919Y-124546253D01*
X63497472Y-124408843D01*
X63248397Y-124331208D01*
X62399605Y-125180000D01*
X62040395Y-125180000D01*
X61191603Y-124331208D01*
X60949311Y-124406729D01*
X60833475Y-124233368D01*
X60751710Y-124151603D01*
X61371208Y-124151603D01*
X62220000Y-125000395D01*
X63068792Y-124151603D01*
X62991157Y-123902528D01*
X62727117Y-123776629D01*
X62443589Y-123704661D01*
X62151469Y-123689389D01*
X61861981Y-123731401D01*
X61586253Y-123829081D01*
X61448843Y-123902528D01*
X61371208Y-124151603D01*
X60751710Y-124151603D01*
X60626632Y-124026525D01*
X60383411Y-123864010D01*
X60113158Y-123752068D01*
X59826260Y-123695000D01*
X59533740Y-123695000D01*
X59246842Y-123752068D01*
X58976589Y-123864010D01*
X58733368Y-124026525D01*
X58526525Y-124233368D01*
X58364010Y-124476589D01*
X58252068Y-124746842D01*
X58195000Y-125033740D01*
X48745474Y-125033740D01*
X48738586Y-125017111D01*
X48636262Y-124863972D01*
X48506028Y-124733738D01*
X48352889Y-124631414D01*
X48182729Y-124560932D01*
X48002089Y-124525000D01*
X47817911Y-124525000D01*
X47637271Y-124560932D01*
X47467111Y-124631414D01*
X47313972Y-124733738D01*
X47183738Y-124863972D01*
X47081414Y-125017111D01*
X47010932Y-125187271D01*
X46975000Y-125367911D01*
X38463841Y-125367911D01*
X38465000Y-125362089D01*
X38465000Y-125177911D01*
X38429068Y-124997271D01*
X38358586Y-124827111D01*
X38256262Y-124673972D01*
X38126028Y-124543738D01*
X37972889Y-124441414D01*
X37802729Y-124370932D01*
X37622089Y-124335000D01*
X37437911Y-124335000D01*
X37257271Y-124370932D01*
X37087111Y-124441414D01*
X36933972Y-124543738D01*
X36803738Y-124673972D01*
X36701414Y-124827111D01*
X36630932Y-124997271D01*
X36595000Y-125177911D01*
X36595000Y-125362089D01*
X36603932Y-125406993D01*
X36492729Y-125360932D01*
X36312089Y-125325000D01*
X36127911Y-125325000D01*
X35947271Y-125360932D01*
X35777111Y-125431414D01*
X35623972Y-125533738D01*
X35493738Y-125663972D01*
X35391414Y-125817111D01*
X35320932Y-125987271D01*
X35285000Y-126167911D01*
X35007000Y-126167911D01*
X35007000Y-125700000D01*
X35004560Y-125675224D01*
X34997333Y-125651399D01*
X34985597Y-125629443D01*
X34969803Y-125610197D01*
X34950557Y-125594403D01*
X34928601Y-125582667D01*
X34904776Y-125575440D01*
X34880000Y-125573000D01*
X33235012Y-125573000D01*
X33265000Y-125422240D01*
X33265000Y-125257760D01*
X33232911Y-125096440D01*
X33169967Y-124944479D01*
X33078587Y-124807719D01*
X32962281Y-124691413D01*
X32825521Y-124600033D01*
X32673560Y-124537089D01*
X32533464Y-124509222D01*
X32532911Y-124506440D01*
X32469967Y-124354479D01*
X32378587Y-124217719D01*
X32262281Y-124101413D01*
X32125521Y-124010033D01*
X31973560Y-123947089D01*
X31812240Y-123915000D01*
X31745868Y-123915000D01*
X31828587Y-123832281D01*
X31919967Y-123695521D01*
X31982911Y-123543560D01*
X32015000Y-123382240D01*
X32015000Y-123217760D01*
X31993120Y-123107760D01*
X32365000Y-123107760D01*
X32365000Y-123272240D01*
X32397089Y-123433560D01*
X32460033Y-123585521D01*
X32551413Y-123722281D01*
X32667719Y-123838587D01*
X32804479Y-123929967D01*
X32956440Y-123992911D01*
X33117760Y-124025000D01*
X33282240Y-124025000D01*
X33443560Y-123992911D01*
X33595521Y-123929967D01*
X33732281Y-123838587D01*
X33848587Y-123722281D01*
X33939967Y-123585521D01*
X33972113Y-123507911D01*
X37995000Y-123507911D01*
X37995000Y-123692089D01*
X38030932Y-123872729D01*
X38101414Y-124042889D01*
X38203738Y-124196028D01*
X38333972Y-124326262D01*
X38487111Y-124428586D01*
X38657271Y-124499068D01*
X38837911Y-124535000D01*
X39022089Y-124535000D01*
X39202729Y-124499068D01*
X39372889Y-124428586D01*
X39526028Y-124326262D01*
X39656262Y-124196028D01*
X39758586Y-124042889D01*
X39829068Y-123872729D01*
X39865000Y-123692089D01*
X39865000Y-123557911D01*
X40645000Y-123557911D01*
X40645000Y-123742089D01*
X40680932Y-123922729D01*
X40751414Y-124092889D01*
X40853738Y-124246028D01*
X40983972Y-124376262D01*
X41137111Y-124478586D01*
X41307271Y-124549068D01*
X41487911Y-124585000D01*
X41672089Y-124585000D01*
X41852729Y-124549068D01*
X42022889Y-124478586D01*
X42176028Y-124376262D01*
X42306262Y-124246028D01*
X42408586Y-124092889D01*
X42479068Y-123922729D01*
X42515000Y-123742089D01*
X42515000Y-123557911D01*
X42479068Y-123377271D01*
X42408586Y-123207111D01*
X42306262Y-123053972D01*
X42176028Y-122923738D01*
X42022889Y-122821414D01*
X41852729Y-122750932D01*
X41672089Y-122715000D01*
X41487911Y-122715000D01*
X41307271Y-122750932D01*
X41137111Y-122821414D01*
X40983972Y-122923738D01*
X40853738Y-123053972D01*
X40751414Y-123207111D01*
X40680932Y-123377271D01*
X40645000Y-123557911D01*
X39865000Y-123557911D01*
X39865000Y-123507911D01*
X39829068Y-123327271D01*
X39758586Y-123157111D01*
X39656262Y-123003972D01*
X39526028Y-122873738D01*
X39372889Y-122771414D01*
X39202729Y-122700932D01*
X39022089Y-122665000D01*
X38837911Y-122665000D01*
X38657271Y-122700932D01*
X38487111Y-122771414D01*
X38333972Y-122873738D01*
X38203738Y-123003972D01*
X38101414Y-123157111D01*
X38030932Y-123327271D01*
X37995000Y-123507911D01*
X33972113Y-123507911D01*
X34002911Y-123433560D01*
X34035000Y-123272240D01*
X34035000Y-123107760D01*
X34002911Y-122946440D01*
X33939967Y-122794479D01*
X33848587Y-122657719D01*
X33732281Y-122541413D01*
X33595521Y-122450033D01*
X33443560Y-122387089D01*
X33282240Y-122355000D01*
X33117760Y-122355000D01*
X32956440Y-122387089D01*
X32804479Y-122450033D01*
X32667719Y-122541413D01*
X32551413Y-122657719D01*
X32460033Y-122794479D01*
X32397089Y-122946440D01*
X32365000Y-123107760D01*
X31993120Y-123107760D01*
X31982911Y-123056440D01*
X31919967Y-122904479D01*
X31828587Y-122767719D01*
X31712281Y-122651413D01*
X31575521Y-122560033D01*
X31423560Y-122497089D01*
X31262240Y-122465000D01*
X31097760Y-122465000D01*
X30936440Y-122497089D01*
X30930000Y-122499757D01*
X30923560Y-122497089D01*
X30762240Y-122465000D01*
X30597760Y-122465000D01*
X30436440Y-122497089D01*
X30284479Y-122560033D01*
X30147719Y-122651413D01*
X30031413Y-122767719D01*
X29940033Y-122904479D01*
X29877089Y-123056440D01*
X29845000Y-123217760D01*
X28006962Y-123217760D01*
X28055000Y-122976260D01*
X28055000Y-122683740D01*
X27997932Y-122396842D01*
X27885990Y-122126589D01*
X27723475Y-121883368D01*
X27516632Y-121676525D01*
X27503515Y-121667760D01*
X33295000Y-121667760D01*
X33295000Y-121832240D01*
X33327089Y-121993560D01*
X33390033Y-122145521D01*
X33481413Y-122282281D01*
X33597719Y-122398587D01*
X33734479Y-122489967D01*
X33886440Y-122552911D01*
X34047760Y-122585000D01*
X34212240Y-122585000D01*
X34373560Y-122552911D01*
X34525521Y-122489967D01*
X34662281Y-122398587D01*
X34778587Y-122282281D01*
X34869967Y-122145521D01*
X34932911Y-121993560D01*
X34965000Y-121832240D01*
X34965000Y-121667760D01*
X34945253Y-121568487D01*
X35023560Y-121552911D01*
X35175521Y-121489967D01*
X35312281Y-121398587D01*
X35391621Y-121319247D01*
X35401414Y-121342889D01*
X35503738Y-121496028D01*
X35633972Y-121626262D01*
X35787111Y-121728586D01*
X35957271Y-121799068D01*
X36137911Y-121835000D01*
X36217436Y-121835000D01*
X36170932Y-121947271D01*
X36135000Y-122127911D01*
X36135000Y-122312089D01*
X36170932Y-122492729D01*
X36241414Y-122662889D01*
X36343738Y-122816028D01*
X36473972Y-122946262D01*
X36627111Y-123048586D01*
X36797271Y-123119068D01*
X36977911Y-123155000D01*
X37162089Y-123155000D01*
X37342729Y-123119068D01*
X37512889Y-123048586D01*
X37666028Y-122946262D01*
X37796262Y-122816028D01*
X37898586Y-122662889D01*
X37969068Y-122492729D01*
X38005000Y-122312089D01*
X38005000Y-122307911D01*
X44595000Y-122307911D01*
X44595000Y-122492089D01*
X44630932Y-122672729D01*
X44701414Y-122842889D01*
X44803738Y-122996028D01*
X44933972Y-123126262D01*
X45087111Y-123228586D01*
X45257271Y-123299068D01*
X45437911Y-123335000D01*
X45622089Y-123335000D01*
X45802729Y-123299068D01*
X45972889Y-123228586D01*
X46126028Y-123126262D01*
X46256262Y-122996028D01*
X46358586Y-122842889D01*
X46429068Y-122672729D01*
X46465000Y-122492089D01*
X46465000Y-122307911D01*
X46429068Y-122127271D01*
X46358586Y-121957111D01*
X46256262Y-121803972D01*
X46126028Y-121673738D01*
X45972889Y-121571414D01*
X45802729Y-121500932D01*
X45622089Y-121465000D01*
X45437911Y-121465000D01*
X45257271Y-121500932D01*
X45087111Y-121571414D01*
X44933972Y-121673738D01*
X44803738Y-121803972D01*
X44701414Y-121957111D01*
X44630932Y-122127271D01*
X44595000Y-122307911D01*
X38005000Y-122307911D01*
X38005000Y-122127911D01*
X37969068Y-121947271D01*
X37898586Y-121777111D01*
X37796262Y-121623972D01*
X37666028Y-121493738D01*
X37512889Y-121391414D01*
X37342729Y-121320932D01*
X37162089Y-121285000D01*
X37082564Y-121285000D01*
X37129068Y-121172729D01*
X37165000Y-120992089D01*
X37165000Y-120807911D01*
X37129068Y-120627271D01*
X37058586Y-120457111D01*
X37019030Y-120397911D01*
X39455000Y-120397911D01*
X39455000Y-120582089D01*
X39490932Y-120762729D01*
X39561414Y-120932889D01*
X39663738Y-121086028D01*
X39793972Y-121216262D01*
X39947111Y-121318586D01*
X40117271Y-121389068D01*
X40297911Y-121425000D01*
X40482089Y-121425000D01*
X40571086Y-121407297D01*
X40643738Y-121516028D01*
X40773972Y-121646262D01*
X40927111Y-121748586D01*
X41097271Y-121819068D01*
X41277911Y-121855000D01*
X41462089Y-121855000D01*
X41642729Y-121819068D01*
X41812889Y-121748586D01*
X41966028Y-121646262D01*
X42096262Y-121516028D01*
X42198586Y-121362889D01*
X42269068Y-121192729D01*
X42305000Y-121012089D01*
X42305000Y-120827911D01*
X42269068Y-120647271D01*
X42198586Y-120477111D01*
X42185757Y-120457911D01*
X50095000Y-120457911D01*
X50095000Y-120642089D01*
X50130932Y-120822729D01*
X50201414Y-120992889D01*
X50303738Y-121146028D01*
X50433972Y-121276262D01*
X50587111Y-121378586D01*
X50757271Y-121449068D01*
X50937911Y-121485000D01*
X51122089Y-121485000D01*
X51302729Y-121449068D01*
X51472889Y-121378586D01*
X51626028Y-121276262D01*
X51756262Y-121146028D01*
X51858586Y-120992889D01*
X51929068Y-120822729D01*
X51965000Y-120642089D01*
X51965000Y-120457911D01*
X51929068Y-120277271D01*
X51858586Y-120107111D01*
X51756262Y-119953972D01*
X51626028Y-119823738D01*
X51472889Y-119721414D01*
X51302729Y-119650932D01*
X51122089Y-119615000D01*
X50937911Y-119615000D01*
X50757271Y-119650932D01*
X50587111Y-119721414D01*
X50433972Y-119823738D01*
X50303738Y-119953972D01*
X50201414Y-120107111D01*
X50130932Y-120277271D01*
X50095000Y-120457911D01*
X42185757Y-120457911D01*
X42096262Y-120323972D01*
X41966028Y-120193738D01*
X41812889Y-120091414D01*
X41642729Y-120020932D01*
X41462089Y-119985000D01*
X41277911Y-119985000D01*
X41188914Y-120002703D01*
X41116262Y-119893972D01*
X40986028Y-119763738D01*
X40832889Y-119661414D01*
X40662729Y-119590932D01*
X40482089Y-119555000D01*
X40297911Y-119555000D01*
X40117271Y-119590932D01*
X39947111Y-119661414D01*
X39793972Y-119763738D01*
X39663738Y-119893972D01*
X39561414Y-120047111D01*
X39490932Y-120217271D01*
X39455000Y-120397911D01*
X37019030Y-120397911D01*
X36956262Y-120303972D01*
X36826028Y-120173738D01*
X36672889Y-120071414D01*
X36502729Y-120000932D01*
X36322089Y-119965000D01*
X36137911Y-119965000D01*
X35957271Y-120000932D01*
X35787111Y-120071414D01*
X35633972Y-120173738D01*
X35503738Y-120303972D01*
X35494979Y-120317081D01*
X35428587Y-120217719D01*
X35312281Y-120101413D01*
X35175521Y-120010033D01*
X35023560Y-119947089D01*
X34862240Y-119915000D01*
X34697760Y-119915000D01*
X34536440Y-119947089D01*
X34384479Y-120010033D01*
X34247719Y-120101413D01*
X34131413Y-120217719D01*
X34040033Y-120354479D01*
X33977089Y-120506440D01*
X33945000Y-120667760D01*
X33945000Y-120832240D01*
X33964747Y-120931513D01*
X33886440Y-120947089D01*
X33734479Y-121010033D01*
X33597719Y-121101413D01*
X33481413Y-121217719D01*
X33390033Y-121354479D01*
X33327089Y-121506440D01*
X33295000Y-121667760D01*
X27503515Y-121667760D01*
X27334466Y-121554805D01*
X27451355Y-121485178D01*
X27667588Y-121290269D01*
X27841641Y-121056920D01*
X27966825Y-120794099D01*
X28011476Y-120646890D01*
X27890155Y-120417000D01*
X26697000Y-120417000D01*
X26697000Y-120437000D01*
X26443000Y-120437000D01*
X26443000Y-120417000D01*
X25249845Y-120417000D01*
X25128524Y-120646890D01*
X25173175Y-120794099D01*
X25298359Y-121056920D01*
X25472412Y-121290269D01*
X25688645Y-121485178D01*
X25805534Y-121554805D01*
X25623368Y-121676525D01*
X25416525Y-121883368D01*
X25254010Y-122126589D01*
X25142068Y-122396842D01*
X25085000Y-122683740D01*
X23947610Y-122683740D01*
X23943837Y-116900000D01*
X25081928Y-116900000D01*
X25081928Y-118600000D01*
X25094188Y-118724482D01*
X25130498Y-118844180D01*
X25189463Y-118954494D01*
X25268815Y-119051185D01*
X25365506Y-119130537D01*
X25475820Y-119189502D01*
X25556466Y-119213966D01*
X25472412Y-119289731D01*
X25298359Y-119523080D01*
X25173175Y-119785901D01*
X25128524Y-119933110D01*
X25249845Y-120163000D01*
X26443000Y-120163000D01*
X26443000Y-120143000D01*
X26697000Y-120143000D01*
X26697000Y-120163000D01*
X27890155Y-120163000D01*
X28011476Y-119933110D01*
X27966825Y-119785901D01*
X27841641Y-119523080D01*
X27800379Y-119467760D01*
X30445000Y-119467760D01*
X30445000Y-119632240D01*
X30477089Y-119793560D01*
X30540033Y-119945521D01*
X30631413Y-120082281D01*
X30747719Y-120198587D01*
X30884479Y-120289967D01*
X31036440Y-120352911D01*
X31197760Y-120385000D01*
X31362240Y-120385000D01*
X31523560Y-120352911D01*
X31675521Y-120289967D01*
X31812281Y-120198587D01*
X31928587Y-120082281D01*
X32019967Y-119945521D01*
X32082911Y-119793560D01*
X32115000Y-119632240D01*
X32115000Y-119467760D01*
X32082911Y-119306440D01*
X32040350Y-119203689D01*
X32197760Y-119235000D01*
X32362240Y-119235000D01*
X32523560Y-119202911D01*
X32675521Y-119139967D01*
X32708530Y-119117911D01*
X46765000Y-119117911D01*
X46765000Y-119302089D01*
X46800932Y-119482729D01*
X46871414Y-119652889D01*
X46973738Y-119806028D01*
X47103972Y-119936262D01*
X47257111Y-120038586D01*
X47427271Y-120109068D01*
X47607911Y-120145000D01*
X47792089Y-120145000D01*
X47972729Y-120109068D01*
X48142889Y-120038586D01*
X48296028Y-119936262D01*
X48426262Y-119806028D01*
X48528586Y-119652889D01*
X48599068Y-119482729D01*
X48635000Y-119302089D01*
X48635000Y-119117911D01*
X48599068Y-118937271D01*
X48528586Y-118767111D01*
X48426262Y-118613972D01*
X48296028Y-118483738D01*
X48142889Y-118381414D01*
X47972729Y-118310932D01*
X47792089Y-118275000D01*
X47607911Y-118275000D01*
X47427271Y-118310932D01*
X47257111Y-118381414D01*
X47103972Y-118483738D01*
X46973738Y-118613972D01*
X46871414Y-118767111D01*
X46800932Y-118937271D01*
X46765000Y-119117911D01*
X32708530Y-119117911D01*
X32812281Y-119048587D01*
X32928587Y-118932281D01*
X33019967Y-118795521D01*
X33082911Y-118643560D01*
X33115000Y-118482240D01*
X33115000Y-118317760D01*
X33082911Y-118156440D01*
X33019967Y-118004479D01*
X32928615Y-117867760D01*
X35495000Y-117867760D01*
X35495000Y-118032240D01*
X35527089Y-118193560D01*
X35590033Y-118345521D01*
X35681413Y-118482281D01*
X35797719Y-118598587D01*
X35934479Y-118689967D01*
X36086440Y-118752911D01*
X36247760Y-118785000D01*
X36412240Y-118785000D01*
X36573560Y-118752911D01*
X36725521Y-118689967D01*
X36862281Y-118598587D01*
X36978587Y-118482281D01*
X37069967Y-118345521D01*
X37132911Y-118193560D01*
X37165000Y-118032240D01*
X37165000Y-117887911D01*
X44805000Y-117887911D01*
X44805000Y-118072089D01*
X44840932Y-118252729D01*
X44911414Y-118422889D01*
X45013738Y-118576028D01*
X45143972Y-118706262D01*
X45297111Y-118808586D01*
X45467271Y-118879068D01*
X45647911Y-118915000D01*
X45832089Y-118915000D01*
X46012729Y-118879068D01*
X46182889Y-118808586D01*
X46336028Y-118706262D01*
X46466262Y-118576028D01*
X46568586Y-118422889D01*
X46639068Y-118252729D01*
X46675000Y-118072089D01*
X46675000Y-117887911D01*
X46639068Y-117707271D01*
X46568586Y-117537111D01*
X46466262Y-117383972D01*
X46336028Y-117253738D01*
X46207353Y-117167760D01*
X48995000Y-117167760D01*
X48995000Y-117332240D01*
X49027089Y-117493560D01*
X49090033Y-117645521D01*
X49181413Y-117782281D01*
X49297719Y-117898587D01*
X49434479Y-117989967D01*
X49586440Y-118052911D01*
X49595000Y-118054614D01*
X49595000Y-118192089D01*
X49630932Y-118372729D01*
X49701414Y-118542889D01*
X49803738Y-118696028D01*
X49933972Y-118826262D01*
X50087111Y-118928586D01*
X50257271Y-118999068D01*
X50437911Y-119035000D01*
X50622089Y-119035000D01*
X50802729Y-118999068D01*
X50972889Y-118928586D01*
X51126028Y-118826262D01*
X51256262Y-118696028D01*
X51358586Y-118542889D01*
X51429068Y-118372729D01*
X51465000Y-118192089D01*
X51465000Y-118007911D01*
X51429068Y-117827271D01*
X51358586Y-117657111D01*
X51256262Y-117503972D01*
X51126028Y-117373738D01*
X50972889Y-117271414D01*
X50802729Y-117200932D01*
X50665000Y-117173536D01*
X50665000Y-117167760D01*
X50632911Y-117006440D01*
X50569967Y-116854479D01*
X50478587Y-116717719D01*
X50362281Y-116601413D01*
X50225521Y-116510033D01*
X50073560Y-116447089D01*
X49912240Y-116415000D01*
X49747760Y-116415000D01*
X49586440Y-116447089D01*
X49434479Y-116510033D01*
X49297719Y-116601413D01*
X49181413Y-116717719D01*
X49090033Y-116854479D01*
X49027089Y-117006440D01*
X48995000Y-117167760D01*
X46207353Y-117167760D01*
X46182889Y-117151414D01*
X46012729Y-117080932D01*
X45832089Y-117045000D01*
X45647911Y-117045000D01*
X45467271Y-117080932D01*
X45297111Y-117151414D01*
X45143972Y-117253738D01*
X45013738Y-117383972D01*
X44911414Y-117537111D01*
X44840932Y-117707271D01*
X44805000Y-117887911D01*
X37165000Y-117887911D01*
X37165000Y-117867760D01*
X37132911Y-117706440D01*
X37069967Y-117554479D01*
X36978587Y-117417719D01*
X36862281Y-117301413D01*
X36725521Y-117210033D01*
X36573560Y-117147089D01*
X36412240Y-117115000D01*
X36247760Y-117115000D01*
X36086440Y-117147089D01*
X35934479Y-117210033D01*
X35797719Y-117301413D01*
X35681413Y-117417719D01*
X35590033Y-117554479D01*
X35527089Y-117706440D01*
X35495000Y-117867760D01*
X32928615Y-117867760D01*
X32928587Y-117867719D01*
X32812281Y-117751413D01*
X32675521Y-117660033D01*
X32523560Y-117597089D01*
X32362240Y-117565000D01*
X32197760Y-117565000D01*
X32036440Y-117597089D01*
X31884479Y-117660033D01*
X31747719Y-117751413D01*
X31631413Y-117867719D01*
X31540033Y-118004479D01*
X31477089Y-118156440D01*
X31445000Y-118317760D01*
X31445000Y-118482240D01*
X31477089Y-118643560D01*
X31519650Y-118746311D01*
X31362240Y-118715000D01*
X31197760Y-118715000D01*
X31036440Y-118747089D01*
X30884479Y-118810033D01*
X30747719Y-118901413D01*
X30631413Y-119017719D01*
X30540033Y-119154479D01*
X30477089Y-119306440D01*
X30445000Y-119467760D01*
X27800379Y-119467760D01*
X27667588Y-119289731D01*
X27583534Y-119213966D01*
X27664180Y-119189502D01*
X27774494Y-119130537D01*
X27871185Y-119051185D01*
X27950537Y-118954494D01*
X28009502Y-118844180D01*
X28045812Y-118724482D01*
X28058072Y-118600000D01*
X28058072Y-116900000D01*
X28045812Y-116775518D01*
X28009502Y-116655820D01*
X27950537Y-116545506D01*
X27944428Y-116538061D01*
X33675000Y-116538061D01*
X33675000Y-116741939D01*
X33714774Y-116941898D01*
X33792795Y-117130256D01*
X33906063Y-117299774D01*
X34050226Y-117443937D01*
X34219744Y-117557205D01*
X34408102Y-117635226D01*
X34608061Y-117675000D01*
X34811939Y-117675000D01*
X35011898Y-117635226D01*
X35200256Y-117557205D01*
X35369774Y-117443937D01*
X35513937Y-117299774D01*
X35627205Y-117130256D01*
X35705226Y-116941898D01*
X35745000Y-116741939D01*
X35745000Y-116538061D01*
X35705226Y-116338102D01*
X35627205Y-116149744D01*
X35513937Y-115980226D01*
X35369774Y-115836063D01*
X35200256Y-115722795D01*
X35011898Y-115644774D01*
X34811939Y-115605000D01*
X34608061Y-115605000D01*
X34408102Y-115644774D01*
X34219744Y-115722795D01*
X34050226Y-115836063D01*
X33906063Y-115980226D01*
X33792795Y-116149744D01*
X33714774Y-116338102D01*
X33675000Y-116538061D01*
X27944428Y-116538061D01*
X27871185Y-116448815D01*
X27774494Y-116369463D01*
X27664180Y-116310498D01*
X27544482Y-116274188D01*
X27420000Y-116261928D01*
X25720000Y-116261928D01*
X25595518Y-116274188D01*
X25475820Y-116310498D01*
X25365506Y-116369463D01*
X25268815Y-116448815D01*
X25189463Y-116545506D01*
X25130498Y-116655820D01*
X25094188Y-116775518D01*
X25081928Y-116900000D01*
X23943837Y-116900000D01*
X23942494Y-114841457D01*
X23949463Y-114854494D01*
X24028815Y-114951185D01*
X24125506Y-115030537D01*
X24235820Y-115089502D01*
X24355518Y-115125812D01*
X24480000Y-115138072D01*
X26180000Y-115138072D01*
X26304482Y-115125812D01*
X26424180Y-115089502D01*
X26534494Y-115030537D01*
X26631185Y-114951185D01*
X26710537Y-114854494D01*
X26735436Y-114807911D01*
X46845000Y-114807911D01*
X46845000Y-114992089D01*
X46880932Y-115172729D01*
X46951414Y-115342889D01*
X47053738Y-115496028D01*
X47183972Y-115626262D01*
X47337111Y-115728586D01*
X47507271Y-115799068D01*
X47687911Y-115835000D01*
X47872089Y-115835000D01*
X48052729Y-115799068D01*
X48222889Y-115728586D01*
X48376028Y-115626262D01*
X48506262Y-115496028D01*
X48608586Y-115342889D01*
X48679068Y-115172729D01*
X48715000Y-114992089D01*
X48715000Y-114807911D01*
X48679068Y-114627271D01*
X48608586Y-114457111D01*
X48506262Y-114303972D01*
X48376028Y-114173738D01*
X48222889Y-114071414D01*
X48052729Y-114000932D01*
X47872089Y-113965000D01*
X47687911Y-113965000D01*
X47507271Y-114000932D01*
X47337111Y-114071414D01*
X47183972Y-114173738D01*
X47053738Y-114303972D01*
X46951414Y-114457111D01*
X46880932Y-114627271D01*
X46845000Y-114807911D01*
X26735436Y-114807911D01*
X26769502Y-114744180D01*
X26805812Y-114624482D01*
X26818072Y-114500000D01*
X26818072Y-112800000D01*
X26805812Y-112675518D01*
X26769502Y-112555820D01*
X26710537Y-112445506D01*
X26631185Y-112348815D01*
X26534494Y-112269463D01*
X26424180Y-112210498D01*
X26343534Y-112186034D01*
X26427588Y-112110269D01*
X26601641Y-111876920D01*
X26726825Y-111614099D01*
X26771476Y-111466890D01*
X26708766Y-111348061D01*
X31595000Y-111348061D01*
X31595000Y-111551939D01*
X31634774Y-111751898D01*
X31712795Y-111940256D01*
X31826063Y-112109774D01*
X31970226Y-112253937D01*
X32139744Y-112367205D01*
X32328102Y-112445226D01*
X32528061Y-112485000D01*
X32731939Y-112485000D01*
X32931898Y-112445226D01*
X33116958Y-112368571D01*
X33189744Y-112417205D01*
X33378102Y-112495226D01*
X33578061Y-112535000D01*
X33681623Y-112535000D01*
X33634774Y-112648102D01*
X33595000Y-112848061D01*
X33595000Y-113051939D01*
X33634774Y-113251898D01*
X33712795Y-113440256D01*
X33826063Y-113609774D01*
X33970226Y-113753937D01*
X34139744Y-113867205D01*
X34328102Y-113945226D01*
X34528061Y-113985000D01*
X34731939Y-113985000D01*
X34931898Y-113945226D01*
X35120256Y-113867205D01*
X35289774Y-113753937D01*
X35433937Y-113609774D01*
X35547205Y-113440256D01*
X35625226Y-113251898D01*
X35665000Y-113051939D01*
X35665000Y-112848061D01*
X35625226Y-112648102D01*
X35547205Y-112459744D01*
X35523990Y-112425000D01*
X35547205Y-112390256D01*
X35625226Y-112201898D01*
X35665000Y-112001939D01*
X35665000Y-111798061D01*
X35625226Y-111598102D01*
X35547205Y-111409744D01*
X35433937Y-111240226D01*
X35289774Y-111096063D01*
X35120256Y-110982795D01*
X34931898Y-110904774D01*
X34731939Y-110865000D01*
X34528061Y-110865000D01*
X34503725Y-110869841D01*
X34483937Y-110840226D01*
X34339774Y-110696063D01*
X34170256Y-110582795D01*
X33981898Y-110504774D01*
X33781939Y-110465000D01*
X33578061Y-110465000D01*
X33378102Y-110504774D01*
X33193042Y-110581429D01*
X33120256Y-110532795D01*
X32931898Y-110454774D01*
X32731939Y-110415000D01*
X32528061Y-110415000D01*
X32328102Y-110454774D01*
X32139744Y-110532795D01*
X31970226Y-110646063D01*
X31826063Y-110790226D01*
X31712795Y-110959744D01*
X31634774Y-111148102D01*
X31595000Y-111348061D01*
X26708766Y-111348061D01*
X26650155Y-111237000D01*
X25457000Y-111237000D01*
X25457000Y-111257000D01*
X25203000Y-111257000D01*
X25203000Y-111237000D01*
X25183000Y-111237000D01*
X25183000Y-110983000D01*
X25203000Y-110983000D01*
X25203000Y-109789186D01*
X24973109Y-109668519D01*
X24698748Y-109765843D01*
X24448645Y-109914822D01*
X24232412Y-110109731D01*
X24058359Y-110343080D01*
X23939723Y-110592154D01*
X23938488Y-108698061D01*
X25095000Y-108698061D01*
X25095000Y-108901939D01*
X25134774Y-109101898D01*
X25212795Y-109290256D01*
X25326063Y-109459774D01*
X25470226Y-109603937D01*
X25619679Y-109703798D01*
X25457000Y-109789186D01*
X25457000Y-110983000D01*
X26650155Y-110983000D01*
X26771476Y-110753110D01*
X26726825Y-110605901D01*
X26601641Y-110343080D01*
X26427588Y-110109731D01*
X26211355Y-109914822D01*
X26077351Y-109835000D01*
X26231939Y-109835000D01*
X26431898Y-109795226D01*
X26620256Y-109717205D01*
X26680000Y-109677285D01*
X26739744Y-109717205D01*
X26928102Y-109795226D01*
X27128061Y-109835000D01*
X27331939Y-109835000D01*
X27531898Y-109795226D01*
X27720256Y-109717205D01*
X27889774Y-109603937D01*
X28033937Y-109459774D01*
X28147205Y-109290256D01*
X28225226Y-109101898D01*
X28265000Y-108901939D01*
X28265000Y-108698061D01*
X28257074Y-108658212D01*
X28305000Y-108658212D01*
X28305000Y-108881788D01*
X28348617Y-109101067D01*
X28434176Y-109307624D01*
X28558388Y-109493520D01*
X28716480Y-109651612D01*
X28902376Y-109775824D01*
X29108933Y-109861383D01*
X29328212Y-109905000D01*
X29551788Y-109905000D01*
X29771067Y-109861383D01*
X29882774Y-109815112D01*
X29965820Y-109859502D01*
X30085518Y-109895812D01*
X30210000Y-109908072D01*
X31210000Y-109908072D01*
X31334482Y-109895812D01*
X31454180Y-109859502D01*
X31564494Y-109800537D01*
X31661185Y-109721185D01*
X31740537Y-109624494D01*
X31799502Y-109514180D01*
X31835812Y-109394482D01*
X31848072Y-109270000D01*
X31848072Y-108413740D01*
X33015000Y-108413740D01*
X33015000Y-108706260D01*
X33072068Y-108993158D01*
X33184010Y-109263411D01*
X33346525Y-109506632D01*
X33553368Y-109713475D01*
X33796589Y-109875990D01*
X34066842Y-109987932D01*
X34353740Y-110045000D01*
X34646260Y-110045000D01*
X34933158Y-109987932D01*
X35203411Y-109875990D01*
X35446632Y-109713475D01*
X35653475Y-109506632D01*
X35770000Y-109332240D01*
X35886525Y-109506632D01*
X36093368Y-109713475D01*
X36336589Y-109875990D01*
X36606842Y-109987932D01*
X36893740Y-110045000D01*
X37186260Y-110045000D01*
X37473158Y-109987932D01*
X37743411Y-109875990D01*
X37986632Y-109713475D01*
X38193475Y-109506632D01*
X38310000Y-109332240D01*
X38426525Y-109506632D01*
X38633368Y-109713475D01*
X38876589Y-109875990D01*
X39146842Y-109987932D01*
X39433740Y-110045000D01*
X39726260Y-110045000D01*
X40013158Y-109987932D01*
X40283411Y-109875990D01*
X40526632Y-109713475D01*
X40733475Y-109506632D01*
X40850000Y-109332240D01*
X40966525Y-109506632D01*
X41173368Y-109713475D01*
X41416589Y-109875990D01*
X41686842Y-109987932D01*
X41973740Y-110045000D01*
X42266260Y-110045000D01*
X42553158Y-109987932D01*
X42823411Y-109875990D01*
X43066632Y-109713475D01*
X43273475Y-109506632D01*
X43390000Y-109332240D01*
X43506525Y-109506632D01*
X43713368Y-109713475D01*
X43956589Y-109875990D01*
X44226842Y-109987932D01*
X44513740Y-110045000D01*
X44806260Y-110045000D01*
X45093158Y-109987932D01*
X45363411Y-109875990D01*
X45606632Y-109713475D01*
X45813475Y-109506632D01*
X45930000Y-109332240D01*
X46046525Y-109506632D01*
X46253368Y-109713475D01*
X46496589Y-109875990D01*
X46766842Y-109987932D01*
X47053740Y-110045000D01*
X47346260Y-110045000D01*
X47633158Y-109987932D01*
X47903411Y-109875990D01*
X48146632Y-109713475D01*
X48353475Y-109506632D01*
X48470000Y-109332240D01*
X48586525Y-109506632D01*
X48793368Y-109713475D01*
X49036589Y-109875990D01*
X49306842Y-109987932D01*
X49593740Y-110045000D01*
X49886260Y-110045000D01*
X50173158Y-109987932D01*
X50443411Y-109875990D01*
X50686632Y-109713475D01*
X50818487Y-109581620D01*
X50840498Y-109654180D01*
X50899463Y-109764494D01*
X50978815Y-109861185D01*
X51075506Y-109940537D01*
X51185820Y-109999502D01*
X51305518Y-110035812D01*
X51430000Y-110048072D01*
X53130000Y-110048072D01*
X53254482Y-110035812D01*
X53374180Y-109999502D01*
X53484494Y-109940537D01*
X53581185Y-109861185D01*
X53660537Y-109764494D01*
X53719502Y-109654180D01*
X53755812Y-109534482D01*
X53768072Y-109410000D01*
X53768072Y-108427000D01*
X54545000Y-108427000D01*
X54545000Y-108702000D01*
X54595908Y-108964883D01*
X54697124Y-109212783D01*
X54844758Y-109436173D01*
X55033137Y-109626469D01*
X55255021Y-109776357D01*
X55501883Y-109880078D01*
X55567742Y-109892519D01*
X55778000Y-109769518D01*
X55778000Y-108427000D01*
X56032000Y-108427000D01*
X56032000Y-109769518D01*
X56242258Y-109892519D01*
X56308117Y-109880078D01*
X56554979Y-109776357D01*
X56776863Y-109626469D01*
X56965242Y-109436173D01*
X57112876Y-109212783D01*
X57214092Y-108964883D01*
X57265000Y-108702000D01*
X57265000Y-108427000D01*
X61995000Y-108427000D01*
X61995000Y-108702000D01*
X62045908Y-108964883D01*
X62147124Y-109212783D01*
X62294758Y-109436173D01*
X62483137Y-109626469D01*
X62705021Y-109776357D01*
X62951883Y-109880078D01*
X63017742Y-109892519D01*
X63228000Y-109769518D01*
X63228000Y-108427000D01*
X63482000Y-108427000D01*
X63482000Y-109769518D01*
X63692258Y-109892519D01*
X63758117Y-109880078D01*
X64004979Y-109776357D01*
X64226863Y-109626469D01*
X64415242Y-109436173D01*
X64562876Y-109212783D01*
X64664092Y-108964883D01*
X64715000Y-108702000D01*
X64715000Y-108427000D01*
X63482000Y-108427000D01*
X63228000Y-108427000D01*
X61995000Y-108427000D01*
X57265000Y-108427000D01*
X56032000Y-108427000D01*
X55778000Y-108427000D01*
X54545000Y-108427000D01*
X53768072Y-108427000D01*
X53768072Y-107898000D01*
X54545000Y-107898000D01*
X54545000Y-108173000D01*
X55778000Y-108173000D01*
X55778000Y-106830482D01*
X56032000Y-106830482D01*
X56032000Y-108173000D01*
X56653734Y-108173000D01*
X56828102Y-108245226D01*
X57028061Y-108285000D01*
X57231939Y-108285000D01*
X57431898Y-108245226D01*
X57620256Y-108167205D01*
X57789774Y-108053937D01*
X57933937Y-107909774D01*
X58047205Y-107740256D01*
X58125226Y-107551898D01*
X58165000Y-107351939D01*
X58165000Y-107148061D01*
X61095000Y-107148061D01*
X61095000Y-107351939D01*
X61134774Y-107551898D01*
X61212795Y-107740256D01*
X61326063Y-107909774D01*
X61470226Y-108053937D01*
X61639744Y-108167205D01*
X61828102Y-108245226D01*
X62028061Y-108285000D01*
X62231939Y-108285000D01*
X62431898Y-108245226D01*
X62606266Y-108173000D01*
X63228000Y-108173000D01*
X63228000Y-106830482D01*
X63482000Y-106830482D01*
X63482000Y-108173000D01*
X64715000Y-108173000D01*
X64715000Y-107898000D01*
X64664092Y-107635117D01*
X64562876Y-107387217D01*
X64415242Y-107163827D01*
X64226863Y-106973531D01*
X64004979Y-106823643D01*
X63758117Y-106719922D01*
X63692258Y-106707481D01*
X63482000Y-106830482D01*
X63228000Y-106830482D01*
X63017742Y-106707481D01*
X63012896Y-106708396D01*
X62933937Y-106590226D01*
X62789774Y-106446063D01*
X62620256Y-106332795D01*
X62431898Y-106254774D01*
X62231939Y-106215000D01*
X62028061Y-106215000D01*
X61828102Y-106254774D01*
X61639744Y-106332795D01*
X61470226Y-106446063D01*
X61326063Y-106590226D01*
X61212795Y-106759744D01*
X61134774Y-106948102D01*
X61095000Y-107148061D01*
X58165000Y-107148061D01*
X58125226Y-106948102D01*
X58047205Y-106759744D01*
X57933937Y-106590226D01*
X57789774Y-106446063D01*
X57620256Y-106332795D01*
X57431898Y-106254774D01*
X57231939Y-106215000D01*
X57028061Y-106215000D01*
X56828102Y-106254774D01*
X56639744Y-106332795D01*
X56470226Y-106446063D01*
X56326063Y-106590226D01*
X56247104Y-106708396D01*
X56242258Y-106707481D01*
X56032000Y-106830482D01*
X55778000Y-106830482D01*
X55567742Y-106707481D01*
X55501883Y-106719922D01*
X55255021Y-106823643D01*
X55033137Y-106973531D01*
X54844758Y-107163827D01*
X54697124Y-107387217D01*
X54595908Y-107635117D01*
X54545000Y-107898000D01*
X53768072Y-107898000D01*
X53768072Y-107710000D01*
X53755812Y-107585518D01*
X53719502Y-107465820D01*
X53660537Y-107355506D01*
X53581185Y-107258815D01*
X53484494Y-107179463D01*
X53374180Y-107120498D01*
X53316965Y-107103142D01*
X53453476Y-106966631D01*
X53615991Y-106723410D01*
X53727933Y-106453157D01*
X53785001Y-106166259D01*
X53785001Y-105873739D01*
X53727933Y-105586841D01*
X53615991Y-105316588D01*
X53453476Y-105073367D01*
X53246633Y-104866524D01*
X53070595Y-104748899D01*
X53234022Y-104627000D01*
X54545000Y-104627000D01*
X54545000Y-104952000D01*
X54593026Y-105185619D01*
X54685706Y-105405380D01*
X54819479Y-105602837D01*
X54989203Y-105770402D01*
X55188356Y-105901636D01*
X55409285Y-105991496D01*
X55441323Y-105993635D01*
X55628000Y-105868550D01*
X55628000Y-104627000D01*
X55882000Y-104627000D01*
X55882000Y-105868550D01*
X56068677Y-105993635D01*
X56100715Y-105991496D01*
X56321644Y-105901636D01*
X56520797Y-105770402D01*
X56690521Y-105602837D01*
X56824294Y-105405380D01*
X56916974Y-105185619D01*
X56965000Y-104952000D01*
X56965000Y-104627000D01*
X62295000Y-104627000D01*
X62295000Y-104952000D01*
X62343026Y-105185619D01*
X62435706Y-105405380D01*
X62569479Y-105602837D01*
X62739203Y-105770402D01*
X62938356Y-105901636D01*
X63159285Y-105991496D01*
X63191323Y-105993635D01*
X63378000Y-105868550D01*
X63378000Y-104627000D01*
X63632000Y-104627000D01*
X63632000Y-105868550D01*
X63818677Y-105993635D01*
X63850715Y-105991496D01*
X64071644Y-105901636D01*
X64270797Y-105770402D01*
X64440521Y-105602837D01*
X64574294Y-105405380D01*
X64666974Y-105185619D01*
X64715000Y-104952000D01*
X64715000Y-104627000D01*
X63632000Y-104627000D01*
X63378000Y-104627000D01*
X62295000Y-104627000D01*
X56965000Y-104627000D01*
X55882000Y-104627000D01*
X55628000Y-104627000D01*
X54545000Y-104627000D01*
X53234022Y-104627000D01*
X53300270Y-104577587D01*
X53495179Y-104361354D01*
X53644158Y-104111251D01*
X53666595Y-104048000D01*
X54545000Y-104048000D01*
X54545000Y-104373000D01*
X55628000Y-104373000D01*
X55628000Y-103131450D01*
X55882000Y-103131450D01*
X55882000Y-104373000D01*
X56965000Y-104373000D01*
X56965000Y-104048000D01*
X62295000Y-104048000D01*
X62295000Y-104373000D01*
X63378000Y-104373000D01*
X63378000Y-103131450D01*
X63632000Y-103131450D01*
X63632000Y-104373000D01*
X64715000Y-104373000D01*
X64715000Y-104048000D01*
X64666974Y-103814381D01*
X64574294Y-103594620D01*
X64440521Y-103397163D01*
X64270797Y-103229598D01*
X64071644Y-103098364D01*
X63850715Y-103008504D01*
X63818677Y-103006365D01*
X63632000Y-103131450D01*
X63378000Y-103131450D01*
X63191323Y-103006365D01*
X63159285Y-103008504D01*
X62938356Y-103098364D01*
X62739203Y-103229598D01*
X62569479Y-103397163D01*
X62435706Y-103594620D01*
X62343026Y-103814381D01*
X62295000Y-104048000D01*
X56965000Y-104048000D01*
X56916974Y-103814381D01*
X56824294Y-103594620D01*
X56690521Y-103397163D01*
X56520797Y-103229598D01*
X56321644Y-103098364D01*
X56100715Y-103008504D01*
X56068677Y-103006365D01*
X55882000Y-103131450D01*
X55628000Y-103131450D01*
X55441323Y-103006365D01*
X55409285Y-103008504D01*
X55188356Y-103098364D01*
X54989203Y-103229598D01*
X54819479Y-103397163D01*
X54685706Y-103594620D01*
X54593026Y-103814381D01*
X54545000Y-104048000D01*
X53666595Y-104048000D01*
X53741482Y-103836890D01*
X53620815Y-103606999D01*
X52427001Y-103606999D01*
X52427001Y-103626999D01*
X52173001Y-103626999D01*
X52173001Y-103606999D01*
X49887001Y-103606999D01*
X49887001Y-103626999D01*
X49633001Y-103626999D01*
X49633001Y-103606999D01*
X47347001Y-103606999D01*
X47347001Y-103626999D01*
X47093001Y-103626999D01*
X47093001Y-103606999D01*
X44807001Y-103606999D01*
X44807001Y-103626999D01*
X44553001Y-103626999D01*
X44553001Y-103606999D01*
X42267001Y-103606999D01*
X42267001Y-103626999D01*
X42013001Y-103626999D01*
X42013001Y-103606999D01*
X39727001Y-103606999D01*
X39727001Y-103626999D01*
X39473001Y-103626999D01*
X39473001Y-103606999D01*
X37187001Y-103606999D01*
X37187001Y-103626999D01*
X36933001Y-103626999D01*
X36933001Y-103606999D01*
X34647001Y-103606999D01*
X34647001Y-103626999D01*
X34393001Y-103626999D01*
X34393001Y-103606999D01*
X33199187Y-103606999D01*
X33078520Y-103836890D01*
X33175844Y-104111251D01*
X33324823Y-104361354D01*
X33501627Y-104557501D01*
X33425821Y-104580497D01*
X33315507Y-104639462D01*
X33218816Y-104718814D01*
X33139464Y-104815505D01*
X33080499Y-104925819D01*
X33044189Y-105045517D01*
X33031929Y-105169999D01*
X33031929Y-106869999D01*
X33044189Y-106994481D01*
X33080499Y-107114179D01*
X33139464Y-107224493D01*
X33218816Y-107321184D01*
X33315507Y-107400536D01*
X33425821Y-107459501D01*
X33483036Y-107476857D01*
X33346525Y-107613368D01*
X33184010Y-107856589D01*
X33072068Y-108126842D01*
X33015000Y-108413740D01*
X31848072Y-108413740D01*
X31848072Y-108270000D01*
X31835812Y-108145518D01*
X31799502Y-108025820D01*
X31740537Y-107915506D01*
X31661185Y-107818815D01*
X31564494Y-107739463D01*
X31454180Y-107680498D01*
X31334482Y-107644188D01*
X31210000Y-107631928D01*
X30210000Y-107631928D01*
X30085518Y-107644188D01*
X29965820Y-107680498D01*
X29882774Y-107724888D01*
X29771067Y-107678617D01*
X29551788Y-107635000D01*
X29328212Y-107635000D01*
X29108933Y-107678617D01*
X28902376Y-107764176D01*
X28716480Y-107888388D01*
X28558388Y-108046480D01*
X28434176Y-108232376D01*
X28348617Y-108438933D01*
X28305000Y-108658212D01*
X28257074Y-108658212D01*
X28225226Y-108498102D01*
X28147205Y-108309744D01*
X28033937Y-108140226D01*
X27889774Y-107996063D01*
X27720256Y-107882795D01*
X27531898Y-107804774D01*
X27331939Y-107765000D01*
X27128061Y-107765000D01*
X26928102Y-107804774D01*
X26739744Y-107882795D01*
X26680000Y-107922715D01*
X26620256Y-107882795D01*
X26431898Y-107804774D01*
X26231939Y-107765000D01*
X26028061Y-107765000D01*
X25828102Y-107804774D01*
X25639744Y-107882795D01*
X25470226Y-107996063D01*
X25326063Y-108140226D01*
X25212795Y-108309744D01*
X25134774Y-108498102D01*
X25095000Y-108698061D01*
X23938488Y-108698061D01*
X23936191Y-105175000D01*
X29241928Y-105175000D01*
X29241928Y-106875000D01*
X29254188Y-106999482D01*
X29290498Y-107119180D01*
X29349463Y-107229494D01*
X29428815Y-107326185D01*
X29525506Y-107405537D01*
X29635820Y-107464502D01*
X29755518Y-107500812D01*
X29880000Y-107513072D01*
X31580000Y-107513072D01*
X31704482Y-107500812D01*
X31824180Y-107464502D01*
X31934494Y-107405537D01*
X32031185Y-107326185D01*
X32110537Y-107229494D01*
X32169502Y-107119180D01*
X32205812Y-106999482D01*
X32218072Y-106875000D01*
X32218072Y-105175000D01*
X32205812Y-105050518D01*
X32169502Y-104930820D01*
X32110537Y-104820506D01*
X32031185Y-104723815D01*
X31934494Y-104644463D01*
X31824180Y-104585498D01*
X31743534Y-104561034D01*
X31827588Y-104485269D01*
X32001641Y-104251920D01*
X32126825Y-103989099D01*
X32171476Y-103841890D01*
X32050155Y-103612000D01*
X30857000Y-103612000D01*
X30857000Y-103632000D01*
X30603000Y-103632000D01*
X30603000Y-103612000D01*
X29409845Y-103612000D01*
X29288524Y-103841890D01*
X29333175Y-103989099D01*
X29458359Y-104251920D01*
X29632412Y-104485269D01*
X29716466Y-104561034D01*
X29635820Y-104585498D01*
X29525506Y-104644463D01*
X29428815Y-104723815D01*
X29349463Y-104820506D01*
X29290498Y-104930820D01*
X29254188Y-105050518D01*
X29241928Y-105175000D01*
X23936191Y-105175000D01*
X23935023Y-103385711D01*
X23962549Y-103104979D01*
X24033708Y-102869288D01*
X24149291Y-102651911D01*
X24304895Y-102461121D01*
X24494593Y-102304189D01*
X24711157Y-102187094D01*
X24946344Y-102114291D01*
X25225028Y-102085000D01*
X30256172Y-102085000D01*
X30098748Y-102140843D01*
G37*
%TD.AperFunction*%
D21*
X32034479Y-126079967D02*
X32186440Y-126142911D01*
X32347760Y-126175000D01*
X32512240Y-126175000D01*
X32673560Y-126142911D01*
X32825521Y-126079967D01*
X32829961Y-126077000D01*
X34553000Y-126077000D01*
X34553000Y-129000000D01*
X34555440Y-129024776D01*
X34562667Y-129048601D01*
X34574403Y-129070557D01*
X34590197Y-129089803D01*
X34609443Y-129105597D01*
X34631399Y-129117333D01*
X34655224Y-129124560D01*
X34680000Y-129127000D01*
X37053000Y-129127000D01*
X37053000Y-129773000D01*
X34730000Y-129773000D01*
X34705224Y-129775440D01*
X34681399Y-129782667D01*
X34659443Y-129794403D01*
X34640197Y-129810197D01*
X34624403Y-129829443D01*
X34612667Y-129851399D01*
X34605440Y-129875224D01*
X34603000Y-129900000D01*
X34603000Y-131747394D01*
X34344520Y-132005874D01*
X34334479Y-132010033D01*
X34197719Y-132101413D01*
X34126132Y-132173000D01*
X31807000Y-132173000D01*
X31807000Y-131800000D01*
X31804560Y-131775224D01*
X31797333Y-131751399D01*
X31785597Y-131729443D01*
X31769803Y-131710197D01*
X31750557Y-131694403D01*
X31728601Y-131682667D01*
X31704776Y-131675440D01*
X31680000Y-131673000D01*
X31457000Y-131673000D01*
X31457000Y-131577000D01*
X31680000Y-131577000D01*
X31704776Y-131574560D01*
X31728601Y-131567333D01*
X31750557Y-131555597D01*
X31769803Y-131539803D01*
X31785597Y-131520557D01*
X31797333Y-131498601D01*
X31804560Y-131474776D01*
X31807000Y-131450000D01*
X31807000Y-126077000D01*
X32030039Y-126077000D01*
X32034479Y-126079967D01*
%TA.AperFunction,Conductor*%
D22*
G36*
X32034479Y-126079967D02*
G01*
X32186440Y-126142911D01*
X32347760Y-126175000D01*
X32512240Y-126175000D01*
X32673560Y-126142911D01*
X32825521Y-126079967D01*
X32829961Y-126077000D01*
X34553000Y-126077000D01*
X34553000Y-129000000D01*
X34555440Y-129024776D01*
X34562667Y-129048601D01*
X34574403Y-129070557D01*
X34590197Y-129089803D01*
X34609443Y-129105597D01*
X34631399Y-129117333D01*
X34655224Y-129124560D01*
X34680000Y-129127000D01*
X37053000Y-129127000D01*
X37053000Y-129773000D01*
X34730000Y-129773000D01*
X34705224Y-129775440D01*
X34681399Y-129782667D01*
X34659443Y-129794403D01*
X34640197Y-129810197D01*
X34624403Y-129829443D01*
X34612667Y-129851399D01*
X34605440Y-129875224D01*
X34603000Y-129900000D01*
X34603000Y-131747394D01*
X34344520Y-132005874D01*
X34334479Y-132010033D01*
X34197719Y-132101413D01*
X34126132Y-132173000D01*
X31807000Y-132173000D01*
X31807000Y-131800000D01*
X31804560Y-131775224D01*
X31797333Y-131751399D01*
X31785597Y-131729443D01*
X31769803Y-131710197D01*
X31750557Y-131694403D01*
X31728601Y-131682667D01*
X31704776Y-131675440D01*
X31680000Y-131673000D01*
X31457000Y-131673000D01*
X31457000Y-131577000D01*
X31680000Y-131577000D01*
X31704776Y-131574560D01*
X31728601Y-131567333D01*
X31750557Y-131555597D01*
X31769803Y-131539803D01*
X31785597Y-131520557D01*
X31797333Y-131498601D01*
X31804560Y-131474776D01*
X31807000Y-131450000D01*
X31807000Y-126077000D01*
X32030039Y-126077000D01*
X32034479Y-126079967D01*
G37*
%TD.AperFunction*%
%TD*%
M02*
